<svg width="131" height="109" viewBox="0 0 131 109" fill="none" xmlns="http://www.w3.org/2000/svg">
<path d="M0.923721 6.66879C1.35004 8.11648 2.18383 9.80928 2.4873 11.28C2.49155 11.3007 2.4958 11.3213 2.50005 11.3419C2.62407 11.943 2.72302 12.5644 2.84281 13.3162C2.85807 13.4119 2.87341 13.5102 2.88943 13.6104C3.03193 14.5014 3.21094 15.5947 3.49489 17.0714C3.83752 18.8533 4.26577 20.4634 4.69721 21.8475L4.37997 20.2961C4.58829 22.9749 5.06355 25.0214 5.25092 25.7991C5.85925 28.3469 6.28966 31.0752 7.04524 34.7614C7.11459 35.0976 7.18608 35.4432 7.26232 35.7981C7.32404 36.0854 7.17022 36.3686 6.91659 36.4306C6.66285 36.4925 6.40541 36.3075 6.34312 36.0177C6.26788 35.6678 6.19619 35.3275 6.12782 34.9966C6.12751 34.9951 6.1272 34.9936 6.12689 34.9921C5.36055 31.2574 4.9381 28.5728 4.33792 26.0634C4.14431 25.2592 3.65381 23.1523 3.43861 20.3803L3.79838 22.1396C3.35719 20.7229 2.91928 19.0751 2.5687 17.2519C2.28172 15.7595 2.09955 14.6543 1.95618 13.7579C1.94048 13.6597 1.92553 13.564 1.91071 13.471C1.9104 13.4688 1.91009 13.4666 1.90979 13.4644C1.78917 12.7077 1.69484 12.1123 1.57616 11.537C1.57343 11.5248 1.5707 11.5127 1.56797 11.5005C1.26111 10.0132 0.435519 8.35519 0.0220374 6.95109C-0.0567782 6.68301 0.0813366 6.40221 0.330353 6.32428C0.579264 6.24655 0.844657 6.40094 0.923721 6.66879ZM48.5524 95.993C50.0454 96.5048 51.7602 97.51 53.3091 98.4455C54.8753 99.397 56.2455 100.281 56.9075 100.737C57.5461 101.18 58.3235 101.543 59.2682 101.919C59.4809 102.004 59.7028 102.089 59.9332 102.176C60.6946 102.464 61.5513 102.77 62.4968 103.13C65.9857 104.441 68.3421 104.869 70.0624 105.14C70.4056 105.192 70.7268 105.236 71.0284 105.275C71.0289 105.275 71.0294 105.275 71.0299 105.275C72.169 105.422 73.03 105.508 73.8157 105.702C75.2329 106.047 76.3491 106.304 77.7224 106.709C79.6232 107.276 82.4609 107.233 84.1918 106.849C84.2887 106.829 84.3879 106.807 84.4883 106.785C85.7445 106.507 87.4375 106.135 89.6719 105.697C91.5716 105.327 93.2943 105.101 94.8066 104.908C95.2223 104.855 95.6214 104.806 96.0059 104.755C96.9764 104.628 97.8549 104.497 98.6766 104.309C103.835 103.106 106.564 102.433 108.54 102.124C109.971 101.899 110.78 101.903 111.391 101.898C111.574 101.897 111.736 101.897 111.886 101.888C113.228 101.812 114.425 101.566 115.883 101.238C116.207 101.165 116.544 101.088 116.899 101.007C118.018 100.761 118.805 100.426 119.407 100.118C119.671 99.9832 119.899 99.8539 120.115 99.7307C120.119 99.7283 120.122 99.7259 120.126 99.7235C120.156 99.7063 120.186 99.6896 120.216 99.6727C120.238 99.6599 120.26 99.6463 120.283 99.6336C120.29 99.6254 120.297 99.6193 120.302 99.6143C120.307 99.6103 120.31 99.6074 120.312 99.6054C120.312 99.6049 120.313 99.6043 120.313 99.6038C120.351 99.569 120.387 99.5469 120.394 99.5424C120.407 99.5343 120.419 99.5284 120.425 99.5251C120.456 99.5078 120.498 99.4883 120.526 99.4757C120.597 99.4433 120.722 99.3887 120.917 99.3053C121.082 99.2235 121.237 99.1352 121.431 99.0237C121.444 99.0166 121.456 99.0095 121.468 99.0024C121.657 98.8935 121.879 98.7663 122.162 98.6136C122.419 98.4748 122.738 98.5422 122.875 98.766C123.012 98.9898 122.913 99.2858 122.654 99.4259C122.386 99.5708 122.177 99.6913 121.986 99.8011C121.974 99.8082 121.962 99.8152 121.95 99.8223C121.751 99.9366 121.562 100.044 121.354 100.146C121.285 100.18 121.212 100.214 121.144 100.245C121.025 100.306 120.891 100.382 120.731 100.473C120.699 100.491 120.666 100.509 120.632 100.529C120.416 100.653 120.164 100.797 119.875 100.944C119.197 101.291 118.331 101.657 117.089 101.933C116.749 102.011 116.42 102.086 116.101 102.158C114.629 102.49 113.334 102.757 111.903 102.837C111.707 102.848 111.516 102.848 111.313 102.849C110.702 102.854 110.024 102.845 108.671 103.06C106.774 103.355 104.089 104.016 98.915 105.225C98.044 105.425 97.0982 105.565 96.102 105.695C95.7216 105.745 95.3334 105.795 94.9391 105.845C93.4337 106.037 91.7489 106.259 89.8927 106.62C87.6773 107.055 86.0283 107.421 84.7561 107.702C84.7115 107.712 84.667 107.722 84.6223 107.732C84.5669 107.744 84.5119 107.756 84.4574 107.768C82.5882 108.184 79.5332 108.241 77.4105 107.606C76.0887 107.213 74.9912 106.962 73.569 106.615C72.8767 106.443 72.1287 106.37 70.9956 106.225C70.6777 106.184 70.3295 106.136 69.9453 106.078C68.1707 105.8 65.7431 105.359 62.1599 104.013C61.2306 103.659 60.3983 103.362 59.6292 103.072C59.3903 102.982 59.1571 102.892 58.9299 102.801C57.9647 102.418 57.0815 102.013 56.3336 101.493C55.7117 101.064 54.3628 100.191 52.8171 99.2522C51.2663 98.3145 49.6525 97.3791 48.3181 96.9237C48.1801 96.8771 48.0414 96.8291 47.9029 96.7808C46.7086 96.3656 45.509 95.9034 44.4066 95.6966C38.8526 95.4999 33.0166 88.7598 29.725 84.416C29.6798 84.3591 29.6348 84.3022 29.5898 84.2452C25.6437 79.234 23.2481 75.3479 22.405 74.0396C22.3663 73.9783 22.3311 73.9225 22.2995 73.8722C22.2714 73.8273 22.2456 73.787 22.2232 73.7512C21.8884 73.2136 21.5701 72.7517 21.2407 72.2649C21.2227 72.2384 21.2047 72.2118 21.1867 72.1852C20.8395 71.6704 20.4815 71.1257 20.1068 70.4552C18.7145 67.959 17.6377 65.9113 16.7297 64.1193C16.562 63.7879 16.4014 63.4649 16.2454 63.1497C16.245 63.1488 16.2446 63.1479 16.2441 63.1469C15.5603 61.7642 14.9815 60.528 14.4763 59.3313C13.5596 57.153 12.9419 55.691 12.4462 54.5483C12.2916 54.1908 12.1492 53.8618 12.0157 53.5512C11.7272 52.8797 11.4807 52.2922 11.2553 51.6778C10.8275 50.5097 10.4111 49.4462 10.0156 48.3987C9.98038 48.3054 9.9458 48.212 9.9109 48.1188C9.48823 46.9915 9.079 45.8362 8.73332 44.615C8.65288 44.3309 8.79234 44.0389 9.04232 43.9634C9.29221 43.8882 9.55816 44.0556 9.63784 44.3372C9.97087 45.5144 10.3667 46.6359 10.7857 47.7541C10.8205 47.8471 10.856 47.9403 10.8913 48.0339C11.2827 49.0712 11.7015 50.146 12.134 51.3277C12.3497 51.9158 12.5804 52.4665 12.8606 53.1199C12.9945 53.4316 13.14 53.7671 13.3014 54.1409C13.8003 55.2919 14.422 56.7625 15.3395 58.9439C15.8344 60.1166 16.4002 61.3278 17.0773 62.698C17.2327 63.0124 17.3943 63.3354 17.5624 63.6679C18.4646 65.4494 19.5364 67.4897 20.9227 69.9763C21.2733 70.6039 21.6087 71.1158 21.9509 71.6236C21.97 71.6522 21.9891 71.6807 22.0083 71.7092C22.3315 72.1872 22.6644 72.6699 23.0145 73.2322C23.0613 73.3073 23.1209 73.4034 23.1934 73.5184C24.029 74.8156 26.4103 78.679 30.3238 83.6501C30.3359 83.6656 30.3479 83.6811 30.36 83.6966C33.0025 87.0129 34.7121 88.748 36.1826 89.8308C37.3495 90.6781 38.1823 91.3468 38.8637 91.902C38.9937 92.0077 39.1171 92.1073 39.2347 92.2023C39.7426 92.6127 40.1512 92.9325 40.5923 93.203C41.9307 94.0202 43.0255 94.4318 44.466 94.7111C45.6886 94.9481 46.985 95.4464 48.1429 95.8513C48.1446 95.8519 48.1463 95.8525 48.148 95.8531C48.2851 95.9012 48.4201 95.9481 48.5524 95.993ZM125.74 96.3851C126 96.2775 126.296 96.3822 126.401 96.6209C126.505 96.86 126.378 97.1433 126.116 97.2519C125.486 97.5128 124.895 97.7526 124.215 98.0261C123.939 98.1371 123.634 98.0311 123.534 97.7903C123.434 97.5492 123.576 97.265 123.85 97.1545C124.527 96.8825 125.113 96.6447 125.74 96.3851ZM50.0504 91.3828C50.3007 91.4802 50.435 91.7595 50.3511 92.0085C50.2668 92.257 49.992 92.3804 49.7372 92.2813C49.6026 92.229 49.3789 92.1465 49.0786 92.0325C46.9389 91.2651 40.6567 88.5315 35.5415 83.5098C35.111 83.0938 34.7279 82.7182 34.3658 82.3568C32.8354 80.8039 31.1432 79.8964 28.6998 76.459C18.5473 61.8204 14 44.643 10.4603 27.7007C9.92819 25.0852 9.5341 22.4504 9.26714 19.859L9.36363 20.3309C8.60839 18.1096 7.87926 15.8792 7.15978 13.6411C5.89545 9.70812 4.01583 2.35655 3.51231 0.646679C3.43334 0.378528 3.57153 0.0978259 3.82062 0.0198736C4.06962 -0.0579116 4.33501 0.0963663 4.41399 0.364379C4.91396 2.06217 6.7865 9.38956 8.0461 13.3078C8.77002 15.5597 9.50354 17.8037 10.2637 20.0384L10.2098 19.7747C10.4726 22.3201 10.8602 24.9128 11.3826 27.4829C14.9033 44.3776 20.5272 61.0402 30.4165 75.2647C32.7672 78.5711 33.4994 80.1269 35.0111 81.6635C35.3692 82.0213 35.7498 82.3939 36.1783 82.8084C41.1555 87.6956 47.2418 90.3562 49.3761 91.1272C49.6808 91.2434 49.9103 91.3282 50.0504 91.3828ZM61.1853 97.2782C64.0387 98.2398 68.2073 99.474 71.9481 100.121C73.7371 100.445 75.5321 100.671 76.8641 100.783C78.9642 100.958 80.3358 101.203 81.7065 101.428C81.7206 101.43 81.7347 101.432 81.7489 101.434C83.0651 101.651 84.4063 101.851 86.6493 101.736C88.8812 101.622 91.9139 101.139 94.9492 100.458C94.9516 100.458 94.9539 100.458 94.9563 100.457C97.9049 99.8039 100.92 98.4575 103.018 97.9431C110.649 96.0503 115.396 94.7848 117.82 94.3987C122.255 93.5983 126.158 90.7414 130.754 89.7056C131.319 89.7021 130.873 90.7312 129.949 90.9536C129.916 90.9631 129.884 90.9725 129.851 90.982C129.542 91.0732 129.273 91.1552 128.907 91.2923C128.386 91.511 128.009 91.6883 127.666 91.8493C126.785 92.2983 120.438 94.9404 117.975 95.3309C115.676 95.6897 111.371 98.0205 103.523 99.9723C101.412 100.489 98.1634 100.715 95.179 101.378C95.1708 101.379 95.1626 101.381 95.1544 101.383C92.1153 102.065 89.0113 102.562 86.7173 102.68C84.3645 102.801 82.9477 102.588 81.5971 102.366C81.5834 102.363 81.5696 102.361 81.5558 102.359C80.1724 102.133 78.8552 101.897 76.8017 101.726C75.419 101.61 73.5773 101.379 71.7498 101.047C67.966 100.389 63.7893 99.151 60.9102 98.1831C60.6507 98.0978 60.502 97.8234 60.5793 97.5738C60.6583 97.325 60.9313 97.1949 61.1853 97.2782ZM63.209 91.7476C70.7101 93.2932 78.1485 94.3802 86.1033 94.9542C88.1661 94.8543 91.0192 94.621 93.9081 94.1975C93.9401 94.1933 93.972 94.189 94.004 94.1846C96.7926 93.785 99.7374 93.1769 101.696 92.6981C108.95 90.9025 113.376 89.2552 115.703 88.9042C117.921 88.5282 118.515 88.2677 119.373 87.9069C119.396 87.8972 119.42 87.8875 119.444 87.8778C119.445 87.8764 119.446 87.875 119.447 87.8736C119.472 87.8498 119.494 87.8328 119.506 87.8245C119.529 87.8077 119.55 87.7964 119.557 87.7922C119.575 87.7825 119.59 87.7757 119.595 87.7732C119.617 87.7629 119.643 87.7521 119.66 87.7454C119.811 87.6856 120.323 87.4945 120.684 87.378C121.069 87.2526 121.353 87.1824 121.654 87.1096C121.685 87.1023 121.715 87.095 121.746 87.0877C122.018 87.0219 122.315 86.9496 122.736 86.8242C122.993 86.7479 123.265 86.8861 123.343 87.1346C123.421 87.383 123.274 87.6477 123.016 87.7246C122.571 87.8571 122.254 87.9343 121.979 88.0006C121.949 88.0078 121.918 88.0151 121.888 88.0223C121.598 88.0922 121.346 88.1558 121.003 88.2673C120.524 88.4457 120.121 88.6181 119.785 88.7608C118.89 89.1367 118.201 89.4372 115.866 89.8321C113.65 90.1614 109.302 91.7842 101.937 93.6116C99.9567 94.0962 96.9794 94.7116 94.1622 95.1161C94.1291 95.121 94.096 95.1259 94.0628 95.1308C91.1398 95.5599 88.2556 95.7951 86.17 95.8967C78.1298 96.3137 70.1107 95.9181 62.9312 92.6515C61.5625 92.2076 60.3215 91.7196 59.2117 91.2406C55.9119 89.8044 53.5389 88.4242 51.0073 87.4167C50.4586 87.195 49.109 86.4165 47.2761 85.1246C46.74 84.7465 46.1535 84.3158 45.5313 83.8382C44.0052 82.6674 42.2469 81.1959 40.3556 79.4019C39.9593 79.026 39.6062 78.6864 39.2719 78.3592C37.8553 76.9479 36.7134 75.8297 34.4669 72.6896C31.6511 68.8576 27.9365 61.7183 26.3786 57.7031C25.5703 55.7128 25.1843 54.546 24.9217 53.7273C24.8489 53.4985 24.7873 53.2966 24.7307 53.1115C24.5829 52.6276 24.4708 52.2535 24.3057 51.7665C23.1305 48.2464 22.1888 45.847 20.7743 41.8078C20.6866 41.5542 20.8158 41.2754 21.0612 41.1855C21.3067 41.0957 21.5755 41.2266 21.6626 41.4779C23.0677 45.4929 24.0145 47.909 25.1952 51.4469C25.3658 51.9506 25.4844 52.3483 25.6335 52.8365C25.6888 53.0174 25.7482 53.2106 25.8166 53.4256C26.0725 54.2239 26.4506 55.3682 27.2469 57.33C28.7873 61.302 32.4577 68.3563 35.2288 72.1288C37.425 75.2002 38.5283 76.2822 39.9201 77.6696C40.2503 77.9931 40.6005 78.3292 40.9945 78.7031C42.8608 80.4745 44.5968 81.9272 46.0988 83.0801C46.7101 83.5493 47.2861 83.9722 47.8109 84.3426C49.6506 85.6381 50.8987 86.3488 51.3618 86.538C53.9368 87.5645 56.3686 88.9761 59.6377 90.3935C60.7155 90.8574 61.908 91.3253 63.209 91.7476ZM17.671 26.7692C17.7256 27.0316 17.5628 27.2856 17.3085 27.3465C17.0542 27.4065 16.8029 27.2446 16.7485 26.9849C16.4546 25.5662 16.261 24.5667 16.1136 23.7897C15.8444 22.3571 15.721 21.6045 15.6207 20.5556C15.5809 20.1315 15.5438 19.713 15.5094 19.3008L15.3239 18.3938C14.5991 16.1198 13.8967 13.9334 13.2544 11.9352C11.9901 8.0023 10.9594 4.79702 10.4559 3.0872C10.377 2.81908 10.5152 2.53834 10.7642 2.4604C11.0131 2.38278 11.2786 2.53704 11.3576 2.8049C11.8576 4.5027 12.88 7.684 14.1396 11.6022C14.7845 13.6085 15.4922 15.8082 16.2234 18.1014L16.4514 19.2165C16.4852 19.621 16.5216 20.0318 16.5607 20.4482C16.6571 21.4581 16.7709 22.1576 17.0323 23.5543C17.178 24.3235 17.3721 25.3248 17.671 26.7692Z" fill="black"/>
</svg>
