<svg width="205" height="111" viewBox="0 0 205 111" fill="none" xmlns="http://www.w3.org/2000/svg">
<path d="M8.6845 29.3566C10.5587 28.6244 12.6736 27.4821 14.5951 26.9111C14.6224 26.9029 14.6498 26.8947 14.6772 26.8865C15.4748 26.6483 16.295 26.4366 17.2808 26.1888C17.4064 26.1573 17.5351 26.1254 17.6663 26.0926C18.8324 25.8015 20.2575 25.4476 22.1582 24.9615C28.4525 23.355 33.495 21.3828 34.9166 20.8198C37.8343 19.6697 41.3892 18.6442 45.8392 17.5345C46.2491 17.4325 46.6684 17.3306 47.0967 17.2267C47.4379 17.1438 47.8061 17.2728 47.8705 17.5257C47.9422 17.7771 47.6884 18.0553 47.3457 18.1385C46.9282 18.2398 46.5202 18.3401 46.1215 18.4392C46.1197 18.4396 46.1179 18.4401 46.1161 18.4405C41.6556 19.5525 38.2013 20.5502 35.3521 21.6704C33.9073 22.2421 28.7608 24.2517 22.3346 25.8934C20.4189 26.3841 18.9816 26.7428 17.8112 27.0355C17.683 27.0676 17.5579 27.0987 17.4362 27.1293C17.4333 27.13 17.4304 27.1306 17.4276 27.1313C16.4376 27.3807 15.6535 27.583 14.8921 27.8106C14.876 27.8157 14.8598 27.8207 14.8437 27.8257C12.9173 28.3974 10.8448 29.5271 9.0337 30.2346C8.68984 30.3686 8.33137 30.2818 8.23441 30.0395C8.13768 29.7973 8.33979 29.4912 8.6845 29.3566ZM138.12 21.5168C139.979 22.1466 142.143 23.474 143.963 24.8383C145.795 26.205 147.299 27.6166 147.973 28.3168C148.636 29.0044 149.445 29.6718 150.409 30.4594C150.63 30.64 150.86 30.8272 151.096 31.0217C151.876 31.6653 152.729 32.3875 153.627 33.2414C156.916 36.3819 158.992 38.4609 160.505 39.9385C160.815 40.2429 161.103 40.5262 161.37 40.7928C161.371 40.7933 161.371 40.7937 161.372 40.7942C162.382 41.8002 163.122 42.5696 163.705 43.366C164.739 44.7841 165.549 45.9674 166.397 47.4893C167.573 49.5857 169.675 52.1803 171.225 53.7652C171.31 53.8518 171.398 53.9401 171.486 54.03C172.61 55.1787 173.987 56.6077 175.797 58.9583C177.299 60.9136 178.42 62.7456 179.354 64.403C179.622 64.8779 179.871 65.3345 180.109 65.7735C180.709 66.8816 181.233 67.8798 181.766 68.7976C185.065 74.5102 186.488 78.0746 187.259 80.3424C187.843 82.0959 188.021 83.1443 188.147 83.8942C188.185 84.1213 188.217 84.3221 188.255 84.508C188.588 86.1659 189.023 87.6188 189.527 89.3889C189.639 89.7809 189.753 90.1887 189.869 90.6155C190.257 92.043 190.666 93.0526 191.028 93.8348C191.187 94.1788 191.336 94.4782 191.476 94.7605C191.479 94.7657 191.481 94.7709 191.484 94.776C191.504 94.8154 191.523 94.8546 191.542 94.8934C191.556 94.9227 191.572 94.9515 191.586 94.9808C191.595 94.9912 191.602 95.0009 191.607 95.008C191.611 95.0136 191.615 95.0181 191.617 95.0209C191.617 95.0214 191.618 95.0218 191.619 95.0223C191.657 95.0739 191.681 95.1211 191.687 95.1308C191.695 95.1477 191.702 95.1631 191.706 95.1709C191.726 95.212 191.748 95.2661 191.762 95.3021C191.799 95.3948 191.862 95.5565 191.957 95.8072C192.048 96.022 192.146 96.2249 192.267 96.4789C192.275 96.4948 192.283 96.5108 192.29 96.5268C192.409 96.7745 192.546 97.0647 192.709 97.4322C192.857 97.7666 192.791 98.144 192.562 98.2746C192.332 98.4051 192.028 98.2406 191.881 97.908C191.728 97.5633 191.6 97.293 191.482 97.0462C191.474 97.0306 191.467 97.015 191.459 96.9994C191.336 96.7422 191.22 96.4986 191.107 96.2316C191.069 96.1422 191.031 96.0496 190.996 95.9628C190.928 95.8086 190.845 95.6354 190.742 95.4289C190.722 95.3874 190.701 95.3445 190.68 95.3007C190.541 95.0202 190.378 94.6939 190.206 94.3214C189.804 93.4515 189.357 92.3409 188.936 90.7942C188.825 90.3888 188.715 89.9965 188.606 89.6134C188.101 87.8442 187.636 86.2932 187.282 84.541C187.233 84.3008 187.195 84.0665 187.152 83.8163C187.026 83.0761 186.874 82.1824 186.337 80.5722C185.604 78.4238 184.23 74.9595 180.971 69.3119C180.415 68.3543 179.86 67.296 179.253 66.1762C179.021 65.7488 178.781 65.3121 178.531 64.869C177.616 63.2476 176.538 61.4852 175.099 59.609C173.342 57.3248 172.014 55.9426 170.904 54.8054C170.865 54.7663 170.827 54.7273 170.788 54.6883C170.74 54.6397 170.693 54.5914 170.646 54.5436C169.007 52.8639 166.785 50.1289 165.493 47.8325C164.687 46.3893 163.918 45.2653 162.897 43.8669C162.393 43.1797 161.766 42.5261 160.786 41.5469C160.51 41.2721 160.206 40.9707 159.868 40.6377C158.342 39.1459 156.252 37.0538 152.955 33.9075C152.093 33.0888 151.285 32.4037 150.516 31.7695C150.278 31.5728 150.043 31.3804 149.812 31.1921C148.854 30.4084 147.954 29.6723 147.196 28.8887C146.575 28.2448 145.133 26.8902 143.367 25.5739C141.589 24.2427 139.599 23.0407 137.982 22.4893C137.815 22.432 137.646 22.3741 137.477 22.317C136.012 21.8185 134.553 21.3749 133.251 21.2443C127.127 21.3238 118.597 16.9739 112.269 15.3674C112.187 15.3452 112.105 15.3231 112.023 15.3011C104.793 13.3755 99.298 12.8954 97.475 12.7108C97.3885 12.7026 97.3098 12.6954 97.2389 12.6889C97.1757 12.6831 97.1184 12.6783 97.0679 12.6737C96.3105 12.6042 95.6328 12.5802 94.9191 12.5605C94.8801 12.5595 94.8411 12.5585 94.8021 12.5575C94.0498 12.5376 93.2391 12.5193 92.3458 12.4668C88.9908 12.2698 86.0519 12.2881 83.6749 12.3632C83.2318 12.3772 82.7994 12.3925 82.3763 12.4102C82.3751 12.4103 82.3739 12.4103 82.3726 12.4103C80.5158 12.4885 78.8425 12.5947 77.2342 12.6894C74.3363 12.8638 72.4674 13.1033 70.942 13.3201C70.4681 13.3885 70.03 13.4558 69.6156 13.5212C68.7192 13.6629 67.9315 13.7943 67.1116 13.9107C65.6426 14.1207 64.2861 14.3766 62.9365 14.6453C62.8162 14.6693 62.6959 14.6928 62.5757 14.717C61.1103 15.0119 59.6454 15.3202 58.0678 15.6071C57.7005 15.6739 57.3615 15.5209 57.3102 15.2648C57.2527 15.0102 57.5017 14.7487 57.8715 14.6813C59.4121 14.401 60.8498 14.0983 62.3236 13.8011C62.4452 13.7766 62.5671 13.7516 62.6892 13.7273C64.0432 13.4571 65.4355 13.1955 66.9377 12.9803C67.73 12.8677 68.4809 12.7423 69.365 12.6019C69.787 12.535 70.2403 12.4646 70.7431 12.3918C72.3012 12.1697 74.2098 11.9243 77.1515 11.7467C78.751 11.6523 80.4147 11.5467 82.284 11.4673C82.7127 11.4492 83.1524 11.4325 83.6042 11.4181C85.9993 11.3415 88.9794 11.3222 92.3785 11.5212C93.2308 11.5712 93.9995 11.5882 94.7568 11.6078C94.7993 11.609 94.8418 11.6102 94.8843 11.6115C95.5978 11.6308 96.3196 11.6552 97.1264 11.729C97.2341 11.7389 97.3716 11.752 97.5368 11.7675C99.3781 11.9537 104.94 12.4369 112.263 14.3872C112.286 14.3934 112.309 14.3996 112.331 14.4058C117.164 15.7186 119.904 16.7457 121.971 17.207C123.604 17.582 124.848 18.0083 125.818 18.3673C126.004 18.4365 126.18 18.5024 126.348 18.5662C127.07 18.8422 127.636 19.0663 128.22 19.2442C129.971 19.7783 131.347 20.055 133.065 20.2159C134.534 20.3584 136.156 20.8508 137.609 21.3433C137.611 21.3441 137.613 21.3448 137.615 21.3455C137.787 21.4033 137.955 21.4608 138.12 21.5168ZM194.988 102.255C195.094 102.61 194.977 102.958 194.727 103.034C194.477 103.109 194.19 102.884 194.085 102.531C193.834 101.69 193.577 100.849 193.315 100.007C193.204 99.6525 193.317 99.3076 193.564 99.2263C193.813 99.1467 194.103 99.3633 194.215 99.7198C194.479 100.565 194.736 101.41 194.988 102.255ZM138.978 16.6307C139.337 16.762 139.589 17.0874 139.542 17.3529C139.495 17.6179 139.169 17.7241 138.814 17.5934C138.624 17.5235 138.318 17.4167 137.904 17.2767C134.927 16.2327 126.321 13.6049 117.288 11.5545C116.532 11.3774 115.861 11.2322 115.212 11.0972C112.436 10.5421 110.033 10.6123 104.739 9.71345C82.2724 6.01833 58.7142 8.05168 36.7464 15.191C30.5219 17.2194 24.0832 19.3984 17.9421 21.6625C12.5473 23.6036 3.22446 26.9785 0.856295 27.9942C0.499722 28.1419 0.127388 28.0676 0.0257647 27.8272C-0.0756612 27.5868 0.132717 27.2713 0.490202 27.1231C2.84895 26.1114 12.1637 22.7385 17.5584 20.7959C23.7092 18.5267 30.1591 16.3429 36.3905 14.3102C58.4253 7.13985 82.1103 3.88341 105.098 7.65318C110.452 8.56422 112.546 9.6002 115.329 10.154C115.985 10.2898 116.671 10.4375 117.435 10.6155C126.432 12.6549 134.976 15.2391 138.026 16.3018C138.457 16.4471 138.78 16.5589 138.978 16.6307ZM153.739 26.6956C157.164 29.2433 161.67 33.3833 165.26 37.2863C167.017 39.1784 168.589 41.0055 169.826 42.4732C171.741 44.7513 172.732 46.3666 173.691 47.9632C173.701 47.9804 173.711 47.9975 173.722 48.0146C174.674 49.6157 175.612 51.2198 177.304 53.6961C179.01 56.1924 181.432 59.6086 183.706 63.1814C183.708 63.1842 183.71 63.1871 183.711 63.1899C185.977 66.7289 188.537 70.2256 189.878 73.0173C194.533 82.7633 196.158 89.2777 196.852 92.5651C198.025 98.3288 200.99 104.356 201.469 110.385C201.399 111.077 200.42 110.213 200.294 109.004C200.288 108.96 200.281 108.917 200.275 108.874C200.215 108.462 200.158 108.102 200.051 107.601C199.873 106.883 199.719 106.352 199.576 105.868C199.243 104.581 196.605 95.8429 195.891 92.6293C195.228 89.519 192.611 83.5939 187.992 73.92C186.695 71.2217 185.209 67.2926 182.942 63.7452C182.936 63.7355 182.929 63.7258 182.923 63.716C180.68 60.1902 178.254 56.7616 176.531 54.2409C174.79 51.6923 173.815 50.0274 172.856 48.4172C172.847 48.4015 172.838 48.3858 172.828 48.3701C171.884 46.7999 170.943 45.2709 169.113 43.0935C167.859 41.6048 166.279 39.7722 164.524 37.8844C160.975 34.0315 156.571 29.9841 153.207 27.4782C152.904 27.2499 152.774 26.8901 152.92 26.6728C153.065 26.4558 153.433 26.4653 153.739 26.6956ZM157.431 22.1063C168.112 29.085 176.708 39.0089 182.814 49.7028C184.628 52.3483 187.016 56.127 189.198 60.0002C189.223 60.0441 189.247 60.088 189.272 60.1319C191.434 63.9562 193.399 67.8563 194.751 70.6697C199.547 80.7096 201.682 87.239 202.41 90.6219C203.061 93.8001 203.329 94.6305 203.75 95.8708C203.761 95.9046 203.772 95.9385 203.783 95.9724C203.784 95.9743 203.786 95.9763 203.787 95.9783C203.813 96.0169 203.832 96.0503 203.841 96.0677C203.859 96.1031 203.872 96.1327 203.876 96.1441C203.887 96.1701 203.895 96.1924 203.898 96.2003C203.909 96.2326 203.922 96.2699 203.929 96.294C204 96.5185 204.206 97.226 204.35 97.791C204.498 98.3699 204.58 98.7893 204.662 99.2318C204.671 99.2766 204.679 99.3214 204.687 99.3663C204.761 99.765 204.84 100.199 204.971 100.816C205.05 101.193 204.901 101.523 204.641 101.554C204.38 101.586 204.106 101.309 204.027 100.934C203.891 100.287 203.806 99.8271 203.732 99.4279C203.724 99.3836 203.716 99.3393 203.707 99.2949C203.628 98.873 203.555 98.504 203.424 97.9926C203.214 97.26 203.034 96.717 202.871 96.2294C202.438 94.9508 202.13 93.9944 201.448 90.679C200.755 87.4869 198.704 81.1465 193.907 71.0932C192.56 68.2893 190.603 64.406 188.455 60.6072C188.43 60.5625 188.404 60.5179 188.379 60.4732C186.208 56.6204 183.84 52.8702 182.042 50.2476C175.03 39.9993 166.421 31.2063 156.901 22.8912C155.042 21.487 153.305 20.2404 151.681 19.134C146.867 15.8667 142.941 13.6822 138.922 12.2729C138.048 11.9734 135.81 10.9508 132.553 9.69558C131.603 9.32973 130.552 8.93872 129.402 8.53546C126.547 7.53363 123.265 6.51379 119.363 5.57022C118.541 5.37166 117.847 5.2181 117.158 5.07007C114.237 4.46848 111.831 3.9504 106.225 2.98029C99.2674 1.68286 87.4205 0.845039 81.1591 0.954436C78.0203 0.957963 76.1507 1.00476 74.9131 1.01774C74.5692 1.02217 74.2658 1.02545 73.9869 1.02972C73.2583 1.04118 72.6898 1.05403 71.9431 1.0969C66.488 1.43829 62.829 2.01471 56.6874 3.30842C56.3012 3.39112 55.9256 3.25581 55.8497 3.00471C55.7739 2.75361 56.0282 2.48041 56.4167 2.39684C62.6017 1.09166 66.3335 0.500382 71.8951 0.152702C72.679 0.107691 73.2909 0.0946573 74.0363 0.0832837C74.3126 0.0791714 74.6072 0.0756585 74.9351 0.0715202C76.1672 0.0584953 78.0218 0.0126148 81.1648 0.00910266C87.4547 -0.100631 99.3671 0.741275 106.36 2.04378C111.957 3.01148 114.334 3.5225 117.271 4.12543C117.967 4.27423 118.676 4.43021 119.506 4.62959C123.45 5.58049 126.766 6.60785 129.651 7.61808C130.809 8.02374 131.868 8.41644 132.824 8.7835C136.172 10.0734 138.299 11.0465 139.054 11.3017C143.248 12.7611 147.386 15.0671 152.282 18.3976C153.9 19.5024 155.616 20.7363 157.431 22.1063ZM35.0011 8.13053C35.3759 8.00969 35.7579 8.11102 35.8553 8.35445C35.9525 8.59792 35.73 8.89132 35.3571 9.01147C33.3436 9.65969 32.0659 10.107 30.9892 10.4827C29.0246 11.1731 28.0665 11.5234 26.6061 11.9886C22.7625 13.2184 19.291 14.4309 16.0793 15.6092C10.6609 17.5993 6.49132 19.3052 4.20891 20.2006C3.85253 20.3406 3.48381 20.2587 3.38652 20.0165C3.28962 19.7744 3.50135 19.4636 3.85854 19.3231C6.13211 18.4311 10.2789 16.7347 15.696 14.7437C18.9235 13.5588 22.4135 12.3374 26.2963 11.0946C27.7179 10.6416 28.6264 10.31 30.5555 9.63093C31.6403 9.25215 32.9213 8.8007 35.0011 8.13053Z" fill="#0D0D0D"/>
</svg>
