<svg width="70" height="55" viewBox="0 0 70 55" fill="none" xmlns="http://www.w3.org/2000/svg">
<path d="M14.3404 0C10.4009 0 7.48573 3.44809 7.61626 7.18744C7.74167 10.7798 7.57878 15.4329 6.40748 19.2273C5.23268 23.0327 3.24554 25.4433 0 25.7529V29.2471C3.24554 29.5567 5.23268 31.9673 6.40748 35.773C7.57878 39.5674 7.74167 44.2199 7.61626 47.8126C7.48573 51.5514 10.4009 55 14.3409 55H54.7074C58.6471 55 61.5615 51.5519 61.4309 47.8126C61.3058 44.2202 61.4684 39.5674 62.6397 35.773C63.8153 31.9675 65.7971 29.5564 69.0426 29.2471V25.7529C65.7971 25.4433 63.8153 23.0327 62.64 19.2273C61.4684 15.4335 61.3058 10.7801 61.4309 7.18744C61.5615 3.44862 58.6471 0 54.7074 0H14.3398H14.3404ZM46.8087 33.856C46.8087 39.005 42.9682 42.1276 36.5948 42.1276H25.7448C25.4345 42.1275 25.137 42.0041 24.9176 41.7847C24.6982 41.5652 24.5749 41.2677 24.5749 40.9574V14.0426C24.5749 13.7322 24.6981 13.4346 24.9176 13.2151C25.137 12.9956 25.4347 12.8722 25.7451 12.8721H36.5327C41.8471 12.8721 45.3348 15.7512 45.3348 20.171C45.3348 23.2733 42.9885 26.0506 39.9994 26.5369V26.699C44.0689 27.1453 46.8087 29.9634 46.8087 33.856ZM35.4113 16.5818H29.2253V25.32H34.4358C38.4635 25.32 40.6847 23.6981 40.6847 20.7988C40.6847 18.0822 38.7744 16.5818 35.4113 16.5818ZM29.2255 28.7873V38.4168H35.6395C39.8327 38.4168 42.0545 36.7342 42.0545 33.5717C42.0545 30.4087 39.771 28.7867 35.3698 28.7867H29.2255V28.7873Z" fill="#7E13F8"/>
</svg>
