<svg width="59" height="63" viewBox="0 0 59 63" fill="none" xmlns="http://www.w3.org/2000/svg">
<path d="M37.5 45.5V57.5C37.5 58.5609 37.0786 59.5783 36.3284 60.3284C35.5783 61.0786 34.5609 61.5 33.5 61.5H25.5C24.4391 61.5 23.4217 61.0786 22.6716 60.3284C21.9214 59.5783 21.5 58.5609 21.5 57.5V45.5" stroke="white" stroke-width="3" stroke-linecap="round" stroke-linejoin="round"/>
<path d="M37.5 45.5V57.5C37.5 58.5609 37.0786 59.5783 36.3284 60.3284C35.5783 61.0786 34.5609 61.5 33.5 61.5H25.5C24.4391 61.5 23.4217 61.0786 22.6716 60.3284C21.9214 59.5783 21.5 58.5609 21.5 57.5V45.5" stroke="#D0CFD3" stroke-width="3" stroke-linecap="round" stroke-linejoin="round"/>
<path d="M21.5 53.5H37.5" stroke="white" stroke-width="3" stroke-linecap="round" stroke-linejoin="round"/>
<path d="M21.5 53.5H37.5" stroke="#D0CFD3" stroke-width="3" stroke-linecap="round" stroke-linejoin="round"/>
<path d="M29.5 1.5V5.5" stroke="white" stroke-width="3" stroke-linecap="round" stroke-linejoin="round"/>
<path d="M29.5 1.5V5.5" stroke="#D0CFD3" stroke-width="3" stroke-linecap="round" stroke-linejoin="round"/>
<path d="M1.5 29.5H5.5" stroke="white" stroke-width="3" stroke-linecap="round" stroke-linejoin="round"/>
<path d="M1.5 29.5H5.5" stroke="#D0CFD3" stroke-width="3" stroke-linecap="round" stroke-linejoin="round"/>
<path d="M7.5 9.5L10.4333 12.3267" stroke="white" stroke-width="3" stroke-linecap="round" stroke-linejoin="round"/>
<path d="M7.5 9.5L10.4333 12.3267" stroke="#D0CFD3" stroke-width="3" stroke-linecap="round" stroke-linejoin="round"/>
<path d="M57.5 29.5H53.5" stroke="white" stroke-width="3" stroke-linecap="round" stroke-linejoin="round"/>
<path d="M57.5 29.5H53.5" stroke="#D0CFD3" stroke-width="3" stroke-linecap="round" stroke-linejoin="round"/>
<path d="M51.4997 9.5L48.5664 12.3267" stroke="white" stroke-width="3" stroke-linecap="round" stroke-linejoin="round"/>
<path d="M51.4997 9.5L48.5664 12.3267" stroke="#D0CFD3" stroke-width="3" stroke-linecap="round" stroke-linejoin="round"/>
<path d="M21.5 28.167C22.5609 28.167 23.5783 28.5884 24.3284 29.3386C25.0786 30.0887 25.5 31.1061 25.5 32.167V45.5003" stroke="white" stroke-width="3" stroke-linecap="round" stroke-linejoin="round"/>
<path d="M21.5 28.167C22.5609 28.167 23.5783 28.5884 24.3284 29.3386C25.0786 30.0887 25.5 31.1061 25.5 32.167V45.5003" stroke="#D0CFD3" stroke-width="3" stroke-linecap="round" stroke-linejoin="round"/>
<path d="M33.5 45.5003V32.167C33.5 31.1061 33.9214 30.0887 34.6716 29.3386C35.4217 28.5884 36.4391 28.167 37.5 28.167" stroke="white" stroke-width="3" stroke-linecap="round" stroke-linejoin="round"/>
<path d="M33.5 45.5003V32.167C33.5 31.1061 33.9214 30.0887 34.6716 29.3386C35.4217 28.5884 36.4391 28.167 37.5 28.167" stroke="#D0CFD3" stroke-width="3" stroke-linecap="round" stroke-linejoin="round"/>
<path d="M21.2867 45.5H37.7134C40.6872 44.027 43.1839 41.7433 44.9156 38.9123C46.6472 36.0812 47.5431 32.8183 47.5 29.5C47.4178 24.7518 45.495 20.221 42.137 16.8631C38.779 13.5051 34.2482 11.5822 29.5 11.5C24.7518 11.5822 20.2211 13.5051 16.8631 16.8631C13.5051 20.221 11.5823 24.7518 11.5 29.5C11.4569 32.8183 12.3529 36.0812 14.0845 38.9123C15.8161 41.7433 18.3129 44.027 21.2867 45.5Z" stroke="white" stroke-width="3" stroke-linecap="round" stroke-linejoin="round"/>
<path d="M21.2867 45.5H37.7134C40.6872 44.027 43.1839 41.7433 44.9156 38.9123C46.6472 36.0812 47.5431 32.8183 47.5 29.5C47.4178 24.7518 45.495 20.221 42.137 16.8631C38.779 13.5051 34.2482 11.5822 29.5 11.5C24.7518 11.5822 20.2211 13.5051 16.8631 16.8631C13.5051 20.221 11.5823 24.7518 11.5 29.5C11.4569 32.8183 12.3529 36.0812 14.0845 38.9123C15.8161 41.7433 18.3129 44.027 21.2867 45.5Z" stroke="#D0CFD3" stroke-width="3" stroke-linecap="round" stroke-linejoin="round"/>
</svg>
