<svg width="47" height="54" viewBox="0 0 47 54" fill="none" xmlns="http://www.w3.org/2000/svg">
<path d="M32.6335 31.1978H28.0501V26.6145H23.4668V31.1978C23.4668 31.6401 23.4668 32.8089 26.3405 33.5651C27.9877 33.8567 29.4942 34.679 30.6304 35.9066C31.7666 37.1342 32.47 38.6998 32.6335 40.3645H37.2168V44.9478H41.8001V40.3645C41.8001 39.4753 40.5122 38.4143 38.9264 37.9949C33.4493 36.5603 32.6335 33.1228 32.6335 31.1978ZM25.1764 37.9949C19.6993 36.5603 18.8835 33.1228 18.8835 31.1978H14.3001V26.6145H9.7168V44.9478H14.3001V40.3645H23.4668V44.9478H28.0501V40.3645C28.0501 39.4753 26.7622 38.4143 25.1764 37.9949Z" fill="#7E57C2"/>
<path d="M4.27118 47.9078L0 0H46.9345L42.6591 47.9006L23.4388 53.2291L4.27118 47.9078Z" fill="#1572B6"/>
<path d="M23.4678 49.1562L38.9989 44.8502L42.6528 3.91675H23.4678V49.1562Z" fill="#33A9DC"/>
<path d="M23.4678 21.2739H31.2429L31.7799 15.2571H23.4678V9.38135H38.2015L38.0605 10.9579L36.6161 27.1496H23.4678V21.2739Z" fill="white"/>
<path d="M23.5025 36.5333L23.4766 36.541L16.933 34.7741L16.5146 30.0879H10.6172L11.4401 39.3138L23.4757 42.6542L23.5025 42.6465V36.5333Z" fill="#EBEBEB"/>
<path d="M30.7425 26.9006L30.0348 34.7692L23.4814 36.5382V42.6514L35.5269 39.3131L35.6153 38.3203L36.6374 26.9006H30.7425Z" fill="white"/>
<path d="M23.487 9.38135V15.2571H9.29449L9.17681 13.9367L8.90917 10.9579L8.76855 9.38135H23.487ZM23.467 21.2747V27.1504H17.0059L16.8882 25.8301L16.6201 22.8512L16.48 21.2747H23.467Z" fill="#EBEBEB"/>
</svg>
