<svg width="131" height="109" viewBox="0 0 131 109" fill="none" xmlns="http://www.w3.org/2000/svg">
<path d="M0.923843 6.66879C1.35016 8.11648 2.18396 9.80928 2.48742 11.28C2.49167 11.3007 2.49592 11.3213 2.50018 11.3419C2.62419 11.943 2.72314 12.5644 2.84293 13.3162C2.85819 13.4119 2.87353 13.5102 2.88955 13.6104C3.03206 14.5014 3.21106 15.5947 3.49501 17.0714C3.83764 18.8533 4.26589 20.4634 4.69734 21.8475L4.38009 20.2961C4.58841 22.9749 5.06367 25.0214 5.25104 25.7991C5.85937 28.3469 6.28979 31.0752 7.04536 34.7614C7.11471 35.0976 7.1862 35.4432 7.26245 35.7981C7.32417 36.0854 7.17034 36.3686 6.91671 36.4306C6.66298 36.4925 6.40554 36.3075 6.34324 36.0177C6.268 35.6678 6.19631 35.3275 6.12794 34.9966C6.12763 34.9951 6.12732 34.9936 6.12701 34.9921C5.36067 31.2574 4.93822 28.5728 4.33804 26.0634C4.14444 25.2592 3.65393 23.1523 3.43873 20.3803L3.7985 22.1396C3.35732 20.7229 2.9194 19.0751 2.56882 17.2519C2.28184 15.7595 2.09967 14.6543 1.9563 13.7579C1.94061 13.6597 1.92565 13.564 1.91083 13.471C1.91052 13.4688 1.91021 13.4666 1.90991 13.4644C1.78929 12.7077 1.69496 12.1123 1.57628 11.537C1.57355 11.5248 1.57082 11.5127 1.56809 11.5005C1.26123 10.0132 0.435641 8.35519 0.0221594 6.95109C-0.0566562 6.68301 0.0814587 6.40221 0.330475 6.32428C0.579386 6.24655 0.844779 6.40094 0.923843 6.66879ZM48.5525 95.993C50.0455 96.5048 51.7603 97.51 53.3092 98.4455C54.8755 99.397 56.2456 100.281 56.9076 100.737C57.5462 101.18 58.3236 101.543 59.2684 101.919C59.481 102.004 59.7029 102.089 59.9333 102.176C60.6947 102.464 61.5514 102.77 62.4969 103.13C65.9858 104.441 68.3422 104.869 70.0625 105.14C70.4058 105.192 70.727 105.236 71.0285 105.275C71.029 105.275 71.0295 105.275 71.03 105.275C72.1691 105.422 73.0301 105.508 73.8158 105.702C75.233 106.047 76.3492 106.304 77.7225 106.709C79.6233 107.276 82.4611 107.233 84.192 106.849C84.2889 106.829 84.3881 106.807 84.4885 106.785C85.7446 106.507 87.4376 106.135 89.672 105.697C91.5718 105.327 93.2944 105.101 94.8067 104.908C95.2224 104.855 95.6215 104.806 96.006 104.755C96.9765 104.628 97.855 104.497 98.6768 104.309C103.835 103.106 106.564 102.433 108.54 102.124C109.971 101.899 110.78 101.903 111.391 101.898C111.574 101.897 111.736 101.897 111.886 101.888C113.228 101.812 114.426 101.566 115.883 101.238C116.207 101.165 116.545 101.088 116.899 101.007C118.018 100.761 118.805 100.426 119.408 100.118C119.671 99.9832 119.899 99.8539 120.115 99.7307C120.119 99.7283 120.123 99.7259 120.127 99.7235C120.156 99.7063 120.187 99.6896 120.216 99.6727C120.238 99.6599 120.26 99.6463 120.283 99.6336C120.29 99.6254 120.297 99.6193 120.303 99.6143C120.307 99.6103 120.31 99.6074 120.312 99.6054C120.312 99.6049 120.313 99.6043 120.313 99.6038C120.351 99.569 120.387 99.5469 120.394 99.5424C120.407 99.5343 120.419 99.5284 120.425 99.5251C120.456 99.5078 120.498 99.4883 120.526 99.4757C120.597 99.4433 120.723 99.3887 120.917 99.3053C121.082 99.2235 121.237 99.1352 121.432 99.0237C121.444 99.0166 121.456 99.0095 121.468 99.0024C121.658 98.8935 121.88 98.7663 122.162 98.6136C122.419 98.4748 122.738 98.5422 122.875 98.766C123.012 98.9898 122.913 99.2858 122.654 99.4259C122.386 99.5708 122.177 99.6913 121.986 99.8011C121.974 99.8082 121.962 99.8152 121.95 99.8223C121.751 99.9366 121.562 100.044 121.354 100.146C121.285 100.18 121.212 100.214 121.144 100.245C121.025 100.306 120.891 100.382 120.731 100.473C120.699 100.491 120.666 100.509 120.632 100.529C120.416 100.653 120.164 100.797 119.875 100.944C119.197 101.291 118.331 101.657 117.089 101.933C116.749 102.011 116.42 102.086 116.101 102.158C114.629 102.49 113.334 102.757 111.903 102.837C111.707 102.848 111.516 102.848 111.313 102.849C110.702 102.854 110.024 102.845 108.671 103.06C106.774 103.355 104.089 104.016 98.9151 105.225C98.0441 105.425 97.0983 105.565 96.1021 105.695C95.7218 105.745 95.3336 105.795 94.9392 105.845C93.4338 106.037 91.749 106.259 89.8928 106.62C87.6774 107.055 86.0284 107.421 84.7563 107.702C84.7116 107.712 84.6671 107.722 84.6224 107.732C84.5671 107.744 84.5121 107.756 84.4575 107.768C82.5883 108.184 79.5333 108.241 77.4106 107.606C76.0888 107.213 74.9913 106.962 73.5691 106.615C72.8768 106.443 72.1288 106.37 70.9957 106.225C70.6778 106.184 70.3297 106.136 69.9454 106.078C68.1708 105.8 65.7432 105.359 62.16 104.013C61.2308 103.659 60.3984 103.362 59.6293 103.072C59.3905 102.982 59.1572 102.892 58.93 102.801C57.9648 102.418 57.0816 102.013 56.3337 101.493C55.7118 101.064 54.3629 100.191 52.8172 99.2522C51.2664 98.3145 49.6527 97.3791 48.3182 96.9237C48.1802 96.8771 48.0416 96.8291 47.903 96.7808C46.7088 96.3656 45.5091 95.9034 44.4067 95.6966C38.8528 95.4999 33.0167 88.7598 29.7251 84.416C29.68 84.3591 29.6349 84.3022 29.5899 84.2452C25.6439 79.234 23.2483 75.3479 22.4051 74.0396C22.3664 73.9783 22.3312 73.9225 22.2997 73.8722C22.2715 73.8273 22.2457 73.787 22.2234 73.7512C21.8885 73.2136 21.5703 72.7517 21.2408 72.2649C21.2228 72.2384 21.2048 72.2118 21.1868 72.1852C20.8396 71.6704 20.4816 71.1257 20.1069 70.4552C18.7146 67.959 17.6378 65.9113 16.7298 64.1193C16.5622 63.7879 16.4015 63.4649 16.2455 63.1497C16.2451 63.1488 16.2447 63.1479 16.2442 63.1469C15.5604 61.7642 14.9817 60.528 14.4764 59.3313C13.5597 57.153 12.942 55.691 12.4463 54.5483C12.2918 54.1908 12.1493 53.8618 12.0158 53.5512C11.7273 52.8797 11.4808 52.2922 11.2554 51.6778C10.8276 50.5097 10.4112 49.4462 10.0157 48.3987C9.9805 48.3054 9.94592 48.212 9.91103 48.1188C9.48835 46.9915 9.07912 45.8362 8.73344 44.615C8.65301 44.3309 8.79246 44.0389 9.04244 43.9634C9.29233 43.8882 9.55828 44.0556 9.63796 44.3372C9.97099 45.5144 10.3668 46.6359 10.7858 47.7541C10.8206 47.8471 10.8562 47.9403 10.8914 48.0339C11.2828 49.0712 11.7016 50.146 12.1341 51.3277C12.3498 51.9158 12.5805 52.4665 12.8608 53.1199C12.9946 53.4316 13.1401 53.7671 13.3016 54.1409C13.8005 55.2919 14.4221 56.7625 15.3396 58.9439C15.8346 60.1166 16.4003 61.3278 17.0774 62.698C17.2329 63.0124 17.3944 63.3354 17.5625 63.6679C18.4647 65.4494 19.5366 67.4897 20.9228 69.9763C21.2734 70.6039 21.6088 71.1158 21.951 71.6236C21.9701 71.6522 21.9893 71.6807 22.0084 71.7092C22.3317 72.1872 22.6645 72.6699 23.0146 73.2322C23.0614 73.3073 23.121 73.4034 23.1935 73.5184C24.0291 74.8156 26.4105 78.679 30.3239 83.6501C30.336 83.6656 30.3481 83.6811 30.3601 83.6966C33.0026 87.0129 34.7122 88.748 36.1827 89.8308C37.3497 90.6781 38.1825 91.3468 38.8639 91.902C38.9938 92.0077 39.1173 92.1073 39.2348 92.2023C39.7427 92.6127 40.1513 92.9325 40.5925 93.203C41.9309 94.0202 43.0256 94.4318 44.4661 94.7111C45.6887 94.9481 46.9851 95.4464 48.143 95.8513C48.1447 95.8519 48.1464 95.8525 48.1482 95.8531C48.2852 95.9012 48.4202 95.9481 48.5525 95.993ZM125.74 96.3851C126 96.2775 126.296 96.3822 126.401 96.6209C126.505 96.86 126.378 97.1433 126.116 97.2519C125.486 97.5128 124.895 97.7526 124.215 98.0261C123.939 98.1371 123.634 98.0311 123.534 97.7903C123.434 97.5492 123.576 97.265 123.851 97.1545C124.527 96.8825 125.113 96.6447 125.74 96.3851ZM50.0505 91.3828C50.3008 91.4802 50.4352 91.7595 50.3512 92.0085C50.2669 92.257 49.9922 92.3804 49.7373 92.2813C49.6027 92.229 49.379 92.1465 49.0788 92.0325C46.939 91.2651 40.6569 88.5315 35.5416 83.5098C35.1111 83.0938 34.728 82.7182 34.3659 82.3568C32.8355 80.8039 31.1433 79.8964 28.6999 76.459C18.5474 61.8204 14.0002 44.643 10.4604 27.7007C9.92831 25.0852 9.53422 22.4504 9.26726 19.859L9.36375 20.3309C8.60852 18.1096 7.87938 15.8792 7.1599 13.6411C5.89557 9.70812 4.01595 2.35655 3.51243 0.646679C3.43346 0.378528 3.57166 0.0978259 3.82075 0.0198736C4.06974 -0.0579116 4.33514 0.0963663 4.41411 0.364379C4.91408 2.06217 6.78662 9.38956 8.04622 13.3078C8.77015 15.5597 9.50367 17.8037 10.2638 20.0384L10.2099 19.7747C10.4727 22.3201 10.8604 24.9128 11.3827 27.4829C14.9034 44.3776 20.5273 61.0402 30.4166 75.2647C32.7673 78.5711 33.4996 80.1269 35.0112 81.6635C35.3694 82.0213 35.7499 82.3939 36.1785 82.8084C41.1556 87.6956 47.2419 90.3562 49.3762 91.1272C49.681 91.2434 49.9105 91.3282 50.0505 91.3828ZM61.1855 97.2782C64.0388 98.2398 68.2074 99.474 71.9482 100.121C73.7372 100.445 75.5322 100.671 76.8643 100.783C78.9643 100.958 80.3359 101.203 81.7066 101.428C81.7208 101.43 81.7349 101.432 81.749 101.434C83.0652 101.651 84.4065 101.851 86.6494 101.736C88.8814 101.622 91.914 101.139 94.9494 100.458C94.9517 100.458 94.954 100.458 94.9564 100.457C97.905 99.8039 100.92 98.4575 103.018 97.9431C110.649 96.0503 115.396 94.7848 117.82 94.3987C122.256 93.5983 126.158 90.7414 130.754 89.7056C131.319 89.7021 130.873 90.7312 129.949 90.9536C129.917 90.9631 129.884 90.9725 129.851 90.982C129.542 91.0732 129.273 91.1552 128.907 91.2923C128.386 91.511 128.009 91.6883 127.666 91.8493C126.785 92.2983 120.438 94.9404 117.975 95.3309C115.676 95.6897 111.371 98.0205 103.523 99.9723C101.413 100.489 98.1635 100.715 95.1791 101.378C95.1709 101.379 95.1627 101.381 95.1545 101.383C92.1154 102.065 89.0114 102.562 86.7175 102.68C84.3646 102.801 82.9479 102.588 81.5972 102.366C81.5835 102.363 81.5697 102.361 81.556 102.359C80.1725 102.133 78.8553 101.897 76.8018 101.726C75.4191 101.61 73.5774 101.379 71.7499 101.047C67.9661 100.389 63.7895 99.151 60.9103 98.1831C60.6508 98.0978 60.5022 97.8234 60.5794 97.5738C60.6584 97.325 60.9315 97.1949 61.1855 97.2782ZM63.2092 91.7476C70.7102 93.2932 78.1486 94.3802 86.1035 94.9542C88.1662 94.8543 91.0193 94.621 93.9082 94.1975C93.9402 94.1933 93.9721 94.189 94.0041 94.1846C96.7927 93.785 99.7375 93.1769 101.696 92.6981C108.95 90.9025 113.376 89.2552 115.703 88.9042C117.922 88.5282 118.515 88.2677 119.373 87.9069C119.396 87.8972 119.42 87.8875 119.444 87.8778C119.445 87.8764 119.446 87.875 119.447 87.8736C119.472 87.8498 119.494 87.8328 119.506 87.8245C119.529 87.8077 119.55 87.7964 119.557 87.7922C119.575 87.7825 119.59 87.7757 119.595 87.7732C119.618 87.7629 119.643 87.7521 119.66 87.7454C119.811 87.6856 120.323 87.4945 120.685 87.378C121.069 87.2526 121.353 87.1824 121.654 87.1096C121.685 87.1023 121.715 87.095 121.746 87.0877C122.018 87.0219 122.315 86.9496 122.736 86.8242C122.993 86.7479 123.265 86.8861 123.343 87.1346C123.421 87.383 123.274 87.6477 123.016 87.7246C122.571 87.8571 122.254 87.9343 121.979 88.0006C121.949 88.0078 121.918 88.0151 121.888 88.0223C121.598 88.0922 121.346 88.1558 121.003 88.2673C120.525 88.4457 120.121 88.6181 119.785 88.7608C118.89 89.1367 118.201 89.4372 115.866 89.8321C113.651 90.1614 109.302 91.7842 101.937 93.6116C99.9568 94.0962 96.9795 94.7116 94.1624 95.1161C94.1292 95.121 94.0961 95.1259 94.0629 95.1308C91.1399 95.5599 88.2557 95.7951 86.1701 95.8967C78.13 96.3137 70.1108 95.9181 62.9313 92.6515C61.5626 92.2076 60.3216 91.7196 59.2119 91.2406C55.912 89.8044 53.539 88.4242 51.0074 87.4167C50.4587 87.195 49.1092 86.4165 47.2762 85.1246C46.7401 84.7465 46.1537 84.3158 45.5314 83.8382C44.0053 82.6674 42.247 81.1959 40.3557 79.4019C39.9594 79.026 39.6063 78.6864 39.272 78.3592C37.8554 76.9479 36.7135 75.8297 34.4671 72.6896C31.6513 68.8576 27.9366 61.7183 26.3787 57.7031C25.5704 55.7128 25.1844 54.546 24.9218 53.7273C24.849 53.4985 24.7875 53.2966 24.7308 53.1115C24.583 52.6276 24.471 52.2535 24.3059 51.7665C23.1306 48.2464 22.1889 45.847 20.7744 41.8078C20.6867 41.5542 20.8159 41.2754 21.0613 41.1855C21.3068 41.0957 21.5757 41.2266 21.6627 41.4779C23.0678 45.4929 24.0146 47.909 25.1953 51.4469C25.3659 51.9506 25.4845 52.3483 25.6336 52.8365C25.6889 53.0174 25.7483 53.2106 25.8167 53.4256C26.0727 54.2239 26.4507 55.3682 27.247 57.33C28.7874 61.302 32.4579 68.3563 35.2289 72.1288C37.4252 75.2002 38.5284 76.2822 39.9202 77.6696C40.2504 77.9931 40.6007 78.3292 40.9946 78.7031C42.8609 80.4745 44.597 81.9272 46.099 83.0801C46.7102 83.5493 47.2862 83.9722 47.811 84.3426C49.6507 85.6381 50.8988 86.3488 51.3619 86.538C53.9369 87.5645 56.3687 88.9761 59.6378 90.3935C60.7156 90.8574 61.9081 91.3253 63.2092 91.7476ZM17.6711 26.7692C17.7257 27.0316 17.5629 27.2856 17.3087 27.3465C17.0543 27.4065 16.803 27.2446 16.7486 26.9849C16.4547 25.5662 16.2611 24.5667 16.1137 23.7897C15.8445 22.3571 15.7211 21.6045 15.6209 20.5556C15.581 20.1315 15.5439 19.713 15.5095 19.3008L15.324 18.3938C14.5992 16.1198 13.8968 13.9334 13.2545 11.9352C11.9902 8.0023 10.9596 4.79702 10.4561 3.0872C10.3771 2.81908 10.5153 2.53834 10.7644 2.4604C11.0133 2.38278 11.2787 2.53704 11.3577 2.8049C11.8577 4.5027 12.8801 7.684 14.1397 11.6022C14.7847 13.6085 15.4923 15.8082 16.2235 18.1014L16.4516 19.2165C16.4853 19.621 16.5217 20.0318 16.5608 20.4482C16.6572 21.4581 16.7711 22.1576 17.0324 23.5543C17.1781 24.3235 17.3722 25.3248 17.6711 26.7692Z" fill="white"/>
</svg>
