<svg width="28" height="22" viewBox="0 0 28 22" fill="none" xmlns="http://www.w3.org/2000/svg">
<mask id="mask0_593_81" style="mask-type:alpha" maskUnits="userSpaceOnUse" x="0" y="0" width="28" height="22">
<path d="M26.9231 0H1.07692C0.791305 0 0.517386 0.113461 0.315423 0.315424C0.113461 0.517386 0 0.791305 0 1.07692V19.3846C0 19.9559 0.226922 20.5037 0.630847 20.9076C1.03477 21.3115 1.58261 21.5385 2.15385 21.5385H25.8462C26.4174 21.5385 26.9652 21.3115 27.3692 20.9076C27.7731 20.5037 28 19.9559 28 19.3846V1.07692C28 0.791305 27.8865 0.517386 27.6846 0.315424C27.4826 0.113461 27.2087 0 26.9231 0ZM24.154 2.15385L14 11.4625L3.84596 2.15385H24.154ZM25.8462 19.3846H2.15385V3.52558L13.2717 13.7173C13.4704 13.8997 13.7303 14.0009 14 14.0009C14.2697 14.0009 14.5296 13.8997 14.7283 13.7173L25.8462 3.52558V19.3846Z" fill="black"/>
</mask>
<g mask="url(#mask0_593_81)">
<rect x="-3" y="-6" width="36" height="36" fill="#D9D9D9"/>
</g>
</svg>
