<svg width="37" height="55" viewBox="0 0 37 55" fill="none" xmlns="http://www.w3.org/2000/svg">
<path d="M0 9.06034C0 4.05903 4.05903 0 9.06034 0H18.1207V18.1207H9.06034C4.05903 18.1207 0 14.0616 0 9.06034Z" fill="#F24E1E"/>
<path d="M18.1201 0H27.1805C32.1818 0 36.2408 4.05903 36.2408 9.06034C36.2408 14.0616 32.1818 18.1207 27.1805 18.1207H18.1201V0Z" fill="#FF7262"/>
<path d="M0 27.1809C0 22.1796 4.05903 18.1206 9.06034 18.1206H18.1207V36.2413H9.06034C4.05903 36.2413 0 32.1823 0 27.1809Z" fill="#A259FF"/>
<path d="M36.2408 27.1809C36.2408 32.1823 32.1818 36.2413 27.1805 36.2413C22.1792 36.2413 18.1201 32.1823 18.1201 27.1809C18.1201 22.1796 22.1792 18.1206 27.1805 18.1206C32.1818 18.1206 36.2408 22.1796 36.2408 27.1809Z" fill="#1ABCFE"/>
<path d="M9.06034 54.3621C14.0616 54.3621 18.1207 50.3031 18.1207 45.3018V36.2415H9.06034C4.05903 36.2415 0 40.3005 0 45.3018C0 50.3031 4.05903 54.3621 9.06034 54.3621Z" fill="#0ACF83"/>
</svg>
