<svg width="70" height="70" viewBox="0 0 70 70" fill="none" xmlns="http://www.w3.org/2000/svg">
<path d="M68.6796 31.881L38.117 1.32008C36.358 -0.440028 33.5034 -0.440028 31.7422 1.32008L25.3957 7.66654L33.4465 15.7173C35.3173 15.0852 37.4627 15.5093 38.954 17.0006C40.4525 18.5015 40.8736 20.6652 40.2261 22.542L47.9848 30.3011C49.862 29.6544 52.0279 30.0728 53.5271 31.5745C55.6225 33.669 55.6225 37.0637 53.5271 39.1596C51.4312 41.2558 48.0365 41.2558 45.9395 39.1596C44.3634 37.5819 43.9741 35.2672 44.772 33.3256L37.5363 26.0899L37.5354 45.1312C38.06 45.3904 38.5391 45.733 38.954 46.1456C41.0494 48.2401 41.0494 51.6351 38.954 53.7327C36.8581 55.8277 33.4618 55.8277 31.3689 53.7327C29.2736 51.6351 29.2736 48.2404 31.3689 46.1459C31.8713 45.6438 32.4679 45.2459 33.1246 44.9753V25.7566C32.4669 25.4879 31.8699 25.0898 31.3689 24.586C29.7813 23.0006 29.3996 20.6712 30.2131 18.7219L22.2769 10.7848L1.3207 31.7396C-0.440233 33.5014 -0.440233 36.3563 1.3207 38.1167L31.8838 68.6782C33.6434 70.4385 36.4975 70.4385 38.2592 68.6782L68.6793 38.2586C70.4397 36.4977 70.44 33.6411 68.6796 31.881Z" fill="#DE4C36"/>
</svg>
