<svg width="40" height="42" viewBox="0 0 40 42" fill="none" xmlns="http://www.w3.org/2000/svg">
<path d="M38.8012 29.1219C38.9993 29.4642 39.0531 29.8707 38.9509 30.2524C38.8486 30.6341 38.5985 30.9599 38.2555 31.1585L20.2529 41.6126C20.0235 41.7458 19.7627 41.8159 19.4972 41.8159C19.2316 41.8159 18.9708 41.7458 18.7414 41.6126L0.738856 31.1585C0.400733 30.9563 0.156244 30.6296 0.058321 30.2492C-0.0396017 29.8688 0.016923 29.4653 0.215657 29.1261C0.414391 28.7868 0.73934 28.5392 1.12015 28.4367C1.50096 28.3343 1.90699 28.3853 2.25032 28.5786L19.5028 38.594L36.7553 28.5786C37.0991 28.3814 37.5075 28.3278 37.8909 28.4296C38.2744 28.5314 38.6017 28.7803 38.8012 29.1219ZM36.7553 19.618L19.5028 29.6334L2.25032 19.618C1.90873 19.4487 1.51517 19.4153 1.14974 19.5247C0.784306 19.6341 0.474473 19.878 0.283302 20.2067C0.0921312 20.5355 0.0339902 20.9244 0.120713 21.2943C0.207435 21.6642 0.432503 21.9874 0.750107 22.1979L18.7527 32.652C18.9821 32.7851 19.2429 32.8553 19.5084 32.8553C19.774 32.8553 20.0348 32.7851 20.2641 32.652L38.2667 22.1979C38.4396 22.1005 38.5914 21.9699 38.7132 21.8137C38.835 21.6574 38.9244 21.4787 38.9762 21.2878C39.0281 21.0968 39.0413 20.8976 39.0151 20.7015C38.989 20.5055 38.924 20.3166 38.8239 20.1457C38.7238 19.9749 38.5906 19.8255 38.4321 19.7063C38.2736 19.5872 38.0928 19.5005 37.9004 19.4514C37.7079 19.4023 37.5076 19.3918 37.311 19.4204C37.1145 19.449 36.9255 19.5161 36.7553 19.618ZM0 11.9473C0.000598288 11.6858 0.0702011 11.4289 0.201843 11.2026C0.333484 10.9762 0.522546 10.7882 0.750107 10.6574L18.7527 0.203332C18.9821 0.0701665 19.2429 0 19.5084 0C19.774 0 20.0348 0.0701665 20.2641 0.203332L38.2667 10.6574C38.4932 10.7889 38.6811 10.9772 38.8117 11.2036C38.9422 11.4299 39.0109 11.6863 39.0109 11.9473C39.0109 12.2083 38.9422 12.4648 38.8117 12.6911C38.6811 12.9175 38.4932 13.1058 38.2667 13.2373L20.2641 23.6914C20.0348 23.8245 19.774 23.8947 19.5084 23.8947C19.2429 23.8947 18.9821 23.8245 18.7527 23.6914L0.750107 13.2373C0.522546 13.1065 0.333484 12.9185 0.201843 12.6921C0.0702011 12.4658 0.000598288 12.2089 0 11.9473ZM4.47814 11.9473L19.5028 20.6727L34.5274 11.9473L19.5028 3.22194L4.47814 11.9473Z" fill="#D0CFD3"/>
</svg>
