<svg width="49" height="49" viewBox="0 0 49 49" fill="none" xmlns="http://www.w3.org/2000/svg">
<path d="M0 0H48.9999V49.0003H0V0Z" fill="#F0DB4F"/>
<path d="M44.991 37.3138C44.6321 35.0783 43.1744 33.2007 38.8567 31.4498C37.3567 30.7606 35.6846 30.267 35.1863 29.1303C35.0094 28.4688 34.9859 28.0961 35.0978 27.6957C35.4192 26.3962 36.9704 25.9911 38.1998 26.3637C38.9917 26.6291 39.7413 27.2393 40.1934 28.2128C42.3078 26.8436 42.3035 26.8526 43.78 25.9116C43.2394 25.0736 42.9509 24.6868 42.5971 24.3283C41.3254 22.9078 39.5925 22.1763 36.8213 22.2322L35.3777 22.4189C33.9944 22.7685 32.6761 23.4946 31.903 24.468C29.5835 27.1 30.245 31.7062 33.0675 33.6019C35.8482 35.689 39.9331 36.1638 40.4548 38.1154C40.9625 40.5046 38.6989 41.2781 36.449 41.0033C34.7909 40.6585 33.8688 39.8157 32.8718 38.2833C31.0368 39.3452 31.0368 39.3452 29.1501 40.4303C29.5975 41.4084 30.0676 41.8511 30.8176 42.6986C34.367 46.2989 43.2492 46.1219 44.8423 40.6726C44.9069 40.4855 45.3359 39.2376 44.991 37.3138ZM26.6392 22.5207H22.056L22.0372 34.3699C22.0372 36.8898 22.1676 39.2 21.7577 39.9081C21.0872 41.3008 19.3497 41.1282 18.5579 40.8581C17.7519 40.462 17.3421 39.8987 16.8673 39.1026C16.737 38.874 16.6391 38.697 16.6062 38.6833L12.8799 40.9653C13.4995 42.2371 14.4123 43.3409 15.5815 44.058C17.328 45.1062 19.6754 45.4276 22.1304 44.8639C23.7282 44.3985 25.1068 43.4344 25.8285 41.967C26.8721 40.0431 26.6482 37.7146 26.6388 35.139C26.6623 30.9371 26.6392 26.7359 26.6392 22.5207Z" fill="#323330"/>
</svg>
