<svg width="37" height="37" viewBox="0 0 37 37" fill="none" xmlns="http://www.w3.org/2000/svg">
<mask id="mask0_593_77" style="mask-type:alpha" maskUnits="userSpaceOnUse" x="0" y="0" width="37" height="37">
<path d="M20.8515 6.63852C20.8908 6.49178 20.9586 6.35421 21.051 6.23367C21.1434 6.11313 21.2587 6.01199 21.3902 5.93602C21.5218 5.86005 21.667 5.81075 21.8176 5.79092C21.9682 5.77109 22.1212 5.78113 22.2679 5.82047C24.4114 6.37973 26.3671 7.50028 27.9335 9.06669C29.4999 10.6331 30.6205 12.5888 31.1797 14.7323C31.2191 14.879 31.2291 15.032 31.2093 15.1826C31.1895 15.3332 31.1402 15.4784 31.0642 15.61C30.9882 15.7415 30.8871 15.8568 30.7665 15.9492C30.646 16.0416 30.5084 16.1094 30.3617 16.1487C30.264 16.1743 30.1635 16.1874 30.0625 16.1877C29.8077 16.1877 29.5601 16.1035 29.358 15.9483C29.156 15.793 29.0109 15.5754 28.9453 15.3292C28.4892 13.5794 27.5746 11.9829 26.296 10.7042C25.0173 9.42557 23.4208 8.51105 21.671 8.05492C21.5242 8.01583 21.3864 7.94816 21.2657 7.8558C21.145 7.76343 21.0437 7.64817 20.9676 7.51662C20.8915 7.38507 20.8421 7.2398 20.8222 7.08913C20.8022 6.93845 20.8122 6.78533 20.8515 6.63852ZM20.5148 12.6799C22.5079 13.2118 23.7884 14.4923 24.3203 16.4854C24.3859 16.7316 24.531 16.9493 24.733 17.1045C24.9351 17.2598 25.1827 17.3439 25.4375 17.3439C25.5385 17.3437 25.639 17.3306 25.7367 17.3049C25.8834 17.2657 26.021 17.1979 26.1415 17.1055C26.2621 17.013 26.3632 16.8978 26.4392 16.7662C26.5152 16.6347 26.5645 16.4895 26.5843 16.3389C26.6041 16.1883 26.5941 16.0352 26.5547 15.8885C25.8147 13.1193 23.8809 11.1855 21.1117 10.4455C20.8154 10.3663 20.4998 10.4081 20.2343 10.5617C19.9688 10.7152 19.7752 10.9679 19.696 11.2642C19.6169 11.5605 19.6586 11.8762 19.8122 12.1417C19.9657 12.4071 20.2185 12.6008 20.5148 12.6799ZM32.3577 26.461C32.1 28.4194 31.1382 30.2171 29.6519 31.5182C28.1657 32.8194 26.2566 33.535 24.2813 33.5314C12.8055 33.5314 3.46876 24.1947 3.46876 12.7189C3.46522 10.7436 4.18085 8.83456 5.48199 7.3483C6.78312 5.86205 8.58079 4.90025 10.5392 4.64254C11.0345 4.58207 11.536 4.68339 11.9689 4.93137C12.4018 5.17935 12.743 5.5607 12.9413 6.01848L15.9938 12.8331V12.8505C16.1457 13.2009 16.2085 13.5835 16.1764 13.964C16.1444 14.3446 16.0186 14.7113 15.8103 15.0314C15.7843 15.0705 15.7568 15.1066 15.7279 15.1427L12.7188 18.7098C13.8013 20.9095 16.1022 23.1902 18.3309 24.2757L21.8488 21.2824C21.8833 21.2534 21.9195 21.2264 21.9572 21.2015C22.277 20.9882 22.645 20.8579 23.0278 20.8226C23.4107 20.7873 23.7963 20.848 24.1497 20.9991L24.1685 21.0078L30.9774 24.0589C31.436 24.2565 31.8183 24.5974 32.0671 25.0304C32.3159 25.4633 32.4178 25.9652 32.3577 26.461ZM30.0625 26.1719C30.0625 26.1719 30.0524 26.1719 30.0466 26.1719L23.2536 23.1295L19.7343 26.1228C19.7002 26.1517 19.6645 26.1787 19.6274 26.2037C19.2946 26.4257 18.9099 26.5576 18.5109 26.5865C18.1119 26.6154 17.7123 26.5403 17.351 26.3685C14.6439 25.0605 11.9455 22.3823 10.6361 19.7041C10.4627 19.3455 10.3849 18.9481 10.4102 18.5506C10.4355 18.153 10.5631 17.7687 10.7806 17.435C10.8051 17.3958 10.8327 17.3586 10.863 17.3237L13.875 13.7523L10.8399 6.95938C10.8393 6.95361 10.8393 6.9478 10.8399 6.94203C9.43827 7.12486 8.1514 7.81235 7.22023 8.87574C6.28907 9.93913 5.77748 11.3055 5.78126 12.7189C5.78662 17.6238 7.73744 22.3262 11.2057 25.7945C14.674 29.2628 19.3764 31.2136 24.2813 31.2189C25.6938 31.2238 27.0598 30.714 28.1239 29.7848C29.1879 28.8557 29.877 27.5708 30.0625 26.1705V26.1719Z" fill="black"/>
</mask>
<g mask="url(#mask0_593_77)">
<rect x="-5" width="45" height="40" fill="#D9D9D9"/>
</g>
</svg>
