<svg width="35" height="33" viewBox="0 0 35 33" fill="none" xmlns="http://www.w3.org/2000/svg">
<mask id="mask0_568_88" style="mask-type:alpha" maskUnits="userSpaceOnUse" x="0" y="0" width="35" height="35">
<path d="M32.0766 8.75581C31.6377 7.13026 30.7804 5.64816 29.5901 4.45729C28.3998 3.26642 26.9181 2.40839 25.2927 1.96876M26.654 10.2198C26.4712 9.54236 26.114 8.92469 25.618 8.42839C25.1219 7.93209 24.5045 7.57452 23.8271 7.39133M32.1055 32.4462C26.0055 32.4462 20.3261 30.6564 15.56 27.5727C11.926 25.2207 8.83109 22.1258 6.47909 18.4917C3.28805 13.5642 1.59511 7.81679 1.60552 1.94629H12.486L14.3994 10.5697L11.1504 13.8188C13.304 17.6086 16.4415 20.7462 20.2314 22.8998L23.4804 19.6491L32.1055 21.5674V32.4462Z" stroke="black" stroke-width="3.21052" stroke-linecap="square"/>
</mask>
<g mask="url(#mask0_568_88)">
<rect x="-3.01514" y="-37.5537" width="64.2414" height="69" fill="#D9D9D9"/>
</g>
</svg>
