<svg width="221" height="92" viewBox="0 0 221 92" fill="none" xmlns="http://www.w3.org/2000/svg">
<path d="M11.1435 83.2776C11.3634 81.1626 11.4705 78.2228 12.0202 76.1008C12.0279 76.0708 12.0355 76.0408 12.0432 76.0107C12.2672 75.1362 12.5347 74.2611 12.8783 73.2247C12.9221 73.0927 12.9676 72.9579 13.014 72.8205C13.419 71.6396 13.9736 70.0226 14.761 68.0005C17.3575 61.3102 19.7015 56.0728 20.4246 54.472C21.9263 51.208 23.9112 47.9903 27.1962 43.9415C27.4965 43.574 27.8088 43.2013 28.1322 42.8221C28.3944 42.5144 28.7732 42.4016 28.9754 42.5668C29.1776 42.7324 29.1293 43.1091 28.871 43.4118C28.5585 43.778 28.2578 44.1381 27.9681 44.492C27.9668 44.4936 27.9655 44.4952 27.9642 44.4968C24.7032 48.512 22.7931 51.6187 21.3413 54.7552C20.6056 56.3758 18.2346 61.6442 15.6133 68.4228C14.8281 70.4489 14.2827 72.046 13.8801 73.2275C13.8353 73.3607 13.7916 73.4908 13.7497 73.6177C13.7486 73.6207 13.7476 73.6237 13.7466 73.6266C13.4062 74.6594 13.1538 75.4899 12.9425 76.318C12.9383 76.3357 12.934 76.3533 12.9297 76.371C12.3811 78.4972 12.295 81.3441 12.0833 83.3751C12.0402 83.7757 11.7974 84.0835 11.5376 84.059C11.278 84.0343 11.1001 83.6831 11.1435 83.2776ZM126.87 10.4869C129.16 10.4784 132.149 11.0404 134.726 11.7373C137.325 12.4337 139.599 13.2811 140.668 13.7311C141.708 14.1688 142.888 14.5375 144.294 14.9715C144.616 15.071 144.95 15.1741 145.295 15.2821C146.436 15.6396 147.685 16.0474 149.057 16.5718C154.086 18.5064 157.241 19.8299 159.564 20.7849C160.037 20.9811 160.476 21.1644 160.885 21.3379C160.886 21.3381 160.887 21.3385 160.887 21.3388C162.433 21.9943 163.57 22.5089 164.553 23.1019C166.296 24.1581 167.73 25.0858 169.323 26.332C171.521 28.0394 174.877 30.0106 177.163 31.1746C177.289 31.2377 177.418 31.3019 177.547 31.3676C179.197 32.2089 181.228 33.2655 184.051 35.2332C186.384 36.8672 188.218 38.5057 189.785 40.0535C190.232 40.495 190.649 40.9232 191.046 41.337C192.046 42.3816 192.91 43.3361 193.744 44.2115C198.937 49.7228 201.053 53.5543 202.262 55.9752C203.17 57.8583 203.484 58.9981 203.711 59.8127C203.778 60.0596 203.836 60.278 203.897 60.4801C204.433 62.2831 205.008 63.8755 205.612 65.8261C205.747 66.2623 205.877 66.7025 206.008 67.1711C206.443 68.7343 206.853 69.8668 207.209 70.7525C207.364 71.1397 207.508 71.4797 207.642 71.8018C207.644 71.8077 207.647 71.8136 207.649 71.8195C207.668 71.8644 207.686 71.9091 207.704 71.9535C207.718 71.9869 207.733 72.02 207.746 72.0535C207.755 72.0658 207.761 72.077 207.767 72.0853C207.771 72.0919 207.774 72.0971 207.776 72.1004C207.777 72.101 207.777 72.1016 207.778 72.1021C207.815 72.1624 207.838 72.2167 207.843 72.2278C207.851 72.2473 207.858 72.2648 207.861 72.2737C207.88 72.3209 207.9 72.3824 207.913 72.4235C207.948 72.5291 208.005 72.7131 208.09 72.9994C208.174 73.2461 208.262 73.4808 208.372 73.776C208.379 73.7946 208.386 73.8132 208.393 73.8318C208.501 74.1252 208.618 74.4454 208.756 74.8658C208.882 75.2468 208.785 75.649 208.545 75.7599C208.304 75.8706 208.013 75.653 207.891 75.2777C207.764 74.8886 207.653 74.5844 207.551 74.3076C207.544 74.2897 207.538 74.2717 207.531 74.2537C207.422 73.957 207.317 73.6774 207.215 73.3738C207.181 73.2722 207.147 73.1671 207.116 73.069C207.054 72.8939 206.976 72.697 206.881 72.4628C206.862 72.4158 206.842 72.3672 206.822 72.3177C206.691 72.0001 206.536 71.6325 206.371 71.2168C205.981 70.2434 205.537 69.0083 205.068 67.3329C204.945 66.8936 204.819 66.4698 204.689 66.0491C204.089 64.1198 203.479 62.4341 202.91 60.548C202.832 60.2892 202.764 60.0368 202.688 59.7673C202.462 58.9715 202.191 58.0077 201.361 56.2924C200.218 54.0197 198.194 50.324 193.098 44.9045C192.234 43.9959 191.323 42.9899 190.315 41.9403C189.931 41.5398 189.531 41.1329 189.116 40.7229C187.59 39.2165 185.834 37.6468 183.607 36.083C180.881 34.1775 178.921 33.1497 177.298 32.3186C177.242 32.2901 177.185 32.2617 177.129 32.2334C177.059 32.1979 176.989 32.1628 176.92 32.128C174.511 30.8947 170.973 28.8216 168.558 26.9543C167.045 25.7755 165.678 24.8924 163.963 23.8547C163.113 23.3436 162.149 22.9056 160.648 22.2658C160.226 22.0865 159.762 21.8908 159.244 21.6757C156.899 20.7104 153.719 19.3773 148.669 17.4368C147.351 16.9336 146.164 16.5458 145.038 16.1925C144.688 16.083 144.345 15.9766 144.008 15.8726C142.606 15.4394 141.297 15.0353 140.102 14.5347C139.113 14.1206 136.93 13.3067 134.417 12.6346C131.891 11.9534 129.142 11.4526 127.143 11.4558C126.935 11.4558 126.725 11.4556 126.515 11.4562C124.71 11.46 122.871 11.5031 121.371 11.7965C114.597 13.8407 103.147 12.363 95.3977 12.8438C95.2968 12.8487 95.196 12.8537 95.0953 12.8588C86.2166 13.3143 79.9037 14.6954 77.7628 15.1532C77.6631 15.175 77.5723 15.195 77.4909 15.213C77.4181 15.229 77.3524 15.2441 77.2944 15.2569C76.4243 15.4496 75.6651 15.6589 74.8742 15.8852C74.831 15.8976 74.7878 15.91 74.7447 15.9224C73.9107 16.1624 73.0356 16.4199 71.9843 16.6985C68.0784 17.7379 65.0466 18.7998 62.393 19.8296C61.9059 20.0193 61.4346 20.2066 60.9774 20.3929C60.9761 20.3934 60.9747 20.3939 60.9734 20.3945C58.9628 21.215 57.245 21.9863 55.5809 22.7489C52.5616 24.1397 50.6403 25.2484 49.1723 26.1375C48.7129 26.4172 48.2841 26.686 47.8873 26.9397C47.0273 27.4898 46.2884 27.9817 45.5226 28.477C44.0815 29.4104 42.8199 30.3375 41.5984 31.2856C41.4892 31.3705 41.38 31.455 41.2715 31.5401C39.9495 32.5781 38.6783 33.6359 37.3385 34.7457C37.0277 35.0031 36.6356 35.0569 36.4603 34.8631C36.2856 34.6693 36.3967 34.2976 36.7117 34.0365C38.0292 32.9445 39.283 31.8989 40.619 30.8475C40.7292 30.7608 40.8399 30.6735 40.9514 30.5868C42.1849 29.6272 43.4826 28.6728 44.9665 27.7106C45.713 27.2273 46.418 26.7569 47.269 26.2106C47.6746 25.9505 48.1173 25.6713 48.6093 25.3712C50.1144 24.4577 52.0804 23.321 55.1585 21.9019C56.8198 21.1401 58.5306 20.3712 60.5578 19.5423C61.0219 19.3528 61.5015 19.1609 61.9988 18.9669C64.6821 17.9239 67.7575 16.8454 71.7166 15.7909C72.7174 15.5255 73.556 15.2783 74.3921 15.037C74.4391 15.0235 74.4862 15.0101 74.5333 14.9967C75.3232 14.7701 76.1304 14.5459 77.0568 14.3406C77.1805 14.3132 77.3387 14.2787 77.5291 14.237C79.6896 13.7743 86.0774 12.3747 95.0511 11.9147C95.0789 11.9134 95.1067 11.9121 95.1345 11.9109C101.149 11.6256 104.533 11.7492 107.094 11.5357C109.117 11.3792 110.635 11.391 111.874 11.4259C112.11 11.4327 112.334 11.4397 112.547 11.4474C113.469 11.4812 114.197 11.5153 114.929 11.4994C117.143 11.4547 118.746 11.2759 120.729 10.879C122.412 10.5434 124.451 10.4941 126.237 10.4883C126.24 10.4883 126.242 10.4883 126.245 10.4883C126.457 10.4874 126.666 10.4873 126.87 10.4869ZM210.533 80.5069C210.59 80.9206 210.423 81.2844 210.164 81.3176C209.905 81.3504 209.654 81.0449 209.598 80.6378C209.465 79.6664 209.311 78.7047 209.138 77.7523C209.066 77.3533 209.21 76.9903 209.466 76.939C209.721 76.8883 209.993 77.1743 210.067 77.5802C210.243 78.5463 210.399 79.5218 210.533 80.5069ZM125.718 5.56895C126.159 5.57634 126.568 5.80226 126.63 6.06955C126.69 6.33661 126.384 6.54393 125.946 6.53577C125.714 6.5315 125.333 6.52933 124.82 6.53001C121.113 6.50915 110.625 6.76352 99.7631 7.63863C98.8439 7.70821 98.0225 7.78214 97.2412 7.85852C93.8996 8.21134 91.2823 9.01818 84.9745 9.88878C58.8387 13.4781 31.555 25.2536 18.1069 48.7463C14.2559 55.43 11.4157 62.4175 9.53062 69.9288C7.78118 75.9879 6.39397 87.6926 6.47306 90.6174C6.46169 91.0663 6.24398 91.4293 5.98293 91.4249C5.72214 91.4204 5.517 91.0468 5.52844 90.5934C5.44901 87.6651 6.83899 75.8769 8.596 69.7677C10.494 62.1762 13.3585 55.1073 17.244 48.3453C30.7478 24.5717 58.0285 11.4773 84.7034 7.81501C91.0626 6.93969 93.6993 7.28209 97.0422 6.9258C97.8304 6.84814 98.6618 6.77208 99.5954 6.70077C110.376 5.8266 120.764 5.55114 124.539 5.56483C125.071 5.56321 125.472 5.56479 125.718 5.56895ZM146.036 10.2536C150.853 11.5404 157.553 13.9873 163.205 16.6419C165.956 17.919 168.439 19.2022 170.442 20.2802C173.531 21.9497 175.271 23.2498 177.023 24.5887C177.042 24.603 177.061 24.6173 177.079 24.6316C178.814 25.9764 180.524 27.3292 183.333 29.4052C186.216 31.5394 190.102 34.4538 193.791 37.8463C193.793 37.849 193.796 37.8517 193.799 37.8544C197.435 41.1619 201.195 44.6536 203.314 47.6325C210.731 58.1113 212.409 66.0672 213.122 69.8798C214.292 76.6223 216.39 84.099 215.259 91.1924C215.008 91.9706 214.301 90.6586 214.467 89.2528C214.472 89.2018 214.476 89.1508 214.48 89.0999C214.52 88.6148 214.548 88.1909 214.554 87.5973C214.54 86.7387 214.498 86.1057 214.454 85.5302C214.524 84.0471 213.032 73.5755 212.146 69.8502C211.449 66.2556 208.836 59.0515 201.606 48.84C199.595 46.0149 196.842 41.9155 193.213 38.6032C193.203 38.5941 193.194 38.5849 193.184 38.5758C189.564 35.2424 185.683 32.3214 182.78 30.1728C179.898 28.0415 178.123 26.641 176.377 25.292C176.36 25.2789 176.343 25.2657 176.326 25.2525C174.608 23.9431 172.957 22.7135 170.007 21.1188C167.977 20.0255 165.483 18.7408 162.734 17.4666C157.147 14.8483 150.587 12.4514 145.844 11.1812C145.415 11.0644 145.109 10.7637 145.16 10.5071C145.212 10.2508 145.605 10.1363 146.036 10.2536ZM147.765 4.62323C162.124 7.65885 175.993 14.2931 187.221 23.8206C190.336 26.1159 194.438 29.4905 198.258 33.3378C198.301 33.3812 198.343 33.4246 198.386 33.468C202.132 37.2185 205.514 41.3924 207.723 44.499C215.647 55.6868 217.976 64.1266 218.784 68.2614C219.465 72.2315 219.623 73.2255 219.976 74.8093C219.985 74.8522 219.993 74.8952 220.002 74.9381C220.003 74.9407 220.005 74.9435 220.006 74.9461C220.029 74.9976 220.045 75.0415 220.053 75.0643C220.069 75.1106 220.08 75.1489 220.083 75.1633C220.092 75.1964 220.098 75.2245 220.1 75.2345C220.11 75.2754 220.119 75.3223 220.125 75.3526C220.178 75.6343 220.325 76.5225 220.411 77.2342C220.501 77.9632 220.534 78.4892 220.563 79.0446C220.566 79.1009 220.569 79.1571 220.571 79.2134C220.595 79.7145 220.619 80.2602 220.66 81.0468C220.682 81.5141 220.482 81.8626 220.219 81.838C219.955 81.8081 219.73 81.4355 219.705 80.9576C219.661 80.1405 219.635 79.5675 219.61 79.0705C219.607 79.0153 219.604 78.9603 219.601 78.9051C219.573 78.3804 219.541 77.9216 219.463 77.2835C219.326 76.3637 219.192 75.6889 219.064 75.0751C218.706 73.4572 218.518 72.3064 217.802 68.2057C217.021 64.342 214.835 56.2005 206.964 45.0608C204.776 41.9832 201.426 37.8502 197.722 34.1401C197.678 34.0962 197.634 34.0524 197.591 34.0086C193.807 30.1979 189.75 26.8586 186.67 24.5881C174.751 15.8095 161.397 10.2804 147.576 5.5519C144.983 4.84255 142.579 4.24057 140.366 3.73451C133.846 2.25518 128.734 1.4811 123.827 1.45129C122.751 1.44967 119.957 1.21146 115.919 1.05942C114.736 1.01547 113.438 0.979013 112.036 0.960957C108.597 0.916692 104.518 0.978874 99.9525 1.30406C98.9921 1.37242 98.1332 1.44566 97.3164 1.52163C93.8234 1.87438 91.0879 2.11508 84.4355 3.01054C76.2411 3.99231 62.7478 7.31335 55.7538 10.1088C52.258 11.4176 50.3001 12.2653 48.9075 12.8511C48.5209 13.0156 48.1811 13.1609 47.8703 13.296C47.0586 13.6495 46.4316 13.9312 45.6248 14.3284C39.838 17.2462 35.9643 19.7598 30.2299 24.6057C29.8741 24.9116 29.4317 25.018 29.238 24.8399C29.0445 24.6619 29.1758 24.2626 29.5354 23.9523C35.3333 19.0407 39.3021 16.4556 45.223 13.4723C46.0732 13.0538 46.7513 12.7505 47.5852 12.3883C47.8945 12.2542 48.2255 12.1125 48.5957 11.9553C49.9783 11.3747 51.9317 10.5298 55.4394 9.21706C62.4811 6.40394 76.0559 3.06379 84.2798 2.07726C90.9113 1.18344 93.6118 0.944963 97.1135 0.588682C97.9372 0.511434 98.8055 0.436057 99.7805 0.365963C104.382 0.0349448 108.496 -0.0308064 111.959 0.0118166C113.368 0.0291427 114.671 0.0646698 115.857 0.10796C120.001 0.26312 122.642 0.489286 123.57 0.487385C128.68 0.508254 134.047 1.32378 140.667 2.83222C142.87 3.33757 145.239 3.9331 147.765 4.62323ZM12.0961 44.6486C12.3359 44.2392 12.727 44.0022 12.9643 44.1151C13.2015 44.2283 13.198 44.6439 12.9611 45.0472C11.7104 47.181 10.8994 48.7809 10.2813 50.042C9.17534 52.3345 8.69965 53.466 7.93634 55.1604C5.95396 59.6226 4.55511 63.8638 3.50141 67.9751C1.81422 74.5325 1.21754 80.3629 0.947208 83.1347C0.902867 83.5888 0.659343 83.9408 0.399308 83.9177C0.139673 83.8942 -0.0378353 83.5011 0.00679607 83.0424C0.277989 80.2652 0.875363 74.417 2.56748 67.8145C3.6312 63.6495 5.04403 59.3456 7.06162 54.7995C7.80961 53.1377 8.26694 52.0492 9.35162 49.7869C9.97411 48.51 10.7988 46.8683 12.0961 44.6486Z" fill="white"/>
</svg>
