<svg width="224" height="90" viewBox="0 0 224 90" fill="none" xmlns="http://www.w3.org/2000/svg">
<path d="M0.947946 9.19859C1.19518 11.7299 2.02077 14.8832 2.43786 17.3537C2.44363 17.3887 2.44943 17.4236 2.45524 17.4585C2.62763 18.4842 2.78088 19.4899 3.02551 20.7875C3.05619 20.9506 3.08787 21.1177 3.1212 21.2881C3.41977 22.8018 3.82301 24.6537 4.56144 27.1109C7.07636 35.4478 11.3426 40.9737 12.6031 42.6152C15.2094 45.956 17.9324 49.4866 22.174 53.837C22.56 54.2306 22.9587 54.6315 23.3728 55.0378C23.7079 55.3667 23.8422 55.7882 23.6689 55.9838C23.4955 56.1792 23.0769 56.071 22.7374 55.7381C22.3276 55.3363 21.9322 54.941 21.5507 54.5525C21.5489 54.5508 21.5472 54.549 21.5455 54.5472C17.2303 50.1258 14.5392 46.6284 11.9558 43.3344C10.6503 41.6413 6.21033 35.9161 3.61582 27.2599C2.86415 24.7429 2.45415 22.8447 2.15333 21.3008C2.12065 21.1317 2.08972 20.9666 2.05986 20.806C2.0592 20.8022 2.05854 20.7984 2.05788 20.7946C1.81509 19.4835 1.66769 18.5001 1.50223 17.5068C1.49856 17.4858 1.49489 17.4649 1.49123 17.4439C1.06664 14.912 0.250305 11.7741 0.00767935 9.29247C-0.0399218 8.82268 0.137256 8.42144 0.397154 8.39894C0.657082 8.37666 0.900732 8.73577 0.947946 9.19859ZM131.896 84.7121C134.184 84.1426 137.254 83.8033 139.966 83.5307C142.681 83.2659 145.223 83.0531 146.405 82.9841C147.567 82.9166 148.831 82.6992 150.321 82.3817C150.662 82.3088 151.016 82.2305 151.381 82.148C152.592 81.8744 153.955 81.5478 155.441 81.2091C160.889 79.9582 164.357 78.667 166.783 77.7009C167.282 77.5004 167.743 77.3085 168.174 77.1266C168.174 77.1263 168.175 77.1261 168.176 77.1258C169.796 76.4397 170.999 75.8932 172.161 75.4858C174.224 74.7588 175.892 74.1332 177.945 73.4326C180.782 72.4801 184.481 70.221 186.582 68.4234C186.699 68.3252 186.817 68.224 186.937 68.1218C188.469 66.8088 190.355 65.1597 193.078 62.6775C195.331 60.6136 197.318 58.8017 199.031 57.169C199.522 56.7003 199.988 56.2495 200.43 55.811C201.546 54.7038 202.514 53.6798 203.362 52.6577C208.597 46.2626 210.973 42.1578 212.676 39.6339C213.931 37.7169 214.707 36.6498 215.272 35.8787C215.442 35.6449 215.592 35.4373 215.725 35.2378C216.908 33.465 217.815 31.6513 218.759 29.5671C218.971 29.0968 219.188 28.6038 219.41 28.0849C220.155 26.3474 220.522 24.9671 220.753 23.8712C220.854 23.3913 220.929 22.9644 220.996 22.5607C220.998 22.5532 220.999 22.5457 221 22.5382C221.009 22.4819 221.019 22.4262 221.028 22.3706C221.035 22.3288 221.041 22.2868 221.048 22.2449C221.047 22.2277 221.048 22.2124 221.048 22.201C221.048 22.1919 221.048 22.1849 221.048 22.1804C221.048 22.1795 221.048 22.1785 221.048 22.1776C221.05 22.0955 221.059 22.027 221.061 22.0128C221.065 21.9882 221.069 21.9666 221.071 21.9556C221.081 21.8975 221.097 21.8214 221.107 21.7742C221.133 21.6528 221.181 21.4425 221.254 21.1164C221.308 20.8302 221.348 20.5526 221.397 20.2042C221.4 20.1822 221.403 20.1603 221.405 20.1383C221.452 19.7984 221.506 19.3999 221.577 18.8999C221.642 18.4452 221.907 18.0662 222.173 18.0552C222.44 18.0442 222.607 18.4105 222.542 18.8715C222.475 19.3485 222.425 19.7264 222.379 20.0708C222.376 20.0928 222.373 20.1145 222.37 20.1364C222.321 20.4953 222.273 20.8346 222.205 21.1958C222.182 21.3167 222.157 21.4409 222.132 21.5566C222.093 21.7681 222.058 21.9994 222.008 22.3058C221.998 22.3661 221.987 22.4282 221.977 22.4918C221.91 22.9 221.829 23.3743 221.719 23.9031C221.461 25.1392 221.048 26.6846 220.225 28.5946C220.009 29.095 219.797 29.5766 219.586 30.0435C218.628 32.1537 217.636 34.1373 216.361 36.0291C216.185 36.2902 216.006 36.5352 215.815 36.7955C215.245 37.5644 214.57 38.4813 213.393 40.273C211.738 42.7103 209.397 46.7662 204.133 53.2103C203.233 54.2974 202.186 55.402 201.037 56.54C200.598 56.9743 200.144 57.4149 199.677 57.8603C197.971 59.4865 196.025 61.261 193.827 63.2807C191.139 65.7393 189.296 67.3609 187.752 68.6906C187.699 68.7362 187.646 68.7818 187.593 68.8273C187.528 68.8836 187.462 68.9394 187.397 68.9946C185.143 70.9346 181.168 73.3783 178.009 74.4284C176.026 75.0993 174.414 75.7016 172.344 76.4285C171.322 76.7845 170.285 77.2586 168.685 77.9387C168.234 78.1296 167.737 78.336 167.182 78.5592C164.693 79.552 161.144 80.8735 155.592 82.1454C154.142 82.4752 152.828 82.7901 151.615 83.0645C151.24 83.1494 150.871 83.2307 150.509 83.3079C149.002 83.6294 147.583 83.8806 146.229 83.9566C145.123 84.0194 142.649 84.2215 139.989 84.4798C137.295 84.7485 134.44 85.0732 132.414 85.5817C132.202 85.6349 131.993 85.6871 131.782 85.7392C129.967 86.1887 128.099 86.6078 126.596 87.1604C119.869 90.5753 107.101 89.2488 98.9443 88.0215C98.8364 88.0067 98.7286 87.9919 98.6207 87.9769C89.1529 86.6651 82.3767 85.0421 80.0691 84.505C79.9611 84.4793 79.8629 84.456 79.7746 84.4348C79.6958 84.4159 79.6245 84.3992 79.5617 84.3839C78.62 84.1554 77.7819 83.976 76.9056 83.7808C76.8578 83.7702 76.81 83.7595 76.7621 83.7488C75.8368 83.5413 74.8681 83.3133 73.7415 82.9859C69.5627 81.769 66.1265 80.633 63.232 79.6022C62.6939 79.4103 62.1759 79.2213 61.6654 79.0326C61.6639 79.032 61.6624 79.0314 61.6609 79.0308C59.4052 78.1958 57.4323 77.4022 55.5951 76.586C52.2673 75.1025 49.9837 74.0068 48.2388 73.1685C47.6902 72.9038 47.1862 72.6579 46.7122 72.4234C45.6875 71.9161 44.8001 71.4609 43.9049 70.9596C42.1996 70.0034 40.6225 69.1134 39.0999 68.2085C38.964 68.1278 38.8289 68.0464 38.6938 67.9653C37.0425 66.9722 35.4657 65.968 33.8051 64.7588C33.423 64.4803 33.2359 64.0763 33.3839 63.861C33.5322 63.6462 33.9566 63.6984 34.3343 63.9738C35.9316 65.1377 37.4569 66.1131 39.0915 67.0983C39.2261 67.1792 39.3617 67.2598 39.4975 67.3408C41.0026 68.2372 42.5914 69.1378 44.3161 70.1061C45.172 70.5858 46.0029 71.0132 46.9986 71.5078C47.4739 71.7436 47.9876 71.9946 48.5609 72.2719C50.3171 73.1174 52.6146 74.2207 55.9491 75.7081C57.7507 76.509 59.6835 77.2886 61.9215 78.1185C62.4341 78.3084 62.9519 78.4966 63.493 78.6899C66.3743 79.7174 69.8038 80.8532 73.9793 82.07C75.0369 82.3775 75.9489 82.5935 76.8643 82.7996C76.9156 82.8112 76.967 82.8229 77.0183 82.8345C77.8812 83.0273 78.7603 83.2158 79.7488 83.4558C79.8809 83.4879 80.0495 83.5291 80.2527 83.5774C82.5499 84.1126 89.3108 85.7332 98.7575 87.0417C98.7868 87.0459 98.8162 87.0501 98.8455 87.0543C105.187 87.9094 108.802 88.1166 111.522 87.9932C113.671 87.8846 115.272 87.8557 116.585 87.8386C116.836 87.8352 117.073 87.8314 117.299 87.8279C118.274 87.8126 119.045 87.7927 119.813 87.7142C122.132 87.4737 123.801 87.082 125.774 86.3663C127.447 85.759 129.492 85.303 131.268 84.8673C131.27 84.8667 131.273 84.8661 131.276 84.8654C131.486 84.8139 131.694 84.7629 131.896 84.7121ZM222.074 12.1714C222.142 11.7032 222.403 11.3493 222.661 11.3842C222.92 11.4196 223.078 11.8355 223.009 12.3098C222.844 13.4389 222.659 14.5555 222.454 15.6593C222.368 16.1227 222.087 16.4548 221.832 16.4045C221.576 16.3535 221.44 15.9434 221.525 15.4854C221.728 14.3936 221.911 13.2888 222.074 12.1714ZM129.647 80.1964C130.061 80.1079 130.492 80.2344 130.611 80.4801C130.73 80.7256 130.489 80.9992 130.073 81.089C129.853 81.1365 129.491 81.2187 129.003 81.3266C125.518 82.1273 115.251 84.1252 104.243 83.5647C103.318 83.5217 102.491 83.4787 101.701 83.4323C98.3256 83.2106 95.5364 83.6143 89.1287 82.4425C62.3955 77.2963 36.529 64.5004 19.015 43.1615C13.9983 36.9877 10.1116 29.8369 7.65791 22.2463C5.28783 15.8966 4.50768 3.74323 4.73933 0.819524C4.74215 0.362797 4.961 -0.00507569 5.2219 4.39279e-05C5.48282 0.00531518 5.68696 0.37594 5.68424 0.825891C5.45722 3.69429 6.21485 15.6484 8.53574 21.8871C10.9431 29.3605 14.7583 36.4053 19.6972 42.4979C37.0755 63.6916 63.216 75.3432 89.5414 80.3922C95.7889 81.5334 98.3 82.257 101.65 82.4799C102.437 82.5267 103.264 82.5697 104.191 82.6134C114.978 83.1678 125.03 81.2373 128.54 80.4401C129.041 80.3305 129.416 80.2459 129.647 80.1964ZM149.528 77.4151C154.225 76.2402 160.825 74.3852 166.407 72.1958C169.1 71.1566 171.639 70.0335 173.579 69.0834C176.582 67.6075 178.549 66.7269 180.475 65.8279C180.495 65.8181 180.516 65.8083 180.537 65.7985C182.456 64.8838 184.354 63.9524 187.183 61.9272C190.017 59.897 193.653 56.7015 196.905 53.1074C196.908 53.1047 196.911 53.102 196.913 53.0993C200.17 49.5431 202.656 45.2676 204.58 42.4083C211.35 32.2611 213.751 25.0076 215.311 21.3684C217.894 15.0471 217.827 7.32062 218.945 0.237801C219.193 -0.561312 219.923 0.795399 219.681 2.25349C219.674 2.30604 219.667 2.35857 219.66 2.41097C219.593 2.91047 219.536 3.34544 219.475 3.95458C219.409 4.83778 219.37 5.48909 219.331 6.08163C219.392 7.57695 217.776 18.4545 216.124 21.9124C214.614 25.3584 213.34 33.0154 206.302 43.5951C204.34 46.5054 200.955 50.0801 197.663 53.6826C197.654 53.6925 197.645 53.7025 197.636 53.7124C194.37 57.3278 190.661 60.5994 187.748 62.6863C184.783 64.8094 182.777 65.7876 180.809 66.7216C180.79 66.7305 180.771 66.7394 180.752 66.7482C178.822 67.6459 176.928 68.4896 174.006 69.9259C172.006 70.9065 169.41 72.0538 166.677 73.1059C161.066 75.3004 154.507 77.1406 149.815 78.3178C149.396 78.425 148.991 78.307 148.914 78.0571C148.836 77.8073 149.112 77.5214 149.528 77.4151ZM148.249 71.6661C160.543 67.6291 172.385 62.9634 183.053 56.5198C185.691 54.64 189.22 51.831 192.378 48.659C192.414 48.6236 192.45 48.588 192.486 48.5525C195.614 45.4372 198.367 41.9513 200.11 39.3612C206.358 29.9912 208.165 23.144 209.636 19.7987C210.905 16.6945 211.032 15.7887 211.292 14.4262C211.299 14.3891 211.306 14.3519 211.313 14.3148C211.312 14.3122 211.312 14.3096 211.312 14.3071C211.308 14.2581 211.308 14.2176 211.308 14.1969C211.309 14.1545 211.313 14.1205 211.314 14.1078C211.317 14.0784 211.321 14.0539 211.323 14.0452C211.328 14.0096 211.335 13.9689 211.34 13.9428C211.387 13.7002 211.542 12.9387 211.671 12.3292C211.804 11.7052 211.916 11.2588 212.034 10.7855C212.046 10.7376 212.058 10.6897 212.069 10.6417C212.176 10.2083 212.286 9.75731 212.415 9.11759C212.494 8.72573 212.76 8.46505 213.012 8.53944C213.264 8.6139 213.407 8.99852 213.326 9.39473C213.189 10.0667 213.066 10.5805 212.958 11.0125C212.946 11.0606 212.934 11.1086 212.922 11.1566C212.807 11.6138 212.707 12.0125 212.588 12.5719C212.436 13.3848 212.333 13.9842 212.235 14.5297C211.963 15.9625 211.812 17.0075 210.455 20.3166C209.024 23.5155 207.27 30.3041 200.9 39.8797C199.128 42.5134 196.332 46.0544 193.164 49.2106C193.127 49.2479 193.09 49.2852 193.053 49.3225C189.849 52.5405 186.279 55.3803 183.615 57.2791C173.276 64.6831 161.433 70.158 148.534 72.5691C146.212 73.1664 144.051 73.6297 142.031 74.0163C136.114 75.1366 131.482 75.6528 127.107 76.5427C126.147 76.7334 123.584 77.0232 119.886 77.2277C118.802 77.2872 117.611 77.3384 116.32 77.3759C113.155 77.4678 109.4 77.4742 105.166 77.296C104.279 77.2585 103.484 77.2207 102.727 77.1796C99.4862 76.9809 96.9207 76.8512 90.8061 75.751C83.2797 74.4946 70.9929 70.7299 64.8348 67.9411C61.6964 66.5913 60.0067 65.7161 58.8145 65.0934C58.4834 64.919 58.1942 64.7627 57.9294 64.619C57.2355 64.2423 56.6865 63.9393 55.9735 63.5605C50.8788 60.8028 47.2974 58.8912 41.7952 55.2961C41.4478 55.0653 41.2728 54.69 41.4014 54.4612C41.5302 54.2325 41.9107 54.2342 42.2538 54.4624C47.7069 58.0325 51.3055 59.9598 56.4272 62.7309C57.1648 63.1228 57.7504 63.4459 58.4472 63.8239C58.7063 63.9641 58.9837 64.1133 59.2953 64.2774C60.4588 64.8844 62.1175 65.7436 65.2161 67.0759C71.3154 69.8378 83.5009 73.5712 90.9557 74.8168C96.9716 75.9002 99.4707 76.0291 102.68 76.228C103.434 76.2694 104.227 76.3071 105.116 76.3451C109.329 76.5251 113.07 76.5203 116.217 76.4305C117.497 76.394 118.679 76.3435 119.752 76.2852C123.499 76.0786 125.891 75.8012 126.708 75.6417C131.211 74.7348 136.007 74.1985 141.935 73.0709C143.917 72.6903 146.018 72.2389 148.249 71.6661ZM24.9612 38.9719C25.2173 39.2834 25.276 39.6829 25.0892 39.8671C24.9024 40.0511 24.5368 39.947 24.2762 39.6309C22.901 37.9599 21.9669 36.6988 21.2555 35.7111C19.9473 33.8735 19.3602 32.9497 18.5652 31.5293C16.5254 27.8522 14.9284 24.0998 13.7891 20.6473C11.8696 14.8669 11.205 9.9207 10.9751 7.34199C10.9392 6.93816 11.1255 6.59209 11.3856 6.57148C11.6456 6.5512 11.8806 6.85815 11.916 7.25496C12.1412 9.77881 12.7892 14.6173 14.6656 20.2892C15.7859 23.6955 17.36 27.4034 19.3815 31.0509C20.1408 32.4086 20.6853 33.2695 21.9426 35.0435C22.6416 36.0179 23.5692 37.2765 24.9612 38.9719Z" fill="white"/>
</svg>
