<svg width="51" height="39" viewBox="0 0 51 39" fill="none" xmlns="http://www.w3.org/2000/svg">
<path d="M0.46418 3.13124C0.628076 3.82744 0.987056 4.62954 1.09083 5.3082C1.09229 5.31773 1.09374 5.32726 1.0952 5.33678C1.13894 5.61899 1.16276 5.88442 1.20706 6.256C1.21275 6.30347 1.21844 6.35212 1.22443 6.4017C1.27776 6.84226 1.34558 7.38006 1.45962 8.09265C1.83503 10.462 2.61137 12.1502 2.86917 12.7204C3.37959 13.8386 3.73848 14.8872 4.36658 16.5764C4.42311 16.7277 4.4806 16.8821 4.54022 17.0392C4.58851 17.1665 4.52992 17.3086 4.40902 17.3578C4.28805 17.407 4.15058 17.344 4.10202 17.216C4.04337 17.0615 3.98632 16.91 3.93083 16.7616C3.93058 16.7609 3.93032 16.7602 3.93007 16.7595C3.29423 15.0503 2.94376 14.0252 2.44345 12.9299C2.17966 12.3471 1.38099 10.6084 0.994966 8.17296C0.879189 7.45018 0.809678 6.90452 0.755755 6.45966C0.749853 6.41094 0.744282 6.36334 0.738725 6.31707C0.738615 6.31598 0.738506 6.31488 0.738395 6.31379C0.697194 5.95123 0.672245 5.68821 0.630722 5.41907C0.629751 5.41344 0.628781 5.4078 0.62781 5.40216C0.522432 4.71375 0.165901 3.92523 0.0065259 3.24842C-0.0238405 3.11937 0.0541495 2.98809 0.180582 2.95593C0.306957 2.92384 0.433773 3.00265 0.46418 3.13124ZM30.5874 34.4196C31.1161 33.8506 31.849 33.3011 32.5436 32.7866C33.2517 32.2629 33.8541 31.8511 34.1784 31.6411C34.4846 31.4465 34.7922 31.1593 35.1024 30.8396C35.1754 30.7642 35.2505 30.6849 35.3281 30.6023C35.5843 30.3291 35.8679 30.018 36.1955 29.6791C37.3585 28.478 38.0271 27.5393 38.4458 26.9248C38.5346 26.7937 38.616 26.6701 38.6921 26.554C38.6923 26.5538 38.6924 26.5536 38.6925 26.5534C38.9797 26.1145 39.1918 25.7796 39.4383 25.5024C39.8718 25.0156 40.213 24.6367 40.689 24.1824C41.352 23.5476 41.9491 22.4773 42.2079 21.6962C42.2222 21.6534 42.2365 21.6094 42.2512 21.565C42.4406 20.9939 42.6626 20.3037 43.0657 19.3166C43.4018 18.4933 43.7648 17.7945 44.0852 17.2071C44.1782 17.0365 44.2684 16.874 44.3546 16.7172C44.5719 16.3215 44.7654 15.9636 44.9217 15.6123C45.8716 13.4661 46.4947 12.2363 46.9501 11.5165C47.3014 10.9553 47.5623 10.6654 47.7508 10.4564C47.8078 10.3931 47.8584 10.3373 47.9024 10.2832C48.2966 9.79628 48.5748 9.33038 48.9101 8.75777C48.9844 8.6309 49.0616 8.49867 49.143 8.36057C49.4152 7.89854 49.549 7.52447 49.6323 7.2228C49.6686 7.09109 49.6962 6.97172 49.7206 6.86189C49.721 6.85982 49.7213 6.85778 49.7217 6.85571C49.7252 6.84031 49.7288 6.82512 49.7322 6.80997C49.7347 6.79853 49.7368 6.78693 49.7394 6.77552C49.7389 6.77042 49.739 6.76606 49.7388 6.76273C49.7387 6.76008 49.7387 6.75807 49.7386 6.75676C49.7386 6.75647 49.7385 6.75619 49.7384 6.7559C49.7379 6.73217 49.7415 6.71331 49.7422 6.70941C49.7434 6.70263 49.745 6.69685 49.7458 6.69384C49.7496 6.67799 49.7561 6.65812 49.7605 6.64497C49.7719 6.6112 49.7926 6.55282 49.8254 6.46283C49.8493 6.38268 49.8675 6.3039 49.8899 6.20516C49.8913 6.19891 49.8927 6.19269 49.894 6.18645C49.9159 6.09014 49.9417 5.97752 49.9782 5.8377C50.0114 5.71053 50.1413 5.63163 50.2687 5.66162C50.396 5.69169 50.4724 5.81956 50.4392 5.94717C50.4047 6.07926 50.3806 6.18518 50.3587 6.28182C50.3574 6.28798 50.356 6.2941 50.3547 6.30026C50.3318 6.40103 50.3098 6.49637 50.2796 6.59653C50.2695 6.63005 50.2584 6.66436 50.2476 6.69624C50.2311 6.75473 50.2154 6.8225 50.1971 6.90382C50.1935 6.92015 50.1894 6.93687 50.1856 6.95408C50.1611 7.06429 50.1319 7.19401 50.0921 7.33819C49.9991 7.67521 49.8494 8.09 49.5524 8.59417C49.4746 8.72634 49.3998 8.85456 49.3267 8.97955C48.9897 9.55546 48.6891 10.0608 48.2699 10.5779C48.2126 10.6484 48.1533 10.714 48.0901 10.7842C47.9027 10.992 47.6792 11.24 47.3534 11.7604C46.9184 12.4476 46.3057 13.6529 45.3579 15.795C45.1933 16.1653 44.9859 16.5485 44.7639 16.9526C44.6791 17.1069 44.5925 17.2647 44.5048 17.4255C44.1879 18.0066 43.8349 18.6862 43.5087 19.4857C43.1116 20.4576 42.8972 21.1272 42.7066 21.701C42.7003 21.7206 42.6939 21.7403 42.6875 21.76C42.6795 21.7843 42.6714 21.8085 42.6635 21.8324C42.386 22.6698 41.75 23.8203 41.0141 24.5239C40.556 24.961 40.2298 25.3217 39.7922 25.8145C39.5761 26.0573 39.3934 26.3466 39.1094 26.7808C39.0297 26.9026 38.9415 27.0356 38.8427 27.1815C38.4122 27.8136 37.7294 28.7731 36.5381 30.0043C36.2172 30.3362 35.9426 30.6377 35.6845 30.9132C35.6043 30.9987 35.5254 31.0819 35.4475 31.1623C35.1329 31.4869 34.7859 31.8159 34.4275 32.043C34.1211 32.2412 33.5333 32.6411 32.8261 33.1651C32.1273 33.6823 31.44 34.2022 30.961 34.7188C30.913 34.7714 30.8642 34.8239 30.8153 34.8761C30.3949 35.3258 29.9473 35.757 29.5793 36.214C28.3682 38.8063 22.4627 39.341 19.6483 37.7423C19.6107 37.7264 19.5732 37.7103 19.5357 37.694C16.1935 36.1564 14.7438 34.3667 14.1094 33.7986C14.0852 33.774 14.0632 33.7516 14.0434 33.7313C14.0258 33.7132 14.0096 33.697 13.9956 33.6824C13.7851 33.4645 13.5888 33.2762 13.3838 33.0727C13.3726 33.0616 13.3614 33.0505 13.3502 33.0393C13.1338 32.8233 12.9084 32.5891 12.6618 32.2862C11.7539 31.1628 11.1578 30.3341 10.5703 29.4842C10.4581 29.3202 10.3785 29.2035 10.2864 29.0666C10.2862 29.0662 10.2859 29.0658 10.2857 29.0654C9.89356 28.4827 9.54863 27.9385 9.23681 27.3963C8.64521 26.3617 8.3263 25.8071 8.02582 25.2977C7.9347 25.1427 7.84996 24.9988 7.76993 24.862C7.5969 24.5659 7.44603 24.3023 7.30224 24.0208C7.0229 23.4721 6.7871 23.0433 6.54853 22.5968C6.52734 22.5571 6.50642 22.5173 6.48529 22.4775C6.2279 21.9926 5.97562 21.4988 5.7399 20.9499C5.68517 20.8224 5.73775 20.6744 5.85682 20.6208C5.97584 20.5674 6.11634 20.6277 6.17067 20.7543C6.39831 21.2846 6.64268 21.7641 6.8985 22.2463C6.9196 22.2861 6.94106 22.3258 6.96232 22.3657C7.19975 22.8104 7.43453 23.2383 7.71784 23.7952C7.85548 24.0648 7.99695 24.3123 8.16535 24.6007C8.24572 24.7383 8.33237 24.8852 8.42767 25.0474C8.73092 25.562 9.04975 26.1157 9.64177 27.1517C9.94674 27.6823 10.2834 28.2146 10.6708 28.7907C10.762 28.9264 10.8435 29.0453 10.9528 29.2049C11.5343 30.0469 12.1268 30.8712 13.0223 31.9799C13.2512 32.2612 13.4609 32.48 13.6724 32.6916C13.6843 32.7035 13.6961 32.7154 13.7079 32.7272C13.9074 32.9255 14.1109 33.1208 14.3286 33.3463C14.3577 33.3765 14.3947 33.4149 14.4396 33.4606C15.0576 34.0162 16.4912 35.7744 19.7207 37.2592C19.7306 37.2636 19.7404 37.2679 19.7503 37.2723C21.9623 38.1991 23.4715 38.2008 24.4818 38.0454C25.2875 37.9056 25.8684 37.771 26.3453 37.6526C26.437 37.6294 26.5192 37.6075 26.5978 37.5861C26.9372 37.4931 27.2025 37.407 27.4558 37.2889C28.2286 36.9239 28.689 36.5365 29.1513 35.9633C29.5488 35.4729 30.0476 34.9992 30.4451 34.5727C30.4457 34.572 30.4463 34.5714 30.4469 34.5707C30.4949 34.5198 30.5419 34.4694 30.5874 34.4196ZM50.3557 3.9552C50.4054 3.83288 50.5442 3.77104 50.666 3.81774C50.7879 3.86411 50.8465 4.00187 50.7967 4.12467C50.6777 4.41719 50.5581 4.70912 50.4378 5.00035C50.3873 5.12254 50.2481 5.18299 50.1267 5.1355C50.0053 5.08782 49.9475 4.95038 49.9978 4.82848C50.1177 4.53804 50.2371 4.24693 50.3557 3.9552ZM28.8379 32.757C28.9221 32.6723 29.0652 32.6771 29.1586 32.7685C29.2518 32.86 29.2574 33.0064 29.1698 33.0944C29.1235 33.1408 29.0486 33.2188 28.9469 33.3214C28.2587 34.0166 25.6726 36.442 22.0016 35.87C21.7102 35.825 21.4476 35.7721 21.1966 35.7118C20.1737 35.4424 19.15 35.4313 17.4703 34.1848C10.8517 28.5695 8.6395 20.2869 5.56587 13.0752C4.6853 10.8685 4.01003 8.76255 3.35281 6.47175C2.80316 4.5836 2.15533 1.19213 1.95979 0.301963C1.93007 0.16972 2.00896 0.0370655 2.13579 0.00632325C2.26256 -0.0243566 2.3891 0.0581434 2.41875 0.189983C2.61235 1.07164 3.25618 4.44666 3.80131 6.32016C4.45584 8.60251 5.12561 10.6933 6.00192 12.8904C9.04229 20.0882 11.9026 28.1475 18.1091 33.3571C19.6317 34.4878 20.3069 34.9841 21.2922 35.248C21.5317 35.306 21.7828 35.3568 22.0618 35.4003C25.4797 35.9423 27.9281 33.6784 28.6141 32.9852C28.7154 32.883 28.7907 32.8044 28.8379 32.757ZM33.3106 29.0818C34.2277 28.0148 35.5406 26.4342 36.5743 25.016C37.089 24.3154 37.5564 23.6404 37.9037 23.1088C38.4469 22.2758 38.8828 21.7612 39.2872 21.2928C39.2916 21.2876 39.2959 21.2824 39.3003 21.2773C39.7095 20.7973 40.1231 20.2997 40.6354 19.399C41.1357 18.5219 41.7538 17.1779 42.3106 15.8721C42.3111 15.8711 42.3116 15.87 42.3121 15.869C42.883 14.5401 43.2042 13.0973 43.6542 12.1442C45.2117 8.83607 46.3287 6.85049 46.993 5.87018C48.141 4.17141 48.4662 1.85806 49.6769 0.109639C49.8699 -0.0633641 50.0826 0.417673 49.8448 0.778331C49.837 0.791603 49.8292 0.8049 49.8214 0.818189C49.7476 0.944886 49.6846 1.05623 49.608 1.21725C49.5077 1.45433 49.4419 1.63383 49.3819 1.79761C49.2319 2.22651 48.0369 5.18362 47.3885 6.12642C46.7567 7.05697 46.1842 9.22317 44.6027 12.5844C44.1562 13.5298 43.3246 14.7106 42.7491 16.0508C42.7476 16.0545 42.746 16.0581 42.7444 16.0617C42.189 17.3642 41.5629 18.7271 41.0512 19.6245C40.5174 20.5632 40.0825 21.0855 39.6658 21.5742C39.6617 21.5789 39.6576 21.5837 39.6535 21.5884C39.2514 22.0539 38.8304 22.5521 38.3043 23.3593C37.9469 23.9064 37.4701 24.596 36.9478 25.3066C35.9081 26.7317 34.5997 28.3061 33.6762 29.3816C33.5941 29.4782 33.446 29.4877 33.3457 29.404C33.2456 29.3203 33.23 29.1767 33.3106 29.0818ZM31.133 27.0998C33.1275 24.0672 35.297 20.9095 37.6318 17.8018C38.1179 16.9519 38.8245 15.6845 39.471 14.4553C39.4786 14.4412 39.4862 14.4272 39.4937 14.4131C40.1491 13.1682 40.7662 11.9261 41.1983 11.0116C42.7238 7.77308 43.6084 5.72492 44.2638 4.76607C44.8662 3.88015 44.9701 3.60456 45.1259 3.20125C45.1303 3.19028 45.1346 3.17933 45.139 3.16836C45.1389 3.16749 45.1388 3.16663 45.1388 3.16576C45.1384 3.14972 45.1395 3.13684 45.1404 3.13029C45.1422 3.11696 45.1449 3.10661 45.1459 3.10272C45.1482 3.09373 45.1509 3.08649 45.1518 3.08388C45.1555 3.07324 45.1601 3.06125 45.1633 3.05358C45.1928 2.9823 45.2917 2.76132 45.3774 2.58859C45.4651 2.41163 45.5383 2.28925 45.6165 2.16048C45.6244 2.14744 45.6324 2.13445 45.6403 2.12141C45.7111 2.0049 45.7872 1.87991 45.8877 1.69523C45.9489 1.58282 46.0922 1.53947 46.2081 1.59868C46.3239 1.65791 46.3682 1.7974 46.3069 1.91013C46.2011 2.10462 46.1195 2.23903 46.0483 2.3561C46.0404 2.36906 46.0325 2.38199 46.0245 2.39494C45.9495 2.51849 45.8853 2.62722 45.8072 2.78447C45.7045 3.01611 45.637 3.19134 45.5754 3.35139C45.4135 3.77031 45.2927 4.08834 44.6598 5.01979C44.0354 5.93233 43.1699 7.93256 41.6293 11.2048C41.1948 12.1246 40.5747 13.3733 39.917 14.6229C39.9094 14.6375 39.9017 14.6521 39.8941 14.6667C39.2444 15.9022 38.5347 17.1743 38.047 18.0272C36.1097 21.4182 34.2161 24.8514 31.4978 27.4004C31.082 27.8957 30.627 28.3801 30.2427 28.7615C29.0704 29.9213 28.1252 30.6362 27.3411 31.418C27.1517 31.5942 26.6566 31.9499 25.8622 32.2947C25.6325 32.3931 25.391 32.4847 25.1171 32.5673C24.4455 32.7682 23.6643 32.894 22.7489 32.7961C22.5584 32.7756 22.3843 32.7492 22.2157 32.7168C21.508 32.5595 20.9002 32.4276 19.6373 31.5074C18.0385 30.403 15.9132 27.4963 14.9769 25.7406C14.5125 24.9088 14.2634 24.3766 14.0922 24.001C14.0446 23.8957 14.0033 23.8016 13.9654 23.7154C13.8787 23.5123 13.8112 23.3526 13.7134 23.1452C13.0058 21.6317 12.4142 20.5268 11.5229 18.7674C11.466 18.6538 11.5141 18.512 11.6301 18.4519C11.7462 18.3919 11.8864 18.4357 11.943 18.5486C12.8309 20.3021 13.4251 21.4123 14.1354 22.9325C14.237 23.1481 14.3053 23.3121 14.3966 23.524C14.4336 23.6082 14.4731 23.6977 14.5177 23.7964C14.6839 24.1614 14.9273 24.6822 15.3827 25.4986C16.3054 27.2316 18.392 30.075 19.9146 31.1243C21.1103 31.9967 21.6663 32.1119 22.3202 32.2563C22.4772 32.286 22.6393 32.3099 22.8165 32.3284C23.6598 32.4156 24.3732 32.2979 24.995 32.1104C25.2495 32.033 25.4725 31.9476 25.6864 31.8555C26.446 31.523 26.887 31.1988 27.0417 31.0553C27.8179 30.2767 28.7698 29.5559 29.9274 28.4075C30.2996 28.0374 30.7374 27.5708 31.133 27.0998ZM9.03132 11.9775C9.07832 12.0939 9.01861 12.2288 8.89832 12.2798C8.77803 12.3308 8.64226 12.2783 8.59505 12.1615C8.34574 11.5447 8.16319 11.0883 8.02043 10.7291C7.75895 10.0707 7.61946 9.70219 7.47847 9.24653C7.10742 8.04577 6.74691 6.83524 6.42377 5.70946C5.87987 3.81276 5.51986 2.44621 5.32353 1.61371C5.29407 1.48768 5.37286 1.35895 5.49934 1.32689C5.62573 1.29495 5.75185 1.37133 5.78127 1.4969C5.97561 2.32114 6.33222 3.67586 6.87172 5.55811C7.19431 6.68248 7.5555 7.89369 7.92758 9.09809C8.06297 9.53583 8.1948 9.88584 8.4496 10.5277C8.5918 10.8857 8.77625 11.3462 9.03132 11.9775Z" fill="white"/>
</svg>
