<svg width="76" height="80" viewBox="0 0 76 80" fill="none" xmlns="http://www.w3.org/2000/svg">
<path d="M65.6743 51.7858C65.9586 52.277 66.0358 52.8602 65.889 53.408C65.7423 53.9557 65.3835 54.4232 64.8913 54.7081L39.0601 69.7082C38.7309 69.8993 38.3567 70 37.9757 70C37.5947 70 37.2205 69.8993 36.8913 69.7082L11.0602 54.7081C10.575 54.4179 10.2242 53.9491 10.0837 53.4033C9.94318 52.8575 10.0243 52.2786 10.3094 51.7918C10.5946 51.3051 11.0608 50.9498 11.6073 50.8027C12.1537 50.6557 12.7363 50.7289 13.2289 51.0063L37.9838 65.377L62.7387 51.0063C63.232 50.7233 63.818 50.6464 64.3682 50.7925C64.9184 50.9386 65.388 51.2958 65.6743 51.7858ZM62.7387 38.1491L37.9838 52.5197L13.2289 38.1491C12.7388 37.9062 12.1741 37.8583 11.6497 38.0152C11.1254 38.1721 10.6808 38.5221 10.4065 38.9938C10.1322 39.4655 10.0488 40.0236 10.1732 40.5544C10.2976 41.0851 10.6206 41.5488 11.0763 41.8509L36.9075 56.851C37.2366 57.0421 37.6108 57.1428 37.9918 57.1428C38.3729 57.1428 38.7471 57.0421 39.0762 56.851L64.9074 41.8509C65.1555 41.7112 65.3732 41.5238 65.548 41.2996C65.7228 41.0754 65.8511 40.8189 65.9254 40.545C65.9998 40.271 66.0188 39.9851 65.9813 39.7038C65.9438 39.4225 65.8505 39.1514 65.7069 38.9063C65.5633 38.6612 65.3722 38.4469 65.1447 38.2758C64.9172 38.1048 64.6579 37.9805 64.3818 37.91C64.1056 37.8396 63.8182 37.8245 63.5361 37.8655C63.2541 37.9065 62.983 38.0029 62.7387 38.1491ZM10 27.1428C10.0009 26.7674 10.1007 26.3989 10.2896 26.0741C10.4785 25.7493 10.7498 25.4795 11.0763 25.2919L36.9075 10.2918C37.2366 10.1007 37.6108 10 37.9918 10C38.3729 10 38.7471 10.1007 39.0762 10.2918L64.9074 25.2919C65.2323 25.4806 65.5019 25.7508 65.6893 26.0755C65.8767 26.4003 65.9753 26.7683 65.9753 27.1428C65.9753 27.5173 65.8767 27.8852 65.6893 28.21C65.5019 28.5347 65.2323 28.805 64.9074 28.9937L39.0762 43.9938C38.7471 44.1849 38.3729 44.2855 37.9918 44.2855C37.6108 44.2855 37.2366 44.1849 36.9075 43.9938L11.0763 28.9937C10.7498 28.806 10.4785 28.5363 10.2896 28.2114C10.1007 27.8866 10.0009 27.5181 10 27.1428ZM16.4255 27.1428L37.9838 39.6625L59.542 27.1428L37.9838 14.623L16.4255 27.1428Z" fill="white"/>
</svg>
