<svg width="205" height="111" viewBox="0 0 205 111" fill="none" xmlns="http://www.w3.org/2000/svg">
<path d="M8.6844 29.3566C10.5586 28.6244 12.6735 27.4821 14.595 26.9111C14.6224 26.9029 14.6497 26.8947 14.6771 26.8865C15.4747 26.6483 16.2949 26.4366 17.2807 26.1888C17.4063 26.1573 17.535 26.1254 17.6662 26.0926C18.8323 25.8015 20.2574 25.4476 22.1581 24.9615C28.4524 23.355 33.4949 21.3828 34.9165 20.8198C37.8343 19.6697 41.3891 18.6442 45.8391 17.5345C46.249 17.4325 46.6683 17.3306 47.0966 17.2267C47.4378 17.1438 47.806 17.2728 47.8704 17.5257C47.9421 17.7771 47.6883 18.0553 47.3456 18.1385C46.9281 18.2398 46.5201 18.3401 46.1215 18.4392C46.1196 18.4396 46.1178 18.4401 46.116 18.4405C41.6555 19.5525 38.2012 20.5502 35.352 21.6704C33.9072 22.2421 28.7607 24.2517 22.3345 25.8934C20.4188 26.3841 18.9815 26.7428 17.8111 27.0355C17.6829 27.0676 17.5578 27.0987 17.4361 27.1293C17.4332 27.13 17.4304 27.1306 17.4275 27.1313C16.4375 27.3807 15.6534 27.583 14.892 27.8106C14.8759 27.8157 14.8598 27.8207 14.8436 27.8257C12.9172 28.3974 10.8447 29.5271 9.03361 30.2346C8.68975 30.3686 8.33128 30.2818 8.23432 30.0395C8.13759 29.7973 8.3397 29.4912 8.6844 29.3566ZM138.12 21.5168C139.979 22.1466 142.143 23.474 143.963 24.8383C145.795 26.205 147.299 27.6166 147.973 28.3168C148.636 29.0044 149.445 29.6718 150.409 30.4594C150.63 30.64 150.859 30.8272 151.095 31.0217C151.876 31.6653 152.729 32.3875 153.627 33.2414C156.916 36.3819 158.992 38.4609 160.505 39.9385C160.815 40.2429 161.102 40.5262 161.37 40.7928C161.371 40.7933 161.371 40.7937 161.372 40.7942C162.382 41.8002 163.122 42.5696 163.705 43.366C164.739 44.7841 165.549 45.9674 166.397 47.4893C167.573 49.5857 169.675 52.1803 171.224 53.7652C171.31 53.8518 171.398 53.9401 171.486 54.03C172.609 55.1787 173.987 56.6077 175.797 58.9583C177.299 60.9136 178.419 62.7456 179.354 64.403C179.622 64.8779 179.871 65.3345 180.109 65.7735C180.709 66.8816 181.233 67.8798 181.766 68.7976C185.065 74.5102 186.488 78.0746 187.259 80.3424C187.843 82.0959 188.021 83.1443 188.147 83.8942C188.185 84.1213 188.217 84.3221 188.255 84.508C188.588 86.1659 189.023 87.6188 189.527 89.3889C189.638 89.7809 189.753 90.1887 189.869 90.6155C190.257 92.043 190.666 93.0526 191.028 93.8348C191.187 94.1788 191.336 94.4782 191.476 94.7605C191.479 94.7657 191.481 94.7709 191.484 94.776C191.504 94.8154 191.523 94.8546 191.542 94.8934C191.556 94.9227 191.572 94.9515 191.586 94.9808C191.595 94.9912 191.602 95.0009 191.607 95.008C191.611 95.0136 191.615 95.0181 191.617 95.0209C191.617 95.0214 191.618 95.0218 191.618 95.0223C191.657 95.0739 191.681 95.1211 191.686 95.1308C191.695 95.1477 191.702 95.1631 191.706 95.1709C191.725 95.212 191.748 95.2661 191.762 95.3021C191.799 95.3948 191.862 95.5565 191.957 95.8072C192.048 96.022 192.146 96.2249 192.267 96.4789C192.275 96.4948 192.283 96.5108 192.29 96.5268C192.409 96.7745 192.546 97.0647 192.709 97.4322C192.857 97.7666 192.791 98.144 192.561 98.2746C192.332 98.4051 192.028 98.2406 191.881 97.908C191.728 97.5633 191.6 97.293 191.482 97.0462C191.474 97.0306 191.467 97.015 191.459 96.9994C191.336 96.7422 191.22 96.4986 191.107 96.2316C191.069 96.1422 191.031 96.0496 190.996 95.9628C190.928 95.8086 190.844 95.6354 190.742 95.4289C190.722 95.3874 190.701 95.3445 190.68 95.3007C190.54 95.0202 190.378 94.6939 190.206 94.3214C189.804 93.4515 189.357 92.3409 188.936 90.7942C188.825 90.3888 188.715 89.9965 188.606 89.6134C188.101 87.8442 187.636 86.2932 187.282 84.541C187.233 84.3008 187.195 84.0665 187.152 83.8163C187.026 83.0761 186.874 82.1824 186.336 80.5722C185.604 78.4238 184.229 74.9595 180.971 69.3119C180.415 68.3543 179.86 67.296 179.253 66.1762C179.021 65.7488 178.78 65.3121 178.531 64.869C177.616 63.2476 176.538 61.4852 175.099 59.609C173.342 57.3248 172.014 55.9426 170.904 54.8054C170.865 54.7663 170.827 54.7273 170.788 54.6883C170.74 54.6397 170.693 54.5914 170.646 54.5436C169.007 52.8639 166.785 50.1289 165.493 47.8325C164.687 46.3893 163.918 45.2653 162.897 43.8669C162.393 43.1797 161.766 42.5261 160.786 41.5469C160.51 41.2721 160.206 40.9707 159.868 40.6377C158.342 39.1459 156.252 37.0538 152.955 33.9075C152.093 33.0888 151.285 32.4037 150.516 31.7695C150.278 31.5728 150.043 31.3804 149.812 31.1921C148.854 30.4084 147.954 29.6723 147.196 28.8887C146.575 28.2448 145.133 26.8902 143.367 25.5739C141.588 24.2427 139.599 23.0407 137.982 22.4893C137.815 22.432 137.646 22.3741 137.477 22.317C136.012 21.8185 134.553 21.3749 133.251 21.2443C127.126 21.3238 118.597 16.9739 112.269 15.3674C112.187 15.3452 112.105 15.3231 112.023 15.3011C104.793 13.3755 99.2979 12.8954 97.475 12.7108C97.3885 12.7026 97.3097 12.6954 97.2389 12.6889C97.1756 12.6831 97.1183 12.6783 97.0678 12.6737C96.3104 12.6042 95.6327 12.5802 94.919 12.5605C94.88 12.5595 94.841 12.5585 94.802 12.5575C94.0498 12.5376 93.239 12.5193 92.3457 12.4668C88.9907 12.2698 86.0518 12.2881 83.6748 12.3632C83.2317 12.3772 82.7993 12.3925 82.3763 12.4102C82.375 12.4103 82.3738 12.4103 82.3725 12.4103C80.5158 12.4885 78.8424 12.5947 77.2341 12.6894C74.3362 12.8638 72.4673 13.1033 70.942 13.3201C70.468 13.3885 70.0299 13.4558 69.6155 13.5212C68.7191 13.6629 67.9314 13.7943 67.1116 13.9107C65.6425 14.1207 64.2861 14.3766 62.9364 14.6453C62.8161 14.6693 62.6958 14.6928 62.5756 14.717C61.1102 15.0119 59.6453 15.3202 58.0677 15.6071C57.7004 15.6739 57.3614 15.5209 57.3101 15.2648C57.2526 15.0102 57.5016 14.7487 57.8715 14.6813C59.412 14.401 60.8497 14.0983 62.3235 13.8011C62.4451 13.7766 62.567 13.7516 62.6891 13.7273C64.0431 13.4571 65.4354 13.1955 66.9376 12.9803C67.7299 12.8677 68.4808 12.7423 69.3649 12.6019C69.787 12.535 70.2402 12.4646 70.743 12.3918C72.3011 12.1697 74.2097 11.9243 77.1514 11.7467C78.7509 11.6523 80.4146 11.5467 82.2839 11.4673C82.7126 11.4492 83.1524 11.4325 83.6041 11.4181C85.9992 11.3415 88.9793 11.3222 92.3784 11.5212C93.2307 11.5712 93.9994 11.5882 94.7567 11.6078C94.7992 11.609 94.8417 11.6102 94.8842 11.6115C95.5977 11.6308 96.3195 11.6552 97.1263 11.729C97.234 11.7389 97.3715 11.752 97.5367 11.7675C99.378 11.9537 104.939 12.4369 112.263 14.3872C112.286 14.3934 112.309 14.3996 112.331 14.4058C117.164 15.7186 119.904 16.7457 121.971 17.207C123.604 17.582 124.848 18.0083 125.818 18.3673C126.004 18.4365 126.18 18.5024 126.347 18.5662C127.07 18.8422 127.636 19.0663 128.22 19.2442C129.971 19.7783 131.347 20.055 133.065 20.2159C134.533 20.3584 136.155 20.8508 137.608 21.3433C137.611 21.3441 137.613 21.3448 137.615 21.3455C137.786 21.4033 137.955 21.4608 138.12 21.5168ZM194.988 102.255C195.094 102.61 194.977 102.958 194.727 103.034C194.477 103.109 194.19 102.884 194.085 102.531C193.834 101.69 193.577 100.849 193.315 100.007C193.204 99.6525 193.316 99.3076 193.564 99.2263C193.813 99.1467 194.103 99.3633 194.215 99.7198C194.479 100.565 194.736 101.41 194.988 102.255ZM138.977 16.6307C139.336 16.762 139.589 17.0874 139.542 17.3529C139.495 17.6179 139.168 17.7241 138.814 17.5934C138.624 17.5235 138.318 17.4167 137.904 17.2767C134.927 16.2327 126.32 13.6049 117.288 11.5545C116.532 11.3774 115.861 11.2322 115.212 11.0972C112.436 10.5421 110.033 10.6123 104.739 9.71345C82.2723 6.01833 58.7141 8.05168 36.7463 15.191C30.5218 17.2194 24.0831 19.3984 17.942 21.6625C12.5472 23.6036 3.22436 26.9785 0.856203 27.9942C0.49963 28.1419 0.127297 28.0676 0.0256731 27.8272C-0.0757528 27.5868 0.132626 27.2713 0.49011 27.1231C2.84886 26.1114 12.1637 22.7385 17.5583 20.7959C23.7091 18.5267 30.159 16.3429 36.3904 14.3102C58.4252 7.13985 82.1102 3.88341 105.098 7.65318C110.452 8.56422 112.545 9.6002 115.329 10.154C115.985 10.2898 116.671 10.4375 117.434 10.6155C126.432 12.6549 134.976 15.2391 138.026 16.3018C138.457 16.4471 138.78 16.5589 138.977 16.6307ZM153.739 26.6956C157.164 29.2433 161.67 33.3833 165.26 37.2863C167.017 39.1784 168.589 41.0055 169.826 42.4732C171.741 44.7513 172.732 46.3666 173.691 47.9632C173.701 47.9804 173.711 47.9975 173.722 48.0146C174.674 49.6157 175.612 51.2198 177.304 53.6961C179.01 56.1924 181.432 59.6086 183.706 63.1814C183.708 63.1842 183.709 63.1871 183.711 63.1899C185.977 66.7289 188.537 70.2256 189.878 73.0173C194.533 82.7633 196.157 89.2777 196.851 92.5651C198.025 98.3288 200.99 104.356 201.469 110.385C201.399 111.077 200.42 110.213 200.294 109.004C200.288 108.96 200.281 108.917 200.275 108.874C200.215 108.462 200.158 108.102 200.051 107.601C199.873 106.883 199.719 106.352 199.576 105.868C199.243 104.581 196.605 95.8429 195.891 92.6293C195.228 89.519 192.611 83.5939 187.991 73.92C186.695 71.2217 185.209 67.2926 182.942 63.7452C182.935 63.7355 182.929 63.7258 182.923 63.716C180.68 60.1902 178.253 56.7616 176.531 54.2409C174.79 51.6923 173.815 50.0274 172.856 48.4172C172.847 48.4015 172.837 48.3858 172.828 48.3701C171.884 46.7999 170.943 45.2709 169.113 43.0935C167.859 41.6048 166.279 39.7722 164.524 37.8844C160.975 34.0315 156.571 29.9841 153.207 27.4782C152.904 27.2499 152.774 26.8901 152.92 26.6728C153.065 26.4558 153.433 26.4653 153.739 26.6956ZM157.431 22.1063C168.112 29.085 176.708 39.0089 182.813 49.7028C184.628 52.3483 187.016 56.127 189.198 60.0002C189.223 60.0441 189.247 60.088 189.271 60.1319C191.434 63.9562 193.399 67.8563 194.751 70.6697C199.547 80.7096 201.681 87.239 202.41 90.6219C203.061 93.8001 203.329 94.6305 203.75 95.8708C203.761 95.9046 203.772 95.9385 203.783 95.9724C203.784 95.9743 203.786 95.9763 203.787 95.9783C203.813 96.0169 203.832 96.0503 203.841 96.0677C203.859 96.1031 203.871 96.1327 203.876 96.1441C203.887 96.1701 203.895 96.1924 203.898 96.2003C203.909 96.2326 203.922 96.2699 203.929 96.294C204 96.5185 204.206 97.226 204.35 97.791C204.498 98.3699 204.58 98.7893 204.662 99.2318C204.671 99.2766 204.679 99.3214 204.687 99.3663C204.761 99.765 204.84 100.199 204.97 100.816C205.05 101.193 204.901 101.523 204.64 101.554C204.38 101.586 204.106 101.309 204.027 100.934C203.89 100.287 203.806 99.8271 203.732 99.4279C203.724 99.3836 203.715 99.3393 203.707 99.2949C203.628 98.873 203.555 98.504 203.424 97.9926C203.214 97.26 203.034 96.717 202.871 96.2294C202.438 94.9508 202.129 93.9944 201.448 90.679C200.755 87.4869 198.704 81.1465 193.907 71.0932C192.56 68.2893 190.603 64.406 188.455 60.6072C188.43 60.5625 188.404 60.5179 188.379 60.4732C186.208 56.6204 183.839 52.8702 182.042 50.2476C175.03 39.9993 166.421 31.2063 156.901 22.8912C155.042 21.487 153.305 20.2404 151.681 19.134C146.867 15.8667 142.941 13.6822 138.922 12.2729C138.048 11.9734 135.809 10.9508 132.553 9.69558C131.603 9.32973 130.551 8.93872 129.402 8.53546C126.547 7.53363 123.265 6.51379 119.363 5.57022C118.541 5.37166 117.847 5.2181 117.158 5.07007C114.237 4.46848 111.831 3.9504 106.225 2.98029C99.2674 1.68286 87.4204 0.845039 81.159 0.954436C78.0202 0.957963 76.1506 1.00476 74.913 1.01774C74.5691 1.02217 74.2657 1.02545 73.9868 1.02972C73.2582 1.04118 72.6897 1.05403 71.943 1.0969C66.4879 1.43829 62.8289 2.01471 56.6873 3.30842C56.3011 3.39112 55.9256 3.25581 55.8496 3.00471C55.7738 2.75361 56.0281 2.48041 56.4166 2.39684C62.6017 1.09166 66.3334 0.500382 71.895 0.152702C72.6789 0.107691 73.2908 0.0946573 74.0362 0.0832837C74.3125 0.0791714 74.6071 0.0756585 74.935 0.0715202C76.1671 0.0584953 78.0217 0.0126148 81.1647 0.00910266C87.4546 -0.100631 99.367 0.741275 106.359 2.04378C111.957 3.01148 114.333 3.5225 117.271 4.12543C117.967 4.27423 118.676 4.43021 119.505 4.62959C123.45 5.58049 126.766 6.60785 129.651 7.61808C130.809 8.02374 131.868 8.41644 132.824 8.7835C136.172 10.0734 138.299 11.0465 139.054 11.3017C143.248 12.7611 147.386 15.0671 152.281 18.3976C153.9 19.5024 155.615 20.7363 157.431 22.1063ZM35.001 8.13053C35.3758 8.00969 35.7578 8.11102 35.8552 8.35445C35.9524 8.59792 35.7299 8.89132 35.357 9.01147C33.3435 9.65969 32.0659 10.107 30.9891 10.4827C29.0245 11.1731 28.0664 11.5234 26.606 11.9886C22.7624 13.2184 19.2909 14.4309 16.0792 15.6092C10.6608 17.5993 6.49123 19.3052 4.20882 20.2006C3.85244 20.3406 3.48372 20.2587 3.38642 20.0165C3.28953 19.7744 3.50126 19.4636 3.85845 19.3231C6.13201 18.4311 10.2788 16.7347 15.6959 14.7437C18.9234 13.5588 22.4134 12.3374 26.2963 11.0946C27.7179 10.6416 28.6263 10.31 30.5554 9.63093C31.6402 9.25215 32.9212 8.8007 35.001 8.13053Z" fill="white"/>
</svg>
