<svg width="967" height="798" viewBox="0 0 967 798" fill="none" xmlns="http://www.w3.org/2000/svg">
<path d="M770.618 29.3566C772.492 28.6244 774.607 27.4821 776.528 26.9111C776.556 26.9029 776.583 26.8947 776.61 26.8865C777.408 26.6483 778.228 26.4366 779.214 26.1888C779.339 26.1573 779.468 26.1254 779.599 26.0926C780.765 25.8015 782.191 25.4476 784.091 24.9615C790.386 23.355 795.428 21.3828 796.85 20.8198C799.767 19.6697 803.322 18.6442 807.772 17.5345C808.182 17.4325 808.601 17.3306 809.03 17.2267C809.371 17.1438 809.739 17.2728 809.804 17.5257C809.875 17.7771 809.622 18.0553 809.279 18.1385C808.861 18.2398 808.453 18.3401 808.055 18.4392C808.053 18.4396 808.051 18.4401 808.049 18.4405C803.589 19.5525 800.134 20.5502 797.285 21.6704C795.84 22.2421 790.694 24.2517 784.268 25.8934C782.352 26.3841 780.915 26.7428 779.744 27.0355C779.616 27.0676 779.491 27.0987 779.369 27.1293C779.366 27.13 779.364 27.1306 779.361 27.1313C778.371 27.3807 777.587 27.583 776.825 27.8106C776.809 27.8157 776.793 27.8207 776.777 27.8257C774.85 28.3974 772.778 29.5271 770.967 30.2346C770.623 30.3686 770.264 30.2818 770.168 30.0395C770.071 29.7973 770.273 29.4912 770.618 29.3566ZM900.053 21.5168C901.912 22.1466 904.076 23.474 905.896 24.8383C907.728 26.205 909.232 27.6166 909.906 28.3168C910.569 29.0044 911.379 29.6718 912.342 30.4594C912.563 30.64 912.793 30.8272 913.029 31.0217C913.809 31.6653 914.662 32.3875 915.56 33.2414C918.85 36.3819 920.925 38.4609 922.438 39.9385C922.748 40.2429 923.036 40.5262 923.304 40.7928C923.304 40.7933 923.304 40.7937 923.305 40.7942C924.315 41.8002 925.055 42.5696 925.638 43.366C926.672 44.7841 927.482 45.9674 928.33 47.4893C929.506 49.5857 931.608 52.1803 933.158 53.7652C933.243 53.8518 933.331 53.9401 933.419 54.03C934.543 55.1787 935.92 56.6077 937.73 58.9583C939.232 60.9136 940.353 62.7456 941.287 64.403C941.555 64.8779 941.804 65.3345 942.042 65.7735C942.642 66.8816 943.166 67.8798 943.699 68.7976C946.998 74.5102 948.421 78.0746 949.192 80.3424C949.777 82.0959 949.954 83.1443 950.08 83.8942C950.118 84.1213 950.15 84.3221 950.188 84.508C950.521 86.1659 950.956 87.6188 951.46 89.3889C951.572 89.7809 951.686 90.1887 951.802 90.6155C952.19 92.043 952.599 93.0526 952.961 93.8348C953.12 94.1788 953.269 94.4782 953.409 94.7605C953.412 94.7657 953.414 94.7709 953.417 94.776C953.437 94.8154 953.456 94.8546 953.475 94.8934C953.489 94.9227 953.505 94.9515 953.519 94.9808C953.528 94.9912 953.535 95.0009 953.54 95.008C953.545 95.0136 953.548 95.0181 953.55 95.0209C953.55 95.0214 953.551 95.0218 953.552 95.0223C953.59 95.0739 953.615 95.1211 953.62 95.1308C953.629 95.1477 953.635 95.1631 953.639 95.1709C953.659 95.212 953.681 95.2661 953.695 95.3021C953.733 95.3948 953.795 95.5565 953.89 95.8072C953.982 96.022 954.079 96.2249 954.2 96.4789C954.208 96.4948 954.216 96.5108 954.224 96.5268C954.342 96.7745 954.48 97.0647 954.642 97.4322C954.79 97.7666 954.724 98.144 954.495 98.2746C954.265 98.4051 953.961 98.2406 953.814 97.908C953.661 97.5633 953.533 97.293 953.415 97.0462C953.408 97.0306 953.4 97.015 953.392 96.9994C953.269 96.7422 953.153 96.4986 953.04 96.2316C953.002 96.1422 952.964 96.0496 952.929 95.9628C952.862 95.8086 952.778 95.6354 952.676 95.4289C952.655 95.3874 952.635 95.3445 952.613 95.3007C952.474 95.0202 952.311 94.6939 952.139 94.3214C951.737 93.4515 951.29 92.3409 950.869 90.7942C950.758 90.3888 950.648 89.9965 950.539 89.6134C950.034 87.8442 949.569 86.2932 949.215 84.541C949.166 84.3008 949.128 84.0665 949.085 83.8163C948.959 83.0761 948.807 82.1824 948.27 80.5722C947.537 78.4238 946.163 74.9595 942.904 69.3119C942.348 68.3543 941.793 67.296 941.186 66.1762C940.954 65.7488 940.714 65.3121 940.464 64.869C939.549 63.2476 938.471 61.4852 937.032 59.609C935.275 57.3248 933.947 55.9426 932.837 54.8054C932.799 54.7663 932.76 54.7273 932.721 54.6883C932.674 54.6397 932.626 54.5914 932.579 54.5436C930.941 52.8639 928.718 50.1289 927.426 47.8325C926.62 46.3893 925.851 45.2653 924.83 43.8669C924.326 43.1797 923.699 42.5261 922.719 41.5469C922.443 41.2721 922.14 40.9707 921.801 40.6377C920.275 39.1459 918.185 37.0538 914.888 33.9075C914.026 33.0888 913.218 32.4037 912.449 31.7695C912.211 31.5728 911.976 31.3804 911.745 31.1921C910.787 30.4084 909.887 29.6723 909.129 28.8887C908.508 28.2448 907.066 26.8902 905.3 25.5739C903.522 24.2427 901.532 23.0407 899.915 22.4893C899.748 22.432 899.579 22.3741 899.41 22.317C897.945 21.8185 896.486 21.3749 895.184 21.2443C889.06 21.3238 880.53 16.9739 874.202 15.3674C874.12 15.3452 874.038 15.3231 873.956 15.3011C866.726 13.3755 861.231 12.8954 859.408 12.7108C859.322 12.7026 859.243 12.6954 859.172 12.6889C859.109 12.6831 859.052 12.6783 859.001 12.6737C858.244 12.6042 857.566 12.5802 856.852 12.5605C856.813 12.5595 856.774 12.5585 856.735 12.5575C855.983 12.5376 855.172 12.5193 854.279 12.4668C850.924 12.2698 847.985 12.2881 845.608 12.3632C845.165 12.3772 844.732 12.3925 844.309 12.4102C844.308 12.4103 844.307 12.4103 844.306 12.4103C842.449 12.4885 840.776 12.5947 839.167 12.6894C836.269 12.8638 834.401 13.1033 832.875 13.3201C832.401 13.3885 831.963 13.4558 831.549 13.5212C830.652 13.6629 829.865 13.7943 829.045 13.9107C827.576 14.1207 826.219 14.3766 824.87 14.6453C824.749 14.6693 824.629 14.6928 824.509 14.717C823.043 15.0119 821.579 15.3202 820.001 15.6071C819.634 15.6739 819.295 15.5209 819.243 15.2648C819.186 15.0102 819.435 14.7487 819.805 14.6813C821.345 14.401 822.783 14.0983 824.257 13.8011C824.378 13.7766 824.5 13.7516 824.622 13.7273C825.976 13.4571 827.369 13.1955 828.871 12.9803C829.663 12.8677 830.414 12.7423 831.298 12.6019C831.72 12.535 832.173 12.4646 832.676 12.3918C834.234 12.1697 836.143 11.9243 839.085 11.7467C840.684 11.6523 842.348 11.5467 844.217 11.4673C844.646 11.4492 845.086 11.4325 845.537 11.4181C847.932 11.3415 850.912 11.3222 854.312 11.5212C855.164 11.5712 855.933 11.5882 856.69 11.6078C856.732 11.609 856.775 11.6102 856.817 11.6115C857.531 11.6308 858.253 11.6552 859.059 11.729C859.167 11.7389 859.305 11.752 859.47 11.7675C861.311 11.9537 866.873 12.4369 874.197 14.3872C874.219 14.3934 874.242 14.3996 874.264 14.4058C879.097 15.7186 881.837 16.7457 883.904 17.207C885.537 17.582 886.781 18.0083 887.751 18.3673C887.937 18.4365 888.113 18.5024 888.281 18.5662C889.003 18.8422 889.569 19.0663 890.153 19.2442C891.904 19.7783 893.28 20.055 894.998 20.2159C896.467 20.3584 898.089 20.8508 899.542 21.3433C899.544 21.3441 899.546 21.3448 899.548 21.3455C899.72 21.4033 899.888 21.4608 900.053 21.5168ZM956.921 102.255C957.027 102.61 956.91 102.958 956.66 103.034C956.41 103.109 956.123 102.884 956.018 102.531C955.767 101.69 955.51 100.849 955.248 100.007C955.137 99.6525 955.25 99.3076 955.497 99.2263C955.746 99.1467 956.037 99.3633 956.148 99.7198C956.412 100.565 956.669 101.41 956.921 102.255ZM900.911 16.6307C901.27 16.762 901.523 17.0874 901.475 17.3529C901.428 17.6179 901.102 17.7241 900.747 17.5934C900.558 17.5235 900.251 17.4167 899.837 17.2767C896.86 16.2327 888.254 13.6049 879.221 11.5545C878.465 11.3774 877.794 11.2322 877.145 11.0972C874.369 10.5421 871.966 10.6123 866.672 9.71345C844.206 6.01833 820.647 8.05168 798.679 15.191C792.455 17.2194 786.016 19.3984 779.875 21.6625C774.48 23.6036 765.158 26.9785 762.789 27.9942C762.433 28.1419 762.06 28.0676 761.959 27.8272C761.857 27.5868 762.066 27.2713 762.423 27.1231C764.782 26.1114 774.097 22.7385 779.491 20.7959C785.642 18.5267 792.092 16.3429 798.324 14.3102C820.358 7.13985 844.043 3.88341 867.031 7.65318C872.385 8.56422 874.479 9.6002 877.262 10.154C877.918 10.2898 878.604 10.4375 879.368 10.6155C888.365 12.6549 896.909 15.2391 899.959 16.3018C900.39 16.4471 900.713 16.5589 900.911 16.6307ZM915.673 26.6956C919.098 29.2433 923.603 33.3833 927.193 37.2863C928.95 39.1784 930.522 41.0055 931.759 42.4732C933.674 44.7513 934.665 46.3666 935.624 47.9632C935.634 47.9804 935.645 47.9975 935.655 48.0146C936.607 49.6157 937.545 51.2198 939.237 53.6961C940.943 56.1924 943.365 59.6086 945.639 63.1814C945.641 63.1842 945.643 63.1871 945.644 63.1899C947.91 66.7289 950.47 70.2256 951.811 73.0173C956.467 82.7633 958.091 89.2777 958.785 92.5651C959.958 98.3288 962.923 104.356 963.402 110.385C963.332 111.077 962.354 110.213 962.227 109.004C962.221 108.96 962.215 108.917 962.208 108.874C962.148 108.462 962.091 108.102 961.984 107.601C961.806 106.883 961.652 106.352 961.51 105.868C961.176 104.581 958.539 95.8429 957.824 92.6293C957.161 89.519 954.544 83.5939 949.925 73.92C948.628 71.2217 947.142 67.2926 944.875 63.7452C944.869 63.7355 944.862 63.7258 944.856 63.716C942.613 60.1902 940.187 56.7616 938.464 54.2409C936.723 51.6923 935.748 50.0274 934.789 48.4172C934.78 48.4015 934.771 48.3858 934.761 48.3701C933.817 46.7999 932.877 45.2709 931.047 43.0935C929.792 41.6048 928.212 39.7722 926.457 37.8844C922.908 34.0315 918.504 29.9841 915.14 27.4782C914.837 27.2499 914.707 26.8901 914.853 26.6728C914.999 26.4558 915.366 26.4653 915.673 26.6956ZM919.364 22.1063C930.046 29.085 938.641 39.0089 944.747 49.7028C946.561 52.3483 948.949 56.127 951.131 60.0002C951.156 60.0441 951.18 60.088 951.205 60.1319C953.367 63.9562 955.333 67.8563 956.684 70.6697C961.481 80.7096 963.615 87.239 964.343 90.6219C964.994 93.8001 965.262 94.6305 965.683 95.8708C965.694 95.9046 965.705 95.9385 965.716 95.9724C965.717 95.9743 965.719 95.9763 965.72 95.9783C965.746 96.0169 965.765 96.0503 965.774 96.0677C965.792 96.1031 965.805 96.1327 965.809 96.1441C965.82 96.1701 965.828 96.1924 965.831 96.2003C965.842 96.2326 965.855 96.2699 965.862 96.294C965.933 96.5185 966.139 97.226 966.283 97.791C966.431 98.3699 966.513 98.7893 966.595 99.2318C966.604 99.2766 966.612 99.3214 966.62 99.3663C966.694 99.765 966.774 100.199 966.904 100.816C966.983 101.193 966.834 101.523 966.574 101.554C966.313 101.586 966.039 101.309 965.96 100.934C965.824 100.287 965.739 99.8271 965.665 99.4279C965.657 99.3836 965.649 99.3393 965.64 99.2949C965.561 98.873 965.488 98.504 965.358 97.9926C965.147 97.26 964.967 96.717 964.804 96.2294C964.371 94.9508 964.063 93.9944 963.381 90.679C962.688 87.4869 960.638 81.1465 955.84 71.0932C954.493 68.2893 952.536 64.406 950.388 60.6072C950.363 60.5625 950.337 60.5179 950.312 60.4732C948.141 56.6204 945.773 52.8702 943.975 50.2476C936.963 39.9993 928.354 31.2063 918.834 22.8912C916.975 21.487 915.238 20.2404 913.614 19.134C908.8 15.8667 904.874 13.6822 900.855 12.2729C899.981 11.9734 897.743 10.9508 894.487 9.69558C893.536 9.32973 892.485 8.93872 891.335 8.53546C888.48 7.53363 885.198 6.51379 881.296 5.57022C880.474 5.37166 879.78 5.2181 879.091 5.07007C876.17 4.46848 873.764 3.9504 868.158 2.98029C861.201 1.68286 849.354 0.845039 843.092 0.954436C839.953 0.957963 838.084 1.00476 836.846 1.01774C836.502 1.02217 836.199 1.02545 835.92 1.02972C835.191 1.04118 834.623 1.05403 833.876 1.0969C828.421 1.43829 824.762 2.01471 818.621 3.30842C818.234 3.39112 817.859 3.25581 817.783 3.00471C817.707 2.75361 817.961 2.48041 818.35 2.39684C824.535 1.09166 828.267 0.500382 833.828 0.152702C834.612 0.107691 835.224 0.0946573 835.969 0.0832837C836.246 0.0791714 836.54 0.0756585 836.868 0.0715202C838.1 0.0584953 839.955 0.0126148 843.098 0.00910266C849.388 -0.100631 861.3 0.741275 868.293 2.04378C873.89 3.01148 876.267 3.5225 879.204 4.12543C879.9 4.27423 880.609 4.43021 881.439 4.62959C885.383 5.58049 888.699 6.60785 891.584 7.61808C892.742 8.02374 893.801 8.41644 894.757 8.7835C898.105 10.0734 900.232 11.0465 900.987 11.3017C905.182 12.7611 909.319 15.0671 914.215 18.3976C915.833 19.5024 917.549 20.7363 919.364 22.1063ZM796.934 8.13053C797.309 8.00969 797.691 8.11102 797.788 8.35445C797.886 8.59792 797.663 8.89132 797.29 9.01147C795.277 9.65969 793.999 10.107 792.922 10.4827C790.958 11.1731 790 11.5234 788.539 11.9886C784.696 13.2184 781.224 14.4309 778.012 15.6092C772.594 17.5993 768.424 19.3052 766.142 20.2006C765.786 20.3406 765.417 20.2587 765.32 20.0165C765.223 19.7744 765.434 19.4636 765.792 19.3231C768.065 18.4311 772.212 16.7347 777.629 14.7437C780.857 13.5588 784.347 12.3374 788.229 11.0946C789.651 10.6416 790.559 10.31 792.489 9.63093C793.573 9.25215 794.854 8.8007 796.934 8.13053ZM770.618 360.357C772.492 359.624 774.607 358.482 776.528 357.911C776.556 357.903 776.583 357.895 776.61 357.886C777.408 357.648 778.228 357.436 779.214 357.189C779.339 357.157 779.468 357.125 779.599 357.092C780.765 356.801 782.191 356.448 784.091 355.961C790.386 354.355 795.428 352.383 796.85 351.82C799.767 350.67 803.322 349.644 807.772 348.534C808.182 348.432 808.601 348.331 809.03 348.227C809.371 348.144 809.739 348.273 809.804 348.526C809.875 348.777 809.622 349.055 809.279 349.138C808.861 349.24 808.453 349.34 808.055 349.439C808.053 349.439 808.051 349.44 808.049 349.44C803.589 350.552 800.134 351.55 797.285 352.67C795.84 353.242 790.694 355.252 784.268 356.893C782.352 357.384 780.915 357.743 779.744 358.035C779.616 358.067 779.491 358.099 779.369 358.129C779.366 358.13 779.364 358.131 779.361 358.131C778.371 358.381 777.587 358.583 776.825 358.81C776.809 358.816 776.793 358.821 776.777 358.826C774.85 359.397 772.778 360.527 770.967 361.234C770.623 361.368 770.264 361.282 770.168 361.039C770.071 360.797 770.273 360.491 770.618 360.357ZM900.053 352.517C901.912 353.146 904.076 354.474 905.896 355.838C907.728 357.205 909.232 358.616 909.906 359.317C910.569 360.004 911.379 360.672 912.342 361.459C912.563 361.64 912.793 361.827 913.029 362.022C913.809 362.665 914.662 363.387 915.56 364.241C918.85 367.382 920.925 369.461 922.438 370.938C922.748 371.243 923.036 371.526 923.304 371.793C923.304 371.793 923.304 371.794 923.305 371.794C924.315 372.8 925.055 373.569 925.638 374.366C926.672 375.784 927.482 376.967 928.33 378.489C929.506 380.586 931.608 383.18 933.158 384.765C933.243 384.852 933.331 384.94 933.419 385.03C934.543 386.179 935.92 387.608 937.73 389.958C939.232 391.913 940.353 393.745 941.287 395.403C941.555 395.878 941.804 396.334 942.042 396.773C942.642 397.881 943.166 398.88 943.699 399.797C946.998 405.51 948.421 409.074 949.192 411.342C949.777 413.096 949.954 414.144 950.08 414.894C950.118 415.121 950.15 415.322 950.188 415.508C950.521 417.166 950.956 418.619 951.46 420.389C951.572 420.781 951.686 421.189 951.802 421.615C952.19 423.043 952.599 424.052 952.961 424.835C953.12 425.179 953.269 425.478 953.409 425.76C953.412 425.766 953.414 425.771 953.417 425.776C953.437 425.815 953.456 425.854 953.475 425.893C953.489 425.923 953.505 425.951 953.519 425.981C953.528 425.991 953.535 426.001 953.54 426.008C953.545 426.013 953.548 426.018 953.55 426.021C953.55 426.021 953.551 426.022 953.552 426.022C953.59 426.074 953.615 426.121 953.62 426.131C953.629 426.148 953.635 426.163 953.639 426.171C953.659 426.212 953.681 426.266 953.695 426.302C953.733 426.395 953.795 426.556 953.89 426.807C953.982 427.022 954.079 427.225 954.2 427.479C954.208 427.495 954.216 427.511 954.224 427.527C954.342 427.774 954.48 428.065 954.642 428.432C954.79 428.766 954.724 429.144 954.495 429.274C954.265 429.405 953.961 429.24 953.814 428.908C953.661 428.563 953.533 428.293 953.415 428.046C953.408 428.03 953.4 428.015 953.392 427.999C953.269 427.742 953.153 427.498 953.04 427.231C953.002 427.142 952.964 427.049 952.929 426.963C952.862 426.808 952.778 426.635 952.676 426.429C952.655 426.387 952.635 426.344 952.613 426.301C952.474 426.02 952.311 425.694 952.139 425.321C951.737 424.451 951.29 423.341 950.869 421.794C950.758 421.389 950.648 420.996 950.539 420.613C950.034 418.844 949.569 417.293 949.215 415.541C949.166 415.301 949.128 415.066 949.085 414.816C948.959 414.076 948.807 413.182 948.27 411.572C947.537 409.424 946.163 405.959 942.904 400.312C942.348 399.354 941.793 398.296 941.186 397.176C940.954 396.749 940.714 396.312 940.464 395.869C939.549 394.248 938.471 392.485 937.032 390.609C935.275 388.325 933.947 386.942 932.837 385.805C932.799 385.766 932.76 385.727 932.721 385.688C932.674 385.64 932.626 385.591 932.579 385.543C930.941 383.864 928.718 381.129 927.426 378.832C926.62 377.389 925.851 376.265 924.83 374.867C924.326 374.18 923.699 373.526 922.719 372.547C922.443 372.272 922.14 371.971 921.801 371.638C920.275 370.146 918.185 368.054 914.888 364.907C914.026 364.089 913.218 363.404 912.449 362.769C912.211 362.573 911.976 362.38 911.745 362.192C910.787 361.408 909.887 360.672 909.129 359.889C908.508 359.245 907.066 357.89 905.3 356.574C903.522 355.243 901.532 354.041 899.915 353.489C899.748 353.432 899.579 353.374 899.41 353.317C897.945 352.818 896.486 352.375 895.184 352.244C889.06 352.324 880.53 347.974 874.202 346.367C874.12 346.345 874.038 346.323 873.956 346.301C866.726 344.375 861.231 343.895 859.408 343.711C859.322 343.703 859.243 343.695 859.172 343.689C859.109 343.683 859.051 343.678 859.001 343.674C858.244 343.604 857.566 343.58 856.852 343.56C856.813 343.559 856.774 343.558 856.735 343.557C855.983 343.537 855.172 343.519 854.279 343.467C850.924 343.27 847.985 343.288 845.608 343.363C845.165 343.377 844.732 343.392 844.309 343.41C844.308 343.41 844.307 343.41 844.306 343.41C842.449 343.488 840.776 343.595 839.167 343.689C836.269 343.864 834.4 344.103 832.875 344.32C832.401 344.388 831.963 344.456 831.549 344.521C830.652 344.663 829.865 344.794 829.045 344.911C827.576 345.121 826.219 345.376 824.87 345.645C824.749 345.669 824.629 345.693 824.509 345.717C823.043 346.012 821.579 346.32 820.001 346.607C819.634 346.674 819.295 346.521 819.243 346.265C819.186 346.01 819.435 345.749 819.805 345.681C821.345 345.401 822.783 345.098 824.257 344.801C824.378 344.777 824.5 344.752 824.622 344.727C825.976 344.457 827.369 344.195 828.871 343.98C829.663 343.868 830.414 343.742 831.298 343.602C831.72 343.535 832.173 343.464 832.676 343.392C834.234 343.17 836.143 342.924 839.085 342.747C840.684 342.652 842.348 342.547 844.217 342.467C844.646 342.449 845.086 342.432 845.537 342.418C847.932 342.341 850.912 342.322 854.312 342.521C855.164 342.571 855.933 342.588 856.69 342.608C856.732 342.609 856.775 342.61 856.817 342.611C857.531 342.631 858.253 342.655 859.059 342.729C859.167 342.739 859.305 342.752 859.47 342.767C861.311 342.954 866.873 343.437 874.197 345.387C874.219 345.393 874.242 345.399 874.264 345.406C879.097 346.718 881.837 347.746 883.904 348.207C885.537 348.582 886.781 349.008 887.751 349.367C887.937 349.436 888.113 349.502 888.281 349.566C889.003 349.842 889.569 350.066 890.153 350.244C891.904 350.778 893.28 351.055 894.998 351.216C896.467 351.358 898.089 351.851 899.542 352.343C899.544 352.344 899.546 352.345 899.548 352.345C899.72 352.403 899.888 352.461 900.053 352.517ZM956.921 433.255C957.027 433.609 956.91 433.958 956.66 434.033C956.41 434.109 956.123 433.884 956.018 433.531C955.767 432.69 955.51 431.849 955.248 431.007C955.137 430.652 955.25 430.307 955.497 430.226C955.746 430.146 956.037 430.363 956.148 430.72C956.412 431.565 956.669 432.41 956.921 433.255ZM900.911 347.631C901.27 347.762 901.523 348.087 901.475 348.353C901.428 348.618 901.102 348.724 900.747 348.593C900.557 348.523 900.251 348.417 899.837 348.277C896.86 347.233 888.254 344.605 879.221 342.554C878.465 342.377 877.794 342.232 877.145 342.097C874.369 341.542 871.966 341.612 866.672 340.713C844.205 337.018 820.647 339.052 798.679 346.191C792.455 348.219 786.016 350.398 779.875 352.662C774.48 354.604 765.158 357.978 762.789 358.994C762.433 359.142 762.06 359.067 761.959 358.827C761.857 358.587 762.066 358.271 762.423 358.123C764.782 357.111 774.097 353.738 779.491 351.796C785.642 349.527 792.092 347.343 798.324 345.31C820.358 338.14 844.043 334.883 867.031 338.653C872.385 339.564 874.479 340.6 877.262 341.154C877.918 341.29 878.604 341.437 879.368 341.615C888.365 343.655 896.909 346.239 899.959 347.302C900.39 347.447 900.713 347.559 900.911 347.631ZM915.672 357.695C919.098 360.243 923.603 364.383 927.193 368.286C928.95 370.178 930.522 372.005 931.759 373.473C933.674 375.751 934.665 377.366 935.624 378.963C935.634 378.98 935.645 378.997 935.655 379.014C936.607 380.616 937.545 382.22 939.237 384.696C940.943 387.192 943.365 390.608 945.639 394.181C945.641 394.184 945.643 394.187 945.644 394.19C947.91 397.729 950.47 401.225 951.811 404.017C956.467 413.763 958.091 420.278 958.785 423.565C959.958 429.329 962.923 435.356 963.402 441.385C963.332 442.077 962.354 441.213 962.227 440.004C962.221 439.96 962.215 439.917 962.208 439.874C962.148 439.462 962.091 439.102 961.984 438.601C961.806 437.882 961.652 437.352 961.51 436.868C961.176 435.581 958.539 426.843 957.824 423.629C957.161 420.519 954.544 414.594 949.925 404.92C948.628 402.222 947.142 398.292 944.875 394.745C944.869 394.735 944.862 394.726 944.856 394.716C942.613 391.19 940.187 387.761 938.464 385.241C936.723 382.692 935.748 381.027 934.789 379.417C934.78 379.401 934.771 379.386 934.761 379.37C933.817 377.8 932.877 376.271 931.047 374.093C929.792 372.605 928.212 370.772 926.457 368.884C922.908 365.031 918.504 360.984 915.14 358.478C914.837 358.25 914.707 357.89 914.853 357.673C914.999 357.456 915.366 357.465 915.672 357.695ZM919.364 353.106C930.046 360.085 938.641 370.009 944.747 380.703C946.561 383.348 948.949 387.127 951.131 391C951.156 391.044 951.18 391.088 951.205 391.132C953.367 394.956 955.333 398.856 956.684 401.67C961.481 411.709 963.615 418.239 964.343 421.622C964.994 424.8 965.262 425.63 965.683 426.871C965.694 426.905 965.705 426.938 965.716 426.972C965.717 426.974 965.719 426.976 965.72 426.978C965.746 427.017 965.765 427.05 965.774 427.068C965.792 427.103 965.805 427.133 965.809 427.144C965.82 427.17 965.828 427.192 965.831 427.2C965.842 427.233 965.855 427.27 965.862 427.294C965.933 427.518 966.139 428.226 966.283 428.791C966.431 429.37 966.513 429.789 966.595 430.232C966.604 430.276 966.612 430.321 966.62 430.366C966.694 430.765 966.774 431.199 966.904 431.816C966.983 432.193 966.834 432.523 966.574 432.554C966.313 432.586 966.039 432.308 965.96 431.934C965.824 431.287 965.739 430.827 965.665 430.428C965.657 430.383 965.649 430.339 965.64 430.295C965.561 429.873 965.488 429.504 965.358 428.992C965.147 428.26 964.967 427.717 964.804 427.229C964.371 425.951 964.063 424.994 963.381 421.679C962.688 418.487 960.638 412.146 955.84 402.093C954.493 399.289 952.536 395.406 950.388 391.607C950.363 391.562 950.337 391.518 950.312 391.473C948.141 387.62 945.773 383.87 943.975 381.248C936.963 370.999 928.354 362.206 918.834 353.891C916.975 352.487 915.238 351.24 913.614 350.134C908.8 346.867 904.874 344.682 900.855 343.273C899.981 342.973 897.743 341.951 894.487 340.695C893.536 340.33 892.485 339.939 891.335 339.535C888.48 338.534 885.198 337.514 881.296 336.57C880.474 336.372 879.78 336.218 879.091 336.07C876.17 335.468 873.764 334.95 868.158 333.98C861.201 332.683 849.354 331.845 843.092 331.954C839.953 331.958 838.084 332.005 836.846 332.018C836.502 332.022 836.199 332.025 835.92 332.03C835.191 332.041 834.623 332.054 833.876 332.097C828.421 332.438 824.762 333.015 818.62 334.308C818.234 334.391 817.859 334.256 817.783 334.005C817.707 333.753 817.961 333.48 818.35 333.397C824.535 332.092 828.267 331.5 833.828 331.153C834.612 331.108 835.224 331.095 835.969 331.083C836.246 331.079 836.54 331.076 836.868 331.071C838.1 331.058 839.955 331.012 843.098 331.009C849.388 330.899 861.3 331.741 868.293 333.044C873.89 334.011 876.267 334.522 879.204 335.125C879.9 335.274 880.609 335.43 881.439 335.629C885.383 336.58 888.699 337.608 891.584 338.618C892.742 339.024 893.801 339.416 894.757 339.783C898.105 341.073 900.232 342.046 900.987 342.302C905.182 343.761 909.319 346.067 914.215 349.397C915.833 350.502 917.549 351.736 919.364 353.106ZM796.934 339.13C797.309 339.01 797.691 339.111 797.788 339.354C797.886 339.598 797.663 339.891 797.29 340.011C795.277 340.66 793.999 341.107 792.922 341.483C790.958 342.173 790 342.523 788.539 342.988C784.696 344.218 781.224 345.431 778.012 346.609C772.594 348.599 768.424 350.305 766.142 351.2C765.786 351.34 765.417 351.259 765.32 351.016C765.223 350.774 765.434 350.463 765.792 350.323C768.065 349.431 772.212 347.735 777.629 345.744C780.857 344.559 784.347 343.337 788.229 342.094C789.651 341.642 790.559 341.31 792.489 340.631C793.573 340.252 794.854 339.801 796.934 339.13ZM770.618 715.857C772.492 715.124 774.607 713.982 776.528 713.411C776.556 713.403 776.583 713.395 776.61 713.386C777.408 713.148 778.228 712.936 779.214 712.689C779.339 712.657 779.468 712.625 779.599 712.592C780.765 712.301 782.191 711.948 784.091 711.461C790.386 709.855 795.428 707.883 796.85 707.32C799.767 706.17 803.322 705.144 807.772 704.034C808.182 703.932 808.601 703.831 809.03 703.727C809.371 703.644 809.739 703.773 809.804 704.026C809.875 704.277 809.622 704.555 809.279 704.638C808.861 704.74 808.453 704.84 808.055 704.939C808.053 704.939 808.051 704.94 808.049 704.94C803.589 706.052 800.134 707.05 797.285 708.17C795.84 708.742 790.694 710.752 784.268 712.393C782.352 712.884 780.915 713.243 779.744 713.535C779.616 713.567 779.491 713.599 779.369 713.629C779.366 713.63 779.364 713.631 779.361 713.631C778.371 713.881 777.587 714.083 776.825 714.31C776.809 714.316 776.793 714.321 776.777 714.326C774.85 714.897 772.778 716.027 770.967 716.734C770.623 716.868 770.264 716.782 770.168 716.539C770.071 716.297 770.273 715.991 770.618 715.857ZM900.053 708.017C901.912 708.646 904.076 709.974 905.896 711.338C907.728 712.705 909.232 714.116 909.906 714.817C910.569 715.504 911.379 716.172 912.342 716.959C912.563 717.14 912.793 717.327 913.029 717.522C913.809 718.165 914.662 718.887 915.56 719.741C918.85 722.882 920.925 724.961 922.438 726.438C922.748 726.743 923.036 727.026 923.304 727.293C923.304 727.293 923.304 727.294 923.305 727.294C924.315 728.3 925.055 729.069 925.638 729.866C926.672 731.284 927.482 732.467 928.33 733.989C929.506 736.086 931.608 738.68 933.158 740.265C933.243 740.352 933.331 740.44 933.419 740.53C934.543 741.679 935.92 743.108 937.73 745.458C939.232 747.413 940.353 749.245 941.287 750.903C941.555 751.378 941.804 751.834 942.042 752.273C942.642 753.381 943.166 754.38 943.699 755.297C946.998 761.01 948.421 764.574 949.192 766.842C949.777 768.596 949.954 769.644 950.08 770.394C950.118 770.621 950.15 770.822 950.188 771.008C950.521 772.666 950.956 774.119 951.46 775.889C951.572 776.281 951.686 776.689 951.802 777.115C952.19 778.543 952.599 779.552 952.961 780.335C953.12 780.679 953.269 780.978 953.409 781.26C953.412 781.266 953.414 781.271 953.417 781.276C953.437 781.315 953.456 781.354 953.475 781.393C953.489 781.423 953.505 781.451 953.519 781.481C953.528 781.491 953.535 781.501 953.54 781.508C953.545 781.513 953.548 781.518 953.55 781.521C953.55 781.521 953.551 781.522 953.552 781.522C953.59 781.574 953.615 781.621 953.62 781.631C953.629 781.648 953.635 781.663 953.639 781.671C953.659 781.712 953.681 781.766 953.695 781.802C953.733 781.895 953.795 782.056 953.89 782.307C953.982 782.522 954.079 782.725 954.2 782.979C954.208 782.995 954.216 783.011 954.224 783.027C954.342 783.274 954.48 783.565 954.642 783.932C954.79 784.266 954.724 784.644 954.495 784.774C954.265 784.905 953.961 784.74 953.814 784.408C953.661 784.063 953.533 783.793 953.415 783.546C953.408 783.53 953.4 783.515 953.392 783.499C953.269 783.242 953.153 782.998 953.04 782.731C953.002 782.642 952.964 782.549 952.929 782.463C952.862 782.308 952.778 782.135 952.676 781.929C952.655 781.887 952.635 781.844 952.613 781.801C952.474 781.52 952.311 781.194 952.139 780.821C951.737 779.951 951.29 778.841 950.869 777.294C950.758 776.889 950.648 776.496 950.539 776.113C950.034 774.344 949.569 772.793 949.215 771.041C949.166 770.801 949.128 770.566 949.085 770.316C948.959 769.576 948.807 768.682 948.27 767.072C947.537 764.924 946.163 761.459 942.904 755.812C942.348 754.854 941.793 753.796 941.186 752.676C940.954 752.249 940.714 751.812 940.464 751.369C939.549 749.748 938.471 747.985 937.032 746.109C935.275 743.825 933.947 742.442 932.837 741.305C932.799 741.266 932.76 741.227 932.721 741.188C932.674 741.14 932.626 741.091 932.579 741.043C930.941 739.364 928.718 736.629 927.426 734.332C926.62 732.889 925.851 731.765 924.83 730.367C924.326 729.68 923.699 729.026 922.719 728.047C922.443 727.772 922.14 727.471 921.801 727.138C920.275 725.646 918.185 723.554 914.888 720.407C914.026 719.589 913.218 718.904 912.449 718.269C912.211 718.073 911.976 717.88 911.745 717.692C910.787 716.908 909.887 716.172 909.129 715.389C908.508 714.745 907.066 713.39 905.3 712.074C903.522 710.743 901.532 709.541 899.915 708.989C899.748 708.932 899.579 708.874 899.41 708.817C897.945 708.318 896.486 707.875 895.184 707.744C889.06 707.824 880.53 703.474 874.202 701.867C874.12 701.845 874.038 701.823 873.956 701.801C866.726 699.875 861.231 699.395 859.408 699.211C859.322 699.203 859.243 699.195 859.172 699.189C859.109 699.183 859.051 699.178 859.001 699.174C858.244 699.104 857.566 699.08 856.852 699.06C856.813 699.059 856.774 699.058 856.735 699.057C855.983 699.037 855.172 699.019 854.279 698.967C850.924 698.77 847.985 698.788 845.608 698.863C845.165 698.877 844.732 698.892 844.309 698.91C844.308 698.91 844.307 698.91 844.306 698.91C842.449 698.988 840.776 699.095 839.167 699.189C836.269 699.364 834.4 699.603 832.875 699.82C832.401 699.888 831.963 699.956 831.549 700.021C830.652 700.163 829.865 700.294 829.045 700.411C827.576 700.621 826.219 700.876 824.87 701.145C824.749 701.169 824.629 701.193 824.509 701.217C823.043 701.512 821.579 701.82 820.001 702.107C819.634 702.174 819.295 702.021 819.243 701.765C819.186 701.51 819.435 701.249 819.805 701.181C821.345 700.901 822.783 700.598 824.257 700.301C824.378 700.277 824.5 700.252 824.622 700.227C825.976 699.957 827.369 699.695 828.871 699.48C829.663 699.368 830.414 699.242 831.298 699.102C831.72 699.035 832.173 698.964 832.676 698.892C834.234 698.67 836.143 698.424 839.085 698.247C840.684 698.152 842.348 698.047 844.217 697.967C844.646 697.949 845.086 697.932 845.537 697.918C847.932 697.841 850.912 697.822 854.312 698.021C855.164 698.071 855.933 698.088 856.69 698.108C856.732 698.109 856.775 698.11 856.817 698.111C857.531 698.131 858.253 698.155 859.059 698.229C859.167 698.239 859.305 698.252 859.47 698.267C861.311 698.454 866.873 698.937 874.197 700.887C874.219 700.893 874.242 700.899 874.264 700.906C879.097 702.218 881.837 703.246 883.904 703.707C885.537 704.082 886.781 704.508 887.751 704.867C887.937 704.936 888.113 705.002 888.281 705.066C889.003 705.342 889.569 705.566 890.153 705.744C891.904 706.278 893.28 706.555 894.998 706.716C896.467 706.858 898.089 707.351 899.542 707.843C899.544 707.844 899.546 707.845 899.548 707.845C899.72 707.903 899.888 707.961 900.053 708.017ZM956.921 788.755C957.027 789.109 956.91 789.458 956.66 789.533C956.41 789.609 956.123 789.384 956.018 789.031C955.767 788.19 955.51 787.349 955.248 786.507C955.137 786.152 955.25 785.807 955.497 785.726C955.746 785.646 956.037 785.863 956.148 786.22C956.412 787.065 956.669 787.91 956.921 788.755ZM900.911 703.131C901.27 703.262 901.523 703.587 901.475 703.853C901.428 704.118 901.102 704.224 900.747 704.093C900.557 704.023 900.251 703.917 899.837 703.777C896.86 702.733 888.254 700.105 879.221 698.054C878.465 697.877 877.794 697.732 877.145 697.597C874.369 697.042 871.966 697.112 866.672 696.213C844.205 692.518 820.647 694.552 798.679 701.691C792.455 703.719 786.016 705.898 779.875 708.162C774.48 710.104 765.158 713.478 762.789 714.494C762.433 714.642 762.06 714.567 761.959 714.327C761.857 714.087 762.066 713.771 762.423 713.623C764.782 712.611 774.097 709.238 779.491 707.296C785.642 705.027 792.092 702.843 798.324 700.81C820.358 693.64 844.043 690.383 867.031 694.153C872.385 695.064 874.479 696.1 877.262 696.654C877.918 696.79 878.604 696.937 879.368 697.115C888.365 699.155 896.909 701.739 899.959 702.802C900.39 702.947 900.713 703.059 900.911 703.131ZM915.672 713.195C919.098 715.743 923.603 719.883 927.193 723.786C928.95 725.678 930.522 727.505 931.759 728.973C933.674 731.251 934.665 732.866 935.624 734.463C935.634 734.48 935.645 734.497 935.655 734.514C936.607 736.116 937.545 737.72 939.237 740.196C940.943 742.692 943.365 746.108 945.639 749.681C945.641 749.684 945.643 749.687 945.644 749.69C947.91 753.229 950.47 756.725 951.811 759.517C956.467 769.263 958.091 775.778 958.785 779.065C959.958 784.829 962.923 790.856 963.402 796.885C963.332 797.577 962.354 796.713 962.227 795.504C962.221 795.46 962.215 795.417 962.208 795.374C962.148 794.962 962.091 794.602 961.984 794.101C961.806 793.382 961.652 792.852 961.51 792.368C961.176 791.081 958.539 782.343 957.824 779.129C957.161 776.019 954.544 770.094 949.925 760.42C948.628 757.722 947.142 753.792 944.875 750.245C944.869 750.235 944.862 750.226 944.856 750.216C942.613 746.69 940.187 743.261 938.464 740.741C936.723 738.192 935.748 736.527 934.789 734.917C934.78 734.901 934.771 734.886 934.761 734.87C933.817 733.3 932.877 731.771 931.047 729.593C929.792 728.105 928.212 726.272 926.457 724.384C922.908 720.531 918.504 716.484 915.14 713.978C914.837 713.75 914.707 713.39 914.853 713.173C914.999 712.956 915.366 712.965 915.672 713.195ZM919.364 708.606C930.046 715.585 938.641 725.509 944.747 736.203C946.561 738.848 948.949 742.627 951.131 746.5C951.156 746.544 951.18 746.588 951.205 746.632C953.367 750.456 955.333 754.356 956.684 757.17C961.481 767.209 963.615 773.739 964.343 777.122C964.994 780.3 965.262 781.13 965.683 782.371C965.694 782.405 965.705 782.438 965.716 782.472C965.717 782.474 965.719 782.476 965.72 782.478C965.746 782.517 965.765 782.55 965.774 782.568C965.792 782.603 965.805 782.633 965.809 782.644C965.82 782.67 965.828 782.692 965.831 782.7C965.842 782.733 965.855 782.77 965.862 782.794C965.933 783.018 966.139 783.726 966.283 784.291C966.431 784.87 966.513 785.289 966.595 785.732C966.604 785.776 966.612 785.821 966.62 785.866C966.694 786.265 966.774 786.699 966.904 787.316C966.983 787.693 966.834 788.023 966.574 788.054C966.313 788.086 966.039 787.808 965.96 787.434C965.824 786.787 965.739 786.327 965.665 785.928C965.657 785.883 965.649 785.839 965.64 785.795C965.561 785.373 965.488 785.004 965.358 784.492C965.147 783.76 964.967 783.217 964.804 782.729C964.371 781.451 964.063 780.494 963.381 777.179C962.688 773.987 960.638 767.646 955.84 757.593C954.493 754.789 952.536 750.906 950.388 747.107C950.363 747.062 950.337 747.018 950.312 746.973C948.141 743.12 945.773 739.37 943.975 736.748C936.963 726.499 928.354 717.706 918.834 709.391C916.975 707.987 915.238 706.74 913.614 705.634C908.8 702.367 904.874 700.182 900.855 698.773C899.981 698.473 897.743 697.451 894.487 696.195C893.536 695.83 892.485 695.439 891.335 695.035C888.48 694.034 885.198 693.014 881.296 692.07C880.474 691.872 879.78 691.718 879.091 691.57C876.17 690.968 873.764 690.45 868.158 689.48C861.201 688.183 849.354 687.345 843.092 687.454C839.953 687.458 838.084 687.505 836.846 687.518C836.502 687.522 836.199 687.525 835.92 687.53C835.191 687.541 834.623 687.554 833.876 687.597C828.421 687.938 824.762 688.515 818.62 689.808C818.234 689.891 817.859 689.756 817.783 689.505C817.707 689.253 817.961 688.98 818.35 688.897C824.535 687.592 828.267 687 833.828 686.653C834.612 686.608 835.224 686.595 835.969 686.583C836.246 686.579 836.54 686.576 836.868 686.571C838.1 686.558 839.955 686.512 843.098 686.509C849.388 686.399 861.3 687.241 868.293 688.544C873.89 689.511 876.267 690.022 879.204 690.625C879.9 690.774 880.609 690.93 881.439 691.129C885.383 692.08 888.699 693.108 891.584 694.118C892.742 694.524 893.801 694.916 894.757 695.283C898.105 696.573 900.232 697.546 900.987 697.802C905.182 699.261 909.319 701.567 914.215 704.897C915.833 706.002 917.549 707.236 919.364 708.606ZM796.934 694.63C797.309 694.51 797.691 694.611 797.788 694.854C797.886 695.098 797.663 695.391 797.29 695.511C795.277 696.16 793.999 696.607 792.922 696.983C790.958 697.673 790 698.023 788.539 698.488C784.696 699.718 781.224 700.931 778.012 702.109C772.594 704.099 768.424 705.805 766.142 706.7C765.786 706.84 765.417 706.759 765.32 706.516C765.223 706.274 765.434 705.963 765.792 705.823C768.065 704.931 772.212 703.235 777.629 701.244C780.857 700.059 784.347 698.837 788.229 697.594C789.651 697.142 790.559 696.81 792.489 696.131C793.573 695.752 794.854 695.301 796.934 694.63ZM-554.382 276.857C-552.508 276.124 -550.393 274.982 -548.472 274.411C-548.444 274.403 -548.417 274.395 -548.39 274.386C-547.592 274.148 -546.772 273.936 -545.786 273.689C-545.661 273.657 -545.532 273.625 -545.401 273.592C-544.235 273.301 -542.809 272.948 -540.909 272.461C-534.614 270.855 -529.572 268.883 -528.15 268.32C-525.233 267.17 -521.678 266.144 -517.228 265.034C-516.818 264.932 -516.399 264.831 -515.97 264.727C-515.629 264.644 -515.261 264.773 -515.196 265.026C-515.125 265.277 -515.378 265.555 -515.721 265.638C-516.139 265.74 -516.547 265.84 -516.945 265.939C-516.947 265.939 -516.949 265.94 -516.951 265.94C-521.411 267.052 -524.866 268.05 -527.715 269.17C-529.16 269.742 -534.306 271.752 -540.732 273.393C-542.648 273.884 -544.085 274.243 -545.256 274.535C-545.384 274.567 -545.509 274.599 -545.631 274.629C-545.634 274.63 -545.636 274.631 -545.639 274.631C-546.629 274.881 -547.413 275.083 -548.175 275.31C-548.191 275.316 -548.207 275.321 -548.223 275.326C-550.15 275.897 -552.222 277.027 -554.033 277.734C-554.377 277.868 -554.736 277.782 -554.832 277.539C-554.929 277.297 -554.727 276.991 -554.382 276.857ZM-424.947 269.017C-423.088 269.646 -420.924 270.974 -419.104 272.338C-417.272 273.705 -415.768 275.116 -415.094 275.817C-414.431 276.504 -413.621 277.172 -412.658 277.959C-412.437 278.14 -412.207 278.327 -411.971 278.522C-411.191 279.165 -410.338 279.887 -409.44 280.741C-406.15 283.882 -404.075 285.961 -402.562 287.438C-402.252 287.743 -401.964 288.026 -401.696 288.293C-401.696 288.293 -401.696 288.294 -401.695 288.294C-400.685 289.3 -399.945 290.069 -399.362 290.866C-398.328 292.284 -397.518 293.467 -396.67 294.989C-395.494 297.086 -393.392 299.68 -391.842 301.265C-391.757 301.352 -391.669 301.44 -391.581 301.53C-390.457 302.679 -389.08 304.108 -387.27 306.458C-385.768 308.413 -384.647 310.245 -383.713 311.903C-383.445 312.378 -383.196 312.834 -382.958 313.273C-382.358 314.381 -381.834 315.38 -381.301 316.297C-378.002 322.01 -376.579 325.574 -375.808 327.842C-375.223 329.596 -375.046 330.644 -374.92 331.394C-374.882 331.621 -374.85 331.822 -374.812 332.008C-374.479 333.666 -374.044 335.119 -373.54 336.889C-373.428 337.281 -373.314 337.689 -373.198 338.115C-372.81 339.543 -372.401 340.552 -372.039 341.335C-371.88 341.679 -371.731 341.978 -371.591 342.26C-371.588 342.266 -371.586 342.271 -371.583 342.276C-371.563 342.315 -371.544 342.354 -371.525 342.393C-371.511 342.423 -371.495 342.451 -371.481 342.481C-371.472 342.491 -371.465 342.501 -371.46 342.508C-371.455 342.513 -371.452 342.518 -371.45 342.521C-371.45 342.521 -371.449 342.522 -371.448 342.522C-371.41 342.574 -371.385 342.621 -371.38 342.631C-371.371 342.648 -371.365 342.663 -371.361 342.671C-371.341 342.712 -371.319 342.766 -371.305 342.802C-371.267 342.895 -371.205 343.056 -371.11 343.307C-371.018 343.522 -370.921 343.725 -370.8 343.979C-370.792 343.995 -370.784 344.011 -370.776 344.027C-370.658 344.274 -370.52 344.565 -370.358 344.932C-370.21 345.266 -370.276 345.644 -370.505 345.774C-370.735 345.905 -371.039 345.74 -371.186 345.408C-371.339 345.063 -371.467 344.793 -371.585 344.546C-371.592 344.53 -371.6 344.515 -371.608 344.499C-371.731 344.242 -371.847 343.998 -371.96 343.731C-371.998 343.642 -372.036 343.549 -372.071 343.463C-372.138 343.308 -372.222 343.135 -372.324 342.929C-372.345 342.887 -372.365 342.844 -372.387 342.801C-372.526 342.52 -372.689 342.194 -372.861 341.821C-373.263 340.951 -373.71 339.841 -374.131 338.294C-374.242 337.889 -374.352 337.496 -374.461 337.113C-374.966 335.344 -375.431 333.793 -375.785 332.041C-375.834 331.801 -375.872 331.566 -375.915 331.316C-376.041 330.576 -376.193 329.682 -376.73 328.072C-377.463 325.924 -378.837 322.459 -382.096 316.812C-382.652 315.854 -383.207 314.796 -383.814 313.676C-384.046 313.249 -384.286 312.812 -384.536 312.369C-385.451 310.748 -386.529 308.985 -387.968 307.109C-389.725 304.825 -391.053 303.442 -392.163 302.305C-392.201 302.266 -392.24 302.227 -392.279 302.188C-392.326 302.14 -392.374 302.091 -392.421 302.043C-394.059 300.364 -396.282 297.629 -397.574 295.332C-398.38 293.889 -399.149 292.765 -400.17 291.367C-400.674 290.68 -401.301 290.026 -402.281 289.047C-402.557 288.772 -402.86 288.471 -403.199 288.138C-404.725 286.646 -406.815 284.554 -410.112 281.407C-410.974 280.589 -411.782 279.904 -412.551 279.269C-412.789 279.073 -413.024 278.88 -413.255 278.692C-414.213 277.908 -415.113 277.172 -415.871 276.389C-416.492 275.745 -417.934 274.39 -419.7 273.074C-421.478 271.743 -423.468 270.541 -425.085 269.989C-425.252 269.932 -425.421 269.874 -425.59 269.817C-427.055 269.318 -428.514 268.875 -429.816 268.744C-435.94 268.824 -444.47 264.474 -450.798 262.867C-450.88 262.845 -450.962 262.823 -451.044 262.801C-458.274 260.875 -463.769 260.395 -465.592 260.211C-465.678 260.203 -465.757 260.195 -465.828 260.189C-465.891 260.183 -465.949 260.178 -465.999 260.174C-466.756 260.104 -467.434 260.08 -468.148 260.06C-468.187 260.059 -468.226 260.058 -468.265 260.057C-469.017 260.037 -469.828 260.019 -470.721 259.967C-474.076 259.77 -477.015 259.788 -479.392 259.863C-479.835 259.877 -480.268 259.892 -480.691 259.91C-480.692 259.91 -480.693 259.91 -480.694 259.91C-482.551 259.988 -484.224 260.095 -485.833 260.189C-488.731 260.364 -490.6 260.603 -492.125 260.82C-492.599 260.888 -493.037 260.956 -493.451 261.021C-494.348 261.163 -495.135 261.294 -495.955 261.411C-497.424 261.621 -498.781 261.876 -500.13 262.145C-500.251 262.169 -500.371 262.193 -500.491 262.217C-501.957 262.512 -503.421 262.82 -504.999 263.107C-505.366 263.174 -505.705 263.021 -505.757 262.765C-505.814 262.51 -505.565 262.249 -505.195 262.181C-503.655 261.901 -502.217 261.598 -500.743 261.301C-500.622 261.277 -500.5 261.252 -500.378 261.227C-499.024 260.957 -497.631 260.695 -496.129 260.48C-495.337 260.368 -494.586 260.242 -493.702 260.102C-493.28 260.035 -492.827 259.964 -492.324 259.892C-490.766 259.67 -488.857 259.424 -485.915 259.247C-484.316 259.152 -482.652 259.047 -480.783 258.967C-480.354 258.949 -479.914 258.932 -479.463 258.918C-477.068 258.841 -474.088 258.822 -470.688 259.021C-469.836 259.071 -469.067 259.088 -468.31 259.108C-468.268 259.109 -468.225 259.11 -468.183 259.111C-467.469 259.131 -466.747 259.155 -465.941 259.229C-465.833 259.239 -465.695 259.252 -465.53 259.267C-463.689 259.454 -458.127 259.937 -450.803 261.887C-450.781 261.893 -450.758 261.899 -450.736 261.906C-445.903 263.218 -443.163 264.246 -441.096 264.707C-439.463 265.082 -438.219 265.508 -437.249 265.867C-437.063 265.936 -436.887 266.002 -436.719 266.066C-435.997 266.342 -435.431 266.566 -434.847 266.744C-433.096 267.278 -431.72 267.555 -430.002 267.716C-428.533 267.858 -426.911 268.351 -425.458 268.843C-425.456 268.844 -425.454 268.845 -425.452 268.845C-425.28 268.903 -425.112 268.961 -424.947 269.017ZM-368.079 349.755C-367.973 350.109 -368.09 350.458 -368.34 350.533C-368.59 350.609 -368.877 350.384 -368.982 350.031C-369.233 349.19 -369.49 348.349 -369.752 347.507C-369.863 347.152 -369.75 346.807 -369.503 346.726C-369.254 346.646 -368.963 346.863 -368.852 347.22C-368.588 348.065 -368.331 348.91 -368.079 349.755ZM-424.089 264.131C-423.73 264.262 -423.477 264.587 -423.525 264.853C-423.572 265.118 -423.898 265.224 -424.253 265.093C-424.443 265.023 -424.749 264.917 -425.163 264.777C-428.14 263.733 -436.746 261.105 -445.779 259.054C-446.535 258.877 -447.206 258.732 -447.855 258.597C-450.631 258.042 -453.034 258.112 -458.328 257.213C-480.795 253.518 -504.353 255.552 -526.321 262.691C-532.545 264.719 -538.984 266.898 -545.125 269.162C-550.52 271.104 -559.842 274.478 -562.211 275.494C-562.567 275.642 -562.94 275.567 -563.041 275.327C-563.143 275.087 -562.934 274.771 -562.577 274.623C-560.218 273.611 -550.903 270.238 -545.509 268.296C-539.358 266.027 -532.908 263.843 -526.676 261.81C-504.642 254.64 -480.957 251.383 -457.969 255.153C-452.615 256.064 -450.521 257.1 -447.738 257.654C-447.082 257.79 -446.396 257.937 -445.632 258.115C-436.635 260.155 -428.091 262.739 -425.041 263.802C-424.61 263.947 -424.287 264.059 -424.089 264.131ZM-409.328 274.195C-405.902 276.743 -401.397 280.883 -397.807 284.786C-396.05 286.678 -394.478 288.505 -393.241 289.973C-391.326 292.251 -390.335 293.866 -389.376 295.463C-389.366 295.48 -389.355 295.497 -389.345 295.514C-388.393 297.116 -387.455 298.72 -385.763 301.196C-384.057 303.692 -381.635 307.108 -379.361 310.681C-379.359 310.684 -379.357 310.687 -379.356 310.69C-377.09 314.229 -374.53 317.725 -373.189 320.517C-368.533 330.263 -366.909 336.778 -366.215 340.065C-365.042 345.829 -362.077 351.856 -361.598 357.885C-361.668 358.577 -362.646 357.713 -362.773 356.504C-362.779 356.46 -362.785 356.417 -362.792 356.374C-362.852 355.962 -362.909 355.602 -363.016 355.101C-363.194 354.382 -363.348 353.852 -363.49 353.368C-363.824 352.081 -366.461 343.343 -367.176 340.129C-367.839 337.019 -370.456 331.094 -375.075 321.42C-376.372 318.722 -377.858 314.792 -380.125 311.245C-380.131 311.235 -380.138 311.226 -380.144 311.216C-382.387 307.69 -384.813 304.261 -386.536 301.741C-388.277 299.192 -389.252 297.527 -390.211 295.917C-390.22 295.901 -390.229 295.886 -390.239 295.87C-391.183 294.3 -392.123 292.771 -393.953 290.593C-395.208 289.105 -396.788 287.272 -398.543 285.384C-402.092 281.531 -406.496 277.484 -409.86 274.978C-410.163 274.75 -410.293 274.39 -410.147 274.173C-410.001 273.956 -409.634 273.965 -409.328 274.195ZM-405.636 269.606C-394.954 276.585 -386.359 286.509 -380.253 297.203C-378.439 299.848 -376.051 303.627 -373.869 307.5C-373.844 307.544 -373.82 307.588 -373.795 307.632C-371.633 311.456 -369.667 315.356 -368.316 318.17C-363.519 328.209 -361.385 334.739 -360.657 338.122C-360.006 341.3 -359.738 342.13 -359.317 343.371C-359.306 343.405 -359.295 343.438 -359.284 343.472C-359.283 343.474 -359.281 343.476 -359.28 343.478C-359.254 343.517 -359.235 343.55 -359.226 343.568C-359.208 343.603 -359.195 343.633 -359.191 343.644C-359.18 343.67 -359.172 343.692 -359.169 343.7C-359.158 343.733 -359.145 343.77 -359.138 343.794C-359.067 344.018 -358.861 344.726 -358.717 345.291C-358.569 345.87 -358.487 346.289 -358.405 346.732C-358.396 346.776 -358.388 346.821 -358.38 346.866C-358.306 347.265 -358.226 347.699 -358.096 348.316C-358.017 348.693 -358.166 349.023 -358.426 349.054C-358.687 349.086 -358.961 348.808 -359.04 348.434C-359.176 347.787 -359.261 347.327 -359.335 346.928C-359.343 346.883 -359.351 346.839 -359.36 346.795C-359.439 346.373 -359.512 346.004 -359.642 345.492C-359.853 344.76 -360.033 344.217 -360.196 343.729C-360.629 342.451 -360.937 341.494 -361.619 338.179C-362.312 334.987 -364.362 328.646 -369.16 318.593C-370.507 315.789 -372.464 311.906 -374.612 308.107C-374.637 308.062 -374.663 308.018 -374.688 307.973C-376.859 304.12 -379.227 300.37 -381.025 297.748C-388.037 287.499 -396.646 278.706 -406.166 270.391C-408.025 268.987 -409.762 267.74 -411.386 266.634C-416.2 263.367 -420.126 261.182 -424.145 259.773C-425.019 259.473 -427.257 258.451 -430.513 257.195C-431.464 256.83 -432.515 256.439 -433.665 256.035C-436.52 255.034 -439.802 254.014 -443.704 253.07C-444.526 252.872 -445.22 252.718 -445.909 252.57C-448.83 251.968 -451.236 251.45 -456.842 250.48C-463.799 249.183 -475.646 248.345 -481.908 248.454C-485.047 248.458 -486.916 248.505 -488.154 248.518C-488.498 248.522 -488.801 248.525 -489.08 248.53C-489.809 248.541 -490.377 248.554 -491.124 248.597C-496.579 248.938 -500.238 249.515 -506.38 250.808C-506.766 250.891 -507.141 250.756 -507.217 250.505C-507.293 250.253 -507.039 249.98 -506.65 249.897C-500.465 248.592 -496.733 248 -491.172 247.653C-490.388 247.608 -489.776 247.595 -489.031 247.583C-488.754 247.579 -488.46 247.576 -488.132 247.571C-486.9 247.558 -485.045 247.512 -481.902 247.509C-475.612 247.399 -463.7 248.241 -456.707 249.544C-451.11 250.511 -448.733 251.022 -445.796 251.625C-445.1 251.774 -444.391 251.93 -443.561 252.129C-439.617 253.08 -436.301 254.108 -433.416 255.118C-432.258 255.524 -431.199 255.916 -430.243 256.283C-426.895 257.573 -424.768 258.546 -424.013 258.802C-419.818 260.261 -415.681 262.567 -410.785 265.897C-409.167 267.002 -407.451 268.236 -405.636 269.606ZM-528.066 255.63C-527.691 255.51 -527.309 255.611 -527.212 255.854C-527.114 256.098 -527.337 256.391 -527.71 256.511C-529.723 257.16 -531.001 257.607 -532.078 257.983C-534.042 258.673 -535 259.023 -536.461 259.488C-540.304 260.718 -543.776 261.931 -546.988 263.109C-552.406 265.099 -556.576 266.805 -558.858 267.7C-559.214 267.84 -559.583 267.759 -559.68 267.516C-559.777 267.274 -559.566 266.963 -559.208 266.823C-556.935 265.931 -552.788 264.235 -547.371 262.244C-544.143 261.059 -540.653 259.837 -536.771 258.594C-535.349 258.142 -534.441 257.81 -532.511 257.131C-531.427 256.752 -530.146 256.301 -528.066 255.63ZM-351.382 139.857C-349.508 139.124 -347.393 137.982 -345.472 137.411C-345.444 137.403 -345.417 137.395 -345.39 137.386C-344.592 137.148 -343.772 136.936 -342.786 136.689C-342.661 136.657 -342.532 136.625 -342.401 136.592C-341.235 136.301 -339.809 135.948 -337.909 135.461C-331.614 133.855 -326.572 131.883 -325.15 131.32C-322.233 130.17 -318.678 129.144 -314.228 128.034C-313.818 127.932 -313.399 127.831 -312.97 127.727C-312.629 127.644 -312.261 127.773 -312.196 128.026C-312.125 128.277 -312.378 128.555 -312.721 128.638C-313.139 128.74 -313.547 128.84 -313.945 128.939C-313.947 128.939 -313.949 128.94 -313.951 128.94C-318.411 130.052 -321.866 131.05 -324.715 132.17C-326.16 132.742 -331.306 134.752 -337.732 136.393C-339.648 136.884 -341.085 137.243 -342.256 137.535C-342.384 137.567 -342.509 137.599 -342.631 137.629C-342.634 137.63 -342.636 137.631 -342.639 137.631C-343.629 137.881 -344.413 138.083 -345.175 138.31C-345.191 138.316 -345.207 138.321 -345.223 138.326C-347.15 138.897 -349.222 140.027 -351.033 140.734C-351.377 140.868 -351.736 140.782 -351.832 140.539C-351.929 140.297 -351.727 139.991 -351.382 139.857ZM-221.947 132.017C-220.088 132.646 -217.924 133.974 -216.104 135.338C-214.272 136.705 -212.768 138.116 -212.094 138.817C-211.431 139.504 -210.621 140.172 -209.658 140.959C-209.437 141.14 -209.207 141.327 -208.971 141.522C-208.191 142.165 -207.338 142.887 -206.44 143.741C-203.15 146.882 -201.075 148.961 -199.562 150.438C-199.252 150.743 -198.964 151.026 -198.696 151.293C-198.696 151.293 -198.696 151.294 -198.695 151.294C-197.685 152.3 -196.945 153.069 -196.362 153.866C-195.328 155.284 -194.518 156.467 -193.67 157.989C-192.494 160.086 -190.392 162.68 -188.842 164.265C-188.757 164.352 -188.669 164.44 -188.581 164.53C-187.457 165.679 -186.08 167.108 -184.27 169.458C-182.768 171.413 -181.647 173.245 -180.713 174.903C-180.445 175.378 -180.196 175.834 -179.958 176.273C-179.358 177.381 -178.834 178.38 -178.301 179.297C-175.002 185.01 -173.579 188.574 -172.808 190.842C-172.223 192.596 -172.046 193.644 -171.92 194.394C-171.882 194.621 -171.85 194.822 -171.812 195.008C-171.479 196.666 -171.044 198.119 -170.54 199.889C-170.428 200.281 -170.314 200.689 -170.198 201.115C-169.81 202.543 -169.401 203.552 -169.039 204.335C-168.88 204.679 -168.731 204.978 -168.591 205.26C-168.588 205.266 -168.586 205.271 -168.583 205.276C-168.563 205.315 -168.544 205.354 -168.525 205.393C-168.511 205.423 -168.495 205.451 -168.481 205.481C-168.472 205.491 -168.465 205.501 -168.46 205.508C-168.455 205.513 -168.452 205.518 -168.45 205.521C-168.45 205.521 -168.449 205.522 -168.448 205.522C-168.41 205.574 -168.385 205.621 -168.38 205.631C-168.371 205.648 -168.365 205.663 -168.361 205.671C-168.341 205.712 -168.319 205.766 -168.305 205.802C-168.267 205.895 -168.205 206.056 -168.11 206.307C-168.018 206.522 -167.921 206.725 -167.8 206.979C-167.792 206.995 -167.784 207.011 -167.776 207.027C-167.658 207.274 -167.52 207.565 -167.358 207.932C-167.21 208.266 -167.276 208.644 -167.505 208.774C-167.735 208.905 -168.039 208.74 -168.186 208.408C-168.339 208.063 -168.467 207.793 -168.585 207.546C-168.592 207.53 -168.6 207.515 -168.608 207.499C-168.731 207.242 -168.847 206.998 -168.96 206.731C-168.998 206.642 -169.036 206.549 -169.071 206.463C-169.138 206.308 -169.222 206.135 -169.324 205.929C-169.345 205.887 -169.365 205.844 -169.387 205.801C-169.526 205.52 -169.689 205.194 -169.861 204.821C-170.263 203.951 -170.71 202.841 -171.131 201.294C-171.242 200.889 -171.352 200.496 -171.461 200.113C-171.966 198.344 -172.431 196.793 -172.785 195.041C-172.834 194.801 -172.872 194.566 -172.915 194.316C-173.041 193.576 -173.193 192.682 -173.73 191.072C-174.463 188.924 -175.837 185.459 -179.096 179.812C-179.652 178.854 -180.207 177.796 -180.814 176.676C-181.046 176.249 -181.286 175.812 -181.536 175.369C-182.451 173.748 -183.529 171.985 -184.968 170.109C-186.725 167.825 -188.053 166.442 -189.163 165.305C-189.201 165.266 -189.24 165.227 -189.279 165.188C-189.326 165.14 -189.374 165.091 -189.421 165.043C-191.059 163.364 -193.282 160.629 -194.574 158.332C-195.38 156.889 -196.149 155.765 -197.17 154.367C-197.674 153.68 -198.301 153.026 -199.281 152.047C-199.557 151.772 -199.86 151.471 -200.199 151.138C-201.725 149.646 -203.815 147.554 -207.112 144.407C-207.974 143.589 -208.782 142.904 -209.551 142.269C-209.789 142.073 -210.024 141.88 -210.255 141.692C-211.213 140.908 -212.113 140.172 -212.871 139.389C-213.492 138.745 -214.934 137.39 -216.7 136.074C-218.478 134.743 -220.468 133.541 -222.085 132.989C-222.252 132.932 -222.421 132.874 -222.59 132.817C-224.055 132.318 -225.514 131.875 -226.816 131.744C-232.94 131.824 -241.47 127.474 -247.798 125.867C-247.88 125.845 -247.962 125.823 -248.044 125.801C-255.274 123.875 -260.769 123.395 -262.592 123.211C-262.678 123.203 -262.757 123.195 -262.828 123.189C-262.891 123.183 -262.949 123.178 -262.999 123.174C-263.756 123.104 -264.434 123.08 -265.148 123.06C-265.187 123.059 -265.226 123.058 -265.265 123.057C-266.017 123.037 -266.828 123.019 -267.721 122.967C-271.076 122.77 -274.015 122.788 -276.392 122.863C-276.835 122.877 -277.268 122.892 -277.691 122.91C-277.692 122.91 -277.693 122.91 -277.694 122.91C-279.551 122.988 -281.224 123.095 -282.833 123.189C-285.731 123.364 -287.6 123.603 -289.125 123.82C-289.599 123.888 -290.037 123.956 -290.451 124.021C-291.348 124.163 -292.135 124.294 -292.955 124.411C-294.424 124.621 -295.781 124.876 -297.13 125.145C-297.251 125.169 -297.371 125.193 -297.491 125.217C-298.957 125.512 -300.421 125.82 -301.999 126.107C-302.366 126.174 -302.705 126.021 -302.757 125.765C-302.814 125.51 -302.565 125.249 -302.195 125.181C-300.655 124.901 -299.217 124.598 -297.743 124.301C-297.622 124.277 -297.5 124.252 -297.378 124.227C-296.024 123.957 -294.631 123.695 -293.129 123.48C-292.337 123.368 -291.586 123.242 -290.702 123.102C-290.28 123.035 -289.827 122.964 -289.324 122.892C-287.766 122.67 -285.857 122.424 -282.915 122.247C-281.316 122.152 -279.652 122.047 -277.783 121.967C-277.354 121.949 -276.914 121.932 -276.463 121.918C-274.068 121.841 -271.088 121.822 -267.688 122.021C-266.836 122.071 -266.067 122.088 -265.31 122.108C-265.268 122.109 -265.225 122.11 -265.183 122.111C-264.469 122.131 -263.747 122.155 -262.941 122.229C-262.833 122.239 -262.695 122.252 -262.53 122.267C-260.689 122.454 -255.127 122.937 -247.803 124.887C-247.781 124.893 -247.758 124.899 -247.736 124.906C-242.903 126.218 -240.163 127.246 -238.096 127.707C-236.463 128.082 -235.219 128.508 -234.249 128.867C-234.063 128.936 -233.887 129.002 -233.719 129.066C-232.997 129.342 -232.431 129.566 -231.847 129.744C-230.096 130.278 -228.72 130.555 -227.002 130.716C-225.533 130.858 -223.911 131.351 -222.458 131.843C-222.456 131.844 -222.454 131.845 -222.452 131.845C-222.28 131.903 -222.112 131.961 -221.947 132.017ZM-165.079 212.755C-164.973 213.109 -165.09 213.458 -165.34 213.533C-165.59 213.609 -165.877 213.384 -165.982 213.031C-166.233 212.19 -166.49 211.349 -166.752 210.507C-166.863 210.152 -166.75 209.807 -166.503 209.726C-166.254 209.646 -165.963 209.863 -165.852 210.22C-165.588 211.065 -165.331 211.91 -165.079 212.755ZM-221.089 127.131C-220.73 127.262 -220.477 127.587 -220.525 127.853C-220.572 128.118 -220.898 128.224 -221.253 128.093C-221.443 128.023 -221.749 127.917 -222.163 127.777C-225.14 126.733 -233.746 124.105 -242.779 122.054C-243.535 121.877 -244.206 121.732 -244.855 121.597C-247.631 121.042 -250.034 121.112 -255.328 120.213C-277.795 116.518 -301.353 118.552 -323.321 125.691C-329.545 127.719 -335.984 129.898 -342.125 132.162C-347.52 134.104 -356.842 137.478 -359.211 138.494C-359.567 138.642 -359.94 138.567 -360.041 138.327C-360.143 138.087 -359.934 137.771 -359.577 137.623C-357.218 136.611 -347.903 133.238 -342.509 131.296C-336.358 129.027 -329.908 126.843 -323.676 124.81C-301.642 117.64 -277.957 114.383 -254.969 118.153C-249.615 119.064 -247.521 120.1 -244.738 120.654C-244.082 120.79 -243.396 120.937 -242.632 121.115C-233.635 123.155 -225.091 125.739 -222.041 126.802C-221.61 126.947 -221.287 127.059 -221.089 127.131ZM-206.328 137.195C-202.902 139.743 -198.397 143.883 -194.807 147.786C-193.05 149.678 -191.478 151.505 -190.241 152.973C-188.326 155.251 -187.335 156.866 -186.376 158.463C-186.366 158.48 -186.355 158.497 -186.345 158.514C-185.393 160.116 -184.455 161.72 -182.763 164.196C-181.057 166.692 -178.635 170.108 -176.361 173.681C-176.359 173.684 -176.357 173.687 -176.356 173.69C-174.09 177.229 -171.53 180.725 -170.189 183.517C-165.533 193.263 -163.909 199.778 -163.215 203.065C-162.042 208.829 -159.077 214.856 -158.598 220.885C-158.668 221.577 -159.646 220.713 -159.773 219.504C-159.779 219.46 -159.785 219.417 -159.792 219.374C-159.852 218.962 -159.909 218.602 -160.016 218.101C-160.194 217.382 -160.348 216.852 -160.49 216.368C-160.824 215.081 -163.461 206.343 -164.176 203.129C-164.839 200.019 -167.456 194.094 -172.075 184.42C-173.372 181.722 -174.858 177.792 -177.125 174.245C-177.131 174.235 -177.138 174.226 -177.144 174.216C-179.387 170.69 -181.813 167.261 -183.536 164.741C-185.277 162.192 -186.252 160.527 -187.211 158.917C-187.22 158.901 -187.229 158.886 -187.239 158.87C-188.183 157.3 -189.123 155.771 -190.953 153.593C-192.208 152.105 -193.788 150.272 -195.543 148.384C-199.092 144.531 -203.496 140.484 -206.86 137.978C-207.163 137.75 -207.293 137.39 -207.147 137.173C-207.001 136.956 -206.634 136.965 -206.328 137.195ZM-202.636 132.606C-191.954 139.585 -183.359 149.509 -177.253 160.203C-175.439 162.848 -173.051 166.627 -170.869 170.5C-170.844 170.544 -170.82 170.588 -170.795 170.632C-168.633 174.456 -166.667 178.356 -165.316 181.17C-160.519 191.209 -158.385 197.739 -157.657 201.122C-157.006 204.3 -156.738 205.13 -156.317 206.371C-156.306 206.405 -156.295 206.438 -156.284 206.472C-156.283 206.474 -156.281 206.476 -156.28 206.478C-156.254 206.517 -156.235 206.55 -156.226 206.568C-156.208 206.603 -156.195 206.633 -156.191 206.644C-156.18 206.67 -156.172 206.692 -156.169 206.7C-156.158 206.733 -156.145 206.77 -156.138 206.794C-156.067 207.018 -155.861 207.726 -155.717 208.291C-155.569 208.87 -155.487 209.289 -155.405 209.732C-155.396 209.776 -155.388 209.821 -155.38 209.866C-155.306 210.265 -155.226 210.699 -155.096 211.316C-155.017 211.693 -155.166 212.023 -155.426 212.054C-155.687 212.086 -155.961 211.808 -156.04 211.434C-156.176 210.787 -156.261 210.327 -156.335 209.928C-156.343 209.883 -156.351 209.839 -156.36 209.795C-156.439 209.373 -156.512 209.004 -156.642 208.492C-156.853 207.76 -157.033 207.217 -157.196 206.729C-157.629 205.451 -157.937 204.494 -158.619 201.179C-159.312 197.987 -161.362 191.646 -166.16 181.593C-167.507 178.789 -169.464 174.906 -171.612 171.107C-171.637 171.062 -171.663 171.018 -171.688 170.973C-173.859 167.12 -176.227 163.37 -178.025 160.748C-185.037 150.499 -193.646 141.706 -203.166 133.391C-205.025 131.987 -206.762 130.74 -208.386 129.634C-213.2 126.367 -217.126 124.182 -221.145 122.773C-222.019 122.473 -224.257 121.451 -227.513 120.195C-228.464 119.83 -229.515 119.439 -230.665 119.035C-233.52 118.034 -236.802 117.014 -240.704 116.07C-241.526 115.872 -242.22 115.718 -242.909 115.57C-245.83 114.968 -248.236 114.45 -253.842 113.48C-260.799 112.183 -272.646 111.345 -278.908 111.454C-282.047 111.458 -283.916 111.505 -285.154 111.518C-285.498 111.522 -285.801 111.525 -286.08 111.53C-286.809 111.541 -287.377 111.554 -288.124 111.597C-293.579 111.938 -297.238 112.515 -303.38 113.808C-303.766 113.891 -304.141 113.756 -304.217 113.505C-304.293 113.253 -304.039 112.98 -303.65 112.897C-297.465 111.592 -293.733 111 -288.172 110.653C-287.388 110.608 -286.776 110.595 -286.031 110.583C-285.754 110.579 -285.46 110.576 -285.132 110.571C-283.9 110.558 -282.045 110.512 -278.902 110.509C-272.612 110.399 -260.7 111.241 -253.707 112.544C-248.11 113.511 -245.733 114.022 -242.796 114.625C-242.1 114.774 -241.391 114.93 -240.561 115.129C-236.617 116.08 -233.301 117.108 -230.416 118.118C-229.258 118.524 -228.199 118.916 -227.243 119.283C-223.895 120.573 -221.768 121.546 -221.013 121.802C-216.818 123.261 -212.681 125.567 -207.785 128.897C-206.167 130.002 -204.451 131.236 -202.636 132.606ZM-325.066 118.63C-324.691 118.51 -324.309 118.611 -324.212 118.854C-324.114 119.098 -324.337 119.391 -324.71 119.511C-326.723 120.16 -328.001 120.607 -329.078 120.983C-331.042 121.673 -332 122.023 -333.461 122.488C-337.304 123.718 -340.776 124.931 -343.988 126.109C-349.406 128.099 -353.576 129.805 -355.858 130.7C-356.214 130.84 -356.583 130.759 -356.68 130.516C-356.777 130.274 -356.566 129.963 -356.208 129.823C-353.935 128.931 -349.788 127.235 -344.371 125.244C-341.143 124.059 -337.653 122.837 -333.771 121.594C-332.349 121.142 -331.441 120.81 -329.511 120.131C-328.427 119.752 -327.146 119.301 -325.066 118.63Z" fill="white"/>
</svg>
