<svg width="63" height="62" viewBox="0 0 63 62" fill="none" xmlns="http://www.w3.org/2000/svg">
<path d="M56.1667 1.5H6.83333C3.88781 1.5 1.5 3.88781 1.5 6.83333V43.8947C1.5 46.8403 3.88781 49.228 6.83333 49.228H56.1667C59.1123 49.228 61.5 46.8403 61.5 43.8947V6.83333C61.5 3.88781 59.1123 1.5 56.1667 1.5Z" stroke="white" stroke-width="3" stroke-linecap="round" stroke-linejoin="round"/>
<path d="M56.1667 1.5H6.83333C3.88781 1.5 1.5 3.88781 1.5 6.83333V43.8947C1.5 46.8403 3.88781 49.228 6.83333 49.228H56.1667C59.1123 49.228 61.5 46.8403 61.5 43.8947V6.83333C61.5 3.88781 59.1123 1.5 56.1667 1.5Z" stroke="#D0CFD3" stroke-width="3" stroke-linecap="round" stroke-linejoin="round"/>
<path d="M26.0468 49.2256L23.3188 60.1349" stroke="white" stroke-width="3" stroke-linecap="round" stroke-linejoin="round"/>
<path d="M26.0468 49.2256L23.3188 60.1349" stroke="#D0CFD3" stroke-width="3" stroke-linecap="round" stroke-linejoin="round"/>
<path d="M23.3188 60.1338H38.3188" stroke="white" stroke-width="3" stroke-linecap="round" stroke-linejoin="round"/>
<path d="M23.3188 60.1338H38.3188" stroke="#D0CFD3" stroke-width="3" stroke-linecap="round" stroke-linejoin="round"/>
<path d="M36.9556 49.2256L39.6809 60.1349" stroke="white" stroke-width="3" stroke-linecap="round" stroke-linejoin="round"/>
<path d="M36.9556 49.2256L39.6809 60.1349" stroke="#D0CFD3" stroke-width="3" stroke-linecap="round" stroke-linejoin="round"/>
<path d="M43.772 60.1338H19.228" stroke="white" stroke-width="3" stroke-linecap="round" stroke-linejoin="round"/>
<path d="M43.772 60.1338H19.228" stroke="#D0CFD3" stroke-width="3" stroke-linecap="round" stroke-linejoin="round"/>
<path d="M1.5 39.6494H61.5" stroke="white" stroke-width="3" stroke-linecap="round" stroke-linejoin="round"/>
<path d="M1.5 39.6494H61.5" stroke="#D0CFD3" stroke-width="3" stroke-linecap="round" stroke-linejoin="round"/>
<path d="M9.99365 12.5586H16.0363" stroke="white" stroke-width="3" stroke-linecap="round" stroke-linejoin="round"/>
<path d="M9.99365 12.5586H16.0363" stroke="#D0CFD3" stroke-width="3" stroke-linecap="round" stroke-linejoin="round"/>
<path d="M22.0781 12.5586H25.7048" stroke="white" stroke-width="3" stroke-linecap="round" stroke-linejoin="round"/>
<path d="M22.0781 12.5586H25.7048" stroke="#D0CFD3" stroke-width="3" stroke-linecap="round" stroke-linejoin="round"/>
<path d="M9.99365 20.71H13.6177" stroke="white" stroke-width="3" stroke-linecap="round" stroke-linejoin="round"/>
<path d="M9.99365 20.71H13.6177" stroke="#D0CFD3" stroke-width="3" stroke-linecap="round" stroke-linejoin="round"/>
<path d="M19.6626 20.71H25.7053" stroke="white" stroke-width="3" stroke-linecap="round" stroke-linejoin="round"/>
<path d="M19.6626 20.71H25.7053" stroke="#D0CFD3" stroke-width="3" stroke-linecap="round" stroke-linejoin="round"/>
<path d="M9.99365 28.8623H25.7057" stroke="white" stroke-width="3" stroke-linecap="round" stroke-linejoin="round"/>
<path d="M9.99365 28.8623H25.7057" stroke="#D0CFD3" stroke-width="3" stroke-linecap="round" stroke-linejoin="round"/>
<path d="M34.228 1.5V39.6493" stroke="white" stroke-width="3" stroke-linecap="round" stroke-linejoin="round"/>
<path d="M34.228 1.5V39.6493" stroke="#D0CFD3" stroke-width="3" stroke-linecap="round" stroke-linejoin="round"/>
<path d="M34.228 30.8618L42.3667 22.9258C43.6944 21.8804 45.3254 21.2936 47.0147 21.2532C48.7043 21.2128 50.3611 21.7211 51.7374 22.7018L61.5 30.8618" stroke="white" stroke-width="3" stroke-linecap="round" stroke-linejoin="round"/>
<path d="M34.228 30.8618L42.3667 22.9258C43.6944 21.8804 45.3254 21.2936 47.0147 21.2532C48.7043 21.2128 50.3611 21.7211 51.7374 22.7018L61.5 30.8618" stroke="#D0CFD3" stroke-width="3" stroke-linecap="round" stroke-linejoin="round"/>
<path d="M43.7591 13.8923C43.0226 13.8923 42.4258 13.2953 42.4258 12.5589C42.4258 11.8225 43.0226 11.2256 43.7591 11.2256" stroke="white" stroke-width="3"/>
<path d="M43.7591 13.8923C43.0226 13.8923 42.4258 13.2953 42.4258 12.5589C42.4258 11.8225 43.0226 11.2256 43.7591 11.2256" stroke="#D0CFD3" stroke-width="3"/>
<path d="M43.7593 13.8923C44.4955 13.8923 45.0926 13.2953 45.0926 12.5589C45.0926 11.8225 44.4955 11.2256 43.7593 11.2256" stroke="white" stroke-width="3"/>
<path d="M43.7593 13.8923C44.4955 13.8923 45.0926 13.2953 45.0926 12.5589C45.0926 11.8225 44.4955 11.2256 43.7593 11.2256" stroke="#D0CFD3" stroke-width="3"/>
</svg>
