<svg width="60" height="48" viewBox="0 0 60 48" fill="none" xmlns="http://www.w3.org/2000/svg">
<path d="M8.79927 24C9.64676 24.6971 10.3297 25.573 10.7991 26.565C11.999 29.04 11.999 32.065 11.999 35C11.999 41.0775 12.249 44 17.9985 44C18.5289 44 19.0376 44.2107 19.4126 44.5858C19.7876 44.9609 19.9983 45.4696 19.9983 46C19.9983 46.5304 19.7876 47.0391 19.4126 47.4142C19.0376 47.7893 18.5289 48 17.9985 48C13.6289 48 10.6691 46.465 9.19923 43.435C7.99933 40.96 7.99933 37.935 7.99933 35C7.99933 28.9225 7.74935 26 1.99983 26C1.46944 26 0.960779 25.7893 0.585738 25.4142C0.210696 25.0391 0 24.5304 0 24C0 23.4696 0.210696 22.9609 0.585738 22.5858C0.960779 22.2107 1.46944 22 1.99983 22C7.74935 22 7.99933 19.0775 7.99933 13C7.99933 10.07 7.99933 7.04 9.19923 4.565C10.6741 1.535 13.6339 0 18.0035 0C18.5339 0 19.0426 0.210714 19.4176 0.585787C19.7926 0.96086 20.0033 1.46957 20.0033 2C20.0033 2.53043 19.7926 3.03914 19.4176 3.41421C19.0426 3.78929 18.5339 4 18.0035 4C12.254 4 12.004 6.9225 12.004 13C12.004 15.93 12.004 18.96 10.8041 21.435C10.3332 22.4274 9.64858 23.3034 8.79927 24ZM58.0002 22C52.2506 22 52.0007 19.0775 52.0007 13C52.0007 10.07 52.0007 7.04 50.8008 4.565C49.3309 1.535 46.3711 0 42.0015 0C41.4711 0 40.9624 0.210714 40.5874 0.585787C40.2124 0.96086 40.0017 1.46957 40.0017 2C40.0017 2.53043 40.2124 3.03914 40.5874 3.41421C40.9624 3.78929 41.4711 4 42.0015 4C47.751 4 48.001 6.9225 48.001 13C48.001 15.93 48.001 18.96 49.2009 21.435C49.6703 22.427 50.3532 23.3029 51.2007 24C50.3532 24.6971 49.6703 25.573 49.2009 26.565C48.001 29.04 48.001 32.065 48.001 35C48.001 41.0775 47.751 44 42.0015 44C41.4711 44 40.9624 44.2107 40.5874 44.5858C40.2124 44.9609 40.0017 45.4696 40.0017 46C40.0017 46.5304 40.2124 47.0391 40.5874 47.4142C40.9624 47.7893 41.4711 48 42.0015 48C46.3711 48 49.3309 46.465 50.8008 43.435C52.0007 40.96 52.0007 37.935 52.0007 35C52.0007 28.9225 52.2506 26 58.0002 26C58.5306 26 59.0392 25.7893 59.4143 25.4142C59.7893 25.0391 60 24.5304 60 24C60 23.4696 59.7893 22.9609 59.4143 22.5858C59.0392 22.2107 58.5306 22 58.0002 22Z" fill="white"/>
<path d="M8.79927 24C9.64676 24.6971 10.3297 25.573 10.7991 26.565C11.999 29.04 11.999 32.065 11.999 35C11.999 41.0775 12.249 44 17.9985 44C18.5289 44 19.0376 44.2107 19.4126 44.5858C19.7876 44.9609 19.9983 45.4696 19.9983 46C19.9983 46.5304 19.7876 47.0391 19.4126 47.4142C19.0376 47.7893 18.5289 48 17.9985 48C13.6289 48 10.6691 46.465 9.19923 43.435C7.99933 40.96 7.99933 37.935 7.99933 35C7.99933 28.9225 7.74935 26 1.99983 26C1.46944 26 0.960779 25.7893 0.585738 25.4142C0.210696 25.0391 0 24.5304 0 24C0 23.4696 0.210696 22.9609 0.585738 22.5858C0.960779 22.2107 1.46944 22 1.99983 22C7.74935 22 7.99933 19.0775 7.99933 13C7.99933 10.07 7.99933 7.04 9.19923 4.565C10.6741 1.535 13.6339 0 18.0035 0C18.5339 0 19.0426 0.210714 19.4176 0.585787C19.7926 0.96086 20.0033 1.46957 20.0033 2C20.0033 2.53043 19.7926 3.03914 19.4176 3.41421C19.0426 3.78929 18.5339 4 18.0035 4C12.254 4 12.004 6.9225 12.004 13C12.004 15.93 12.004 18.96 10.8041 21.435C10.3332 22.4274 9.64858 23.3034 8.79927 24ZM58.0002 22C52.2506 22 52.0007 19.0775 52.0007 13C52.0007 10.07 52.0007 7.04 50.8008 4.565C49.3309 1.535 46.3711 0 42.0015 0C41.4711 0 40.9624 0.210714 40.5874 0.585787C40.2124 0.96086 40.0017 1.46957 40.0017 2C40.0017 2.53043 40.2124 3.03914 40.5874 3.41421C40.9624 3.78929 41.4711 4 42.0015 4C47.751 4 48.001 6.9225 48.001 13C48.001 15.93 48.001 18.96 49.2009 21.435C49.6703 22.427 50.3532 23.3029 51.2007 24C50.3532 24.6971 49.6703 25.573 49.2009 26.565C48.001 29.04 48.001 32.065 48.001 35C48.001 41.0775 47.751 44 42.0015 44C41.4711 44 40.9624 44.2107 40.5874 44.5858C40.2124 44.9609 40.0017 45.4696 40.0017 46C40.0017 46.5304 40.2124 47.0391 40.5874 47.4142C40.9624 47.7893 41.4711 48 42.0015 48C46.3711 48 49.3309 46.465 50.8008 43.435C52.0007 40.96 52.0007 37.935 52.0007 35C52.0007 28.9225 52.2506 26 58.0002 26C58.5306 26 59.0392 25.7893 59.4143 25.4142C59.7893 25.0391 60 24.5304 60 24C60 23.4696 59.7893 22.9609 59.4143 22.5858C59.0392 22.2107 58.5306 22 58.0002 22Z" fill="#D0CFD3"/>
</svg>
